<?xml version="1.0" encoding="UTF-8"?>
<!DOCTYPE svg PUBLIC "-//W3C//DTD SVG 1.1//EN" "http://www.w3.org/Graphics/SVG/1.1/DTD/svg11.dtd">
<svg xmlns="http://www.w3.org/2000/svg" version="1.1" width="512px" height="512px" style="shape-rendering:geometricPrecision; text-rendering:geometricPrecision; image-rendering:optimizeQuality; fill-rule:evenodd; clip-rule:evenodd" xmlns:xlink="http://www.w3.org/1999/xlink">
<g><path style="opacity:0.965" fill="#000000" d="M 8.5,-0.5 C 12.5,-0.5 16.5,-0.5 20.5,-0.5C 39.1806,7.92172 58.8473,13.0884 79.5,15C 108.486,16.1469 137.486,16.8135 166.5,17C 228.031,26.5386 268.865,60.7053 289,119.5C 291.419,127.683 293.086,136.016 294,144.5C 294.333,160.833 294.667,177.167 295,193.5C 335.333,153.167 375.667,112.833 416,72.5C 416.667,71.8333 416.667,71.1667 416,70.5C 405.636,60.4706 395.636,50.1373 386,39.5C 381.405,27.5236 385.238,19.6903 397.5,16C 428.36,10.8028 459.027,5.30276 489.5,-0.5C 493.833,-0.5 498.167,-0.5 502.5,-0.5C 503.987,0.803551 505.654,1.97022 507.5,3C 508.697,5.01533 510.03,6.84866 511.5,8.5C 511.5,12.8333 511.5,17.1667 511.5,21.5C 505.503,53.3312 499.669,85.3312 494,117.5C 488.848,126.475 481.348,128.975 471.5,125C 460.863,115.364 450.529,105.364 440.5,95C 439.833,94.3333 439.167,94.3333 438.5,95C 398.5,135 358.5,175 318.5,215C 337.216,215.168 355.883,216.168 374.5,218C 422.366,227.326 457.532,253.492 480,296.5C 487.149,311.762 491.816,327.762 494,344.5C 494.333,367.5 494.667,390.5 495,413.5C 495.218,440.435 500.718,466.101 511.5,490.5C 511.5,494.167 511.5,497.833 511.5,501.5C 509.167,505.833 505.833,509.167 501.5,511.5C 488.833,511.5 476.167,511.5 463.5,511.5C 434.481,505.151 416.148,487.484 408.5,458.5C 327.434,419.085 241.768,399.418 151.5,399.5C 151.928,420.207 151.428,440.873 150,461.5C 148.667,463.5 147.333,465.5 146,467.5C 131.164,482.841 115.998,497.508 100.5,511.5C 97.1667,511.5 93.8333,511.5 90.5,511.5C 87.2972,509.814 84.4639,507.481 82,504.5C 76.9246,492.02 71.5912,479.686 66,467.5C 52.5,481 39,494.5 25.5,508C 23.5681,509.459 21.5681,510.625 19.5,511.5C 16.1667,511.5 12.8333,511.5 9.5,511.5C 5.14152,509.142 1.80818,505.808 -0.5,501.5C -0.5,497.833 -0.5,494.167 -0.5,490.5C 13.5724,474.925 28.2391,459.758 43.5,445C 31.3135,439.409 18.9802,434.075 6.5,429C 3.51895,426.536 1.18562,423.703 -0.5,420.5C -0.5,416.833 -0.5,413.167 -0.5,409.5C 14.2166,394.282 29.2166,379.115 44.5,364C 46.1667,363 47.8333,362 49.5,361C 69.7875,359.56 90.1209,359.06 110.5,359.5C 108.405,319.957 104.238,280.623 98,241.5C 88.8601,193.081 73.5268,146.747 52,102.5C 24.2092,94.8765 6.70916,77.2098 -0.5,49.5C -0.5,35.8333 -0.5,22.1667 -0.5,8.5C 0.803551,7.01307 1.97022,5.3464 3,3.5C 5.01533,2.30342 6.84866,0.970083 8.5,-0.5 Z M 475.5,33.5 C 476.376,33.3691 477.043,33.7025 477.5,34.5C 474.775,49.1825 471.942,63.8492 469,78.5C 456.833,66.3333 444.667,54.1667 432.5,42C 446.959,39.1496 461.292,36.3163 475.5,33.5 Z M 30.5,36.5 C 46.1166,41.3899 62.1166,44.5566 78.5,46C 102.5,46.3333 126.5,46.6667 150.5,47C 205.909,50.7503 242.409,78.917 260,131.5C 261.256,136.448 262.256,141.448 263,146.5C 263.667,172.833 263.667,199.167 263,225.5C 252.333,236.167 241.667,246.833 231,257.5C 235.037,193.431 211.87,141.931 161.5,103C 129.955,81.3584 94.9548,70.6918 56.5,71C 39.2574,65.9283 30.5907,54.4283 30.5,36.5 Z M 87.5,106.5 C 88.9464,105.387 90.6131,105.22 92.5,106C 148,120.167 182.833,155 197,210.5C 198.828,219.74 199.828,229.073 200,238.5C 200.667,255.167 200.667,271.833 200,288.5C 180.333,308.167 160.667,327.833 141,347.5C 138.899,324.849 136.899,302.182 135,279.5C 128.375,219.151 112.542,161.485 87.5,106.5 Z M 286.5,246.5 C 308.503,246.333 330.503,246.5 352.5,247C 399.323,250.15 433.156,272.65 454,314.5C 457.473,322.918 460.139,331.585 462,340.5C 463.119,371.483 464.119,402.483 465,433.5C 466.252,449.426 469.418,464.926 474.5,480C 456.536,480.382 445.036,471.882 440,454.5C 439.549,390.414 413.049,340.581 360.5,305C 327.807,285.924 292.473,277.258 254.5,279C 265.369,268.298 276.035,257.465 286.5,246.5 Z M 222.5,310.5 C 240.503,310.333 258.503,310.5 276.5,311C 334.911,315.768 375.744,344.935 399,398.5C 402.258,406.257 404.258,414.257 405,422.5C 328.624,388.033 248.457,370.2 164.5,369C 184.035,349.632 203.368,330.132 222.5,310.5 Z M 61.5,390.5 C 73.5046,390.333 85.5046,390.5 97.5,391C 87.6251,401.209 77.4585,411.043 67,420.5C 58.7513,417.195 50.5846,413.695 42.5,410C 49.036,403.631 55.3694,397.131 61.5,390.5 Z M 119.5,413.5 C 120.659,424.993 120.826,436.659 120,448.5C 114.032,455.469 107.699,462.136 101,468.5C 96.8466,460.023 93.5133,451.357 91,442.5C 100.702,432.965 110.202,423.298 119.5,413.5 Z"/></g>
</svg>
