<?xml version="1.0" encoding="UTF-8"?>
<!DOCTYPE svg PUBLIC "-//W3C//DTD SVG 1.1//EN" "http://www.w3.org/Graphics/SVG/1.1/DTD/svg11.dtd">
<svg xmlns="http://www.w3.org/2000/svg" version="1.1" width="512px" height="512px" style="shape-rendering:geometricPrecision; text-rendering:geometricPrecision; image-rendering:optimizeQuality; fill-rule:evenodd; clip-rule:evenodd" xmlns:xlink="http://www.w3.org/1999/xlink">
<g><path style="opacity:0.987" fill="#000000" d="M 158.5,-0.5 C 166.5,-0.5 174.5,-0.5 182.5,-0.5C 192.66,1.89449 201.994,6.22782 210.5,12.5C 219.006,6.22782 228.34,1.89449 238.5,-0.5C 246.5,-0.5 254.5,-0.5 262.5,-0.5C 276.88,3.02744 289.214,10.1941 299.5,21C 340.49,13.414 370.657,27.914 390,64.5C 398.404,87.7459 397.07,110.413 386,132.5C 385.5,142.494 385.334,152.494 385.5,162.5C 407.169,162.333 428.836,162.5 450.5,163C 468.667,167.833 480.167,179.333 485,197.5C 485.667,264.167 485.667,330.833 485,397.5C 480.167,415.667 468.667,427.167 450.5,432C 428.836,432.5 407.169,432.667 385.5,432.5C 384.847,475.145 363.847,501.479 322.5,511.5C 247.833,511.5 173.167,511.5 98.5,511.5C 64.9591,503.793 44.1258,483.126 36,449.5C 35.6667,343.833 35.3333,238.167 35,132.5C 17.165,95.3453 23.3317,62.8453 53.5,35C 74.0382,20.3586 96.7048,15.692 121.5,21C 131.786,10.1941 144.12,3.02744 158.5,-0.5 Z M 169.5,29.5 C 182.596,30.4267 192.929,36.2601 200.5,47C 207.167,51.6667 213.833,51.6667 220.5,47C 235.297,28.3227 252.63,25.3227 272.5,38C 276.05,41.8826 279.217,46.0493 282,50.5C 285.434,53.9668 289.601,55.9668 294.5,56.5C 300.162,54.6701 305.828,52.8367 311.5,51C 335.039,48.0171 351.872,57.1837 362,78.5C 368.766,100.535 362.932,118.368 344.5,132C 322.57,143.316 303.07,140.149 286,122.5C 282.625,116.915 279.125,111.415 275.5,106C 267.945,101.065 260.779,101.565 254,107.5C 239.407,137.475 216.907,145.642 186.5,132C 182.367,128.869 178.534,125.369 175,121.5C 172.21,116.083 169.043,110.916 165.5,106C 158.833,101.333 152.167,101.333 145.5,106C 141.875,111.415 138.375,116.915 135,122.5C 117.93,140.149 98.4302,143.316 76.5,132C 58.0675,118.368 52.2342,100.535 59,78.5C 69.1276,57.1837 85.9609,48.0171 109.5,51C 115.172,52.8367 120.838,54.6701 126.5,56.5C 131.399,55.9668 135.566,53.9668 139,50.5C 145.577,38.1394 155.744,31.1394 169.5,29.5 Z M 154.5,146.5 C 179.475,169.662 208.142,175.496 240.5,164C 250.078,159.918 258.411,154.085 265.5,146.5C 291.941,171.286 321.774,176.286 355,161.5C 355.5,174.829 355.667,188.163 355.5,201.5C 258.833,201.5 162.167,201.5 65.5,201.5C 65.3334,188.163 65.5001,174.829 66,161.5C 80.638,169.012 96.138,171.512 112.5,169C 129.298,166.439 143.298,158.939 154.5,146.5 Z M 385.5,192.5 C 403.836,192.333 422.17,192.5 440.5,193C 449.333,193.833 454.167,198.667 455,207.5C 455.667,267.5 455.667,327.5 455,387.5C 454.167,396.333 449.333,401.167 440.5,402C 422.17,402.5 403.836,402.667 385.5,402.5C 385.5,332.5 385.5,262.5 385.5,192.5 Z M 65.5,231.5 C 82.1667,231.5 98.8333,231.5 115.5,231.5C 115.5,314.833 115.5,398.167 115.5,481.5C 97.63,481.815 83.4634,474.815 73,460.5C 70.1635,455.828 68.1635,450.828 67,445.5C 65.5293,374.189 65.0293,302.856 65.5,231.5 Z M 145.5,231.5 C 162.167,231.5 178.833,231.5 195.5,231.5C 195.5,314.833 195.5,398.167 195.5,481.5C 178.833,481.5 162.167,481.5 145.5,481.5C 145.5,398.167 145.5,314.833 145.5,231.5 Z M 225.5,231.5 C 242.167,231.5 258.833,231.5 275.5,231.5C 275.5,314.833 275.5,398.167 275.5,481.5C 258.833,481.5 242.167,481.5 225.5,481.5C 225.5,398.167 225.5,314.833 225.5,231.5 Z M 305.5,231.5 C 322.167,231.5 338.833,231.5 355.5,231.5C 355.971,302.856 355.471,374.189 354,445.5C 349.772,462.062 339.605,473.229 323.5,479C 317.554,480.235 311.554,481.068 305.5,481.5C 305.5,398.167 305.5,314.833 305.5,231.5 Z"/></g>
</svg>
