<svg xmlns="http://www.w3.org/2000/svg" width="512" height="512" viewBox="0 0 512 512" version="1.1"><path d="" stroke="none" fill="#080404" fill-rule="evenodd"/><path d="M 153 2.283 C 143.274 5.254, 136.432 9.056, 127.857 16.256 L 120.914 22.086 115.274 21.043 C 112.171 20.469, 105.287 20, 99.976 20 C 69.620 20, 42.446 38.629, 31.055 67.248 C 26.754 78.054, 25.648 85.346, 26.274 98.780 C 26.859 111.314, 28.437 117.914, 33.105 127.353 L 36 133.205 36 290.443 C 36 442.783, 36.060 447.916, 37.940 455.265 C 44.756 481.915, 66.085 503.244, 92.735 510.060 C 100.017 511.923, 104.736 512, 211 512 C 335.830 512, 328.199 512.447, 344.676 504.163 C 369.101 491.882, 386 465.803, 386 440.390 L 386 433.100 419.250 432.800 L 452.500 432.500 460.065 428.887 C 470.043 424.122, 477.122 417.043, 481.887 407.065 L 485.500 399.500 485.500 298 L 485.500 196.500 481.887 188.935 C 477.122 178.957, 470.043 171.878, 460.065 167.113 L 452.500 163.500 419.250 163.200 L 386 162.900 386 148.054 L 386 133.208 389.506 125.825 C 394.038 116.282, 395.961 106.954, 395.983 94.410 C 396.041 60.365, 372.761 30.507, 339.532 22.008 C 330.736 19.758, 316.017 19.325, 306.726 21.043 L 301.086 22.086 294.075 16.199 C 285.290 8.823, 277.647 4.720, 267.513 1.940 C 260.832 0.107, 257.793 -0.158, 248.048 0.241 C 235.005 0.775, 227.311 3.055, 216.929 9.463 L 211 13.123 205.071 9.463 C 194.227 2.770, 187.091 0.741, 173 0.344 C 162.180 0.040, 159.492 0.300, 153 2.283 M 164.344 31.022 C 155.548 32.803, 147.275 38.701, 141.463 47.332 C 139.633 50.048, 136.868 53.107, 135.318 54.129 C 131.540 56.620, 124.403 56.528, 117.787 53.902 C 85.703 41.167, 52.255 67.491, 57.095 101.667 C 59.755 120.453, 75.686 136.261, 94.671 138.953 C 113.902 141.681, 131.279 132.391, 140.976 114.197 C 145.652 105.423, 152.160 101.889, 159.835 103.956 C 164.295 105.156, 167.563 108.469, 171.865 116.147 C 189.235 147.151, 232.788 147.118, 250.169 116.088 C 254.436 108.469, 257.714 105.154, 262.165 103.956 C 269.840 101.889, 276.348 105.423, 281.024 114.197 C 290.721 132.391, 308.098 141.681, 327.329 138.953 C 342.995 136.731, 357.418 125.139, 362.705 110.519 C 368.625 94.150, 364.589 75.980, 352.304 63.696 C 339.568 50.959, 321.102 47.198, 304.213 53.902 C 297.597 56.528, 290.460 56.620, 286.682 54.129 C 285.132 53.107, 282.367 50.048, 280.537 47.332 C 272.153 34.881, 259.140 28.729, 245.842 30.929 C 237.965 32.232, 232.578 35.255, 224.871 42.695 C 213.843 53.341, 207.473 53.395, 197.349 42.928 C 187.856 33.112, 175.690 28.723, 164.344 31.022 M 153.405 149.119 C 150.604 152.234, 140.309 159.353, 134 162.537 C 124.718 167.221, 117.235 169.096, 105.419 169.699 C 90.054 170.483, 82.392 169.005, 67.250 162.336 C 66.273 161.906, 66 166.181, 66 181.893 L 66 202 211 202 L 356 202 356 181.987 L 356 161.973 352.250 163.607 C 342.478 167.864, 336.273 169.228, 324.500 169.705 C 315.754 170.060, 310.476 169.762, 305.035 168.605 C 293.241 166.098, 279.387 158.861, 269.802 150.202 L 266.026 146.791 260.856 151.440 C 251.628 159.736, 237.485 166.740, 225.566 168.917 C 216.048 170.654, 201.339 170.261, 192.636 168.035 C 182.664 165.484, 168.880 158.320, 161.794 152.004 C 158.706 149.252, 155.984 147, 155.745 147 C 155.506 147, 154.453 147.953, 153.405 149.119 M 386 298 L 386 403.110 415.750 402.805 C 444.652 402.509, 445.589 402.437, 448.618 400.276 C 450.333 399.053, 452.583 396.803, 453.618 395.276 C 455.428 392.607, 455.500 388.874, 455.500 298 C 455.500 207.126, 455.428 203.393, 453.618 200.724 C 452.583 199.197, 450.333 196.947, 448.618 195.724 C 445.589 193.563, 444.652 193.491, 415.750 193.195 L 386 192.890 386 298 M 66.020 334.250 C 66.032 397.011, 66.426 439.171, 67.039 443.417 C 69.790 462.449, 85.551 478.210, 104.583 480.961 C 108.387 481.510, 112.513 481.969, 113.750 481.980 L 116 482 116 357 L 116 232 91 232 L 66 232 66.020 334.250 M 146 357 L 146 482 171 482 L 196 482 196 357 L 196 232 171 232 L 146 232 146 357 M 226 357 L 226 482 251 482 L 276 482 276 357 L 276 232 251 232 L 226 232 226 357 M 306 357 L 306 482 308.250 481.980 C 321.067 481.867, 333.882 476.796, 341.934 468.652 C 347.843 462.674, 350.459 458.640, 353.381 451 C 355.464 445.553, 355.486 444.479, 355.776 338.750 L 356.069 232 331.034 232 L 306 232 306 357" stroke="none" fill="#040404" fill-rule="evenodd"/></svg>