<svg xmlns="http://www.w3.org/2000/svg" width="512" height="512" viewBox="0 0 512 512" version="1.1"><path d="" stroke="none" fill="#080404" fill-rule="evenodd"/><path d="M 17 218.077 C 10.960 220.805, 5.273 226.419, 2.390 232.500 C 0.162 237.200, 0.020 238.608, 0.020 256 C 0.020 273.392, 0.162 274.800, 2.390 279.500 C 5.273 285.581, 10.960 291.195, 17 293.923 C 21.483 295.948, 22.383 295.956, 256 295.956 C 489.617 295.956, 490.517 295.948, 495 293.923 C 501.229 291.110, 506.669 285.579, 510.098 278.573 C 512.982 272.682, 513 272.532, 513 254.156 C 513 243.987, 512.702 235.965, 512.338 236.329 C 511.974 236.693, 510.824 235.081, 509.783 232.746 C 507.205 226.963, 501.512 221.241, 495.500 218.390 C 490.500 216.020, 490.500 216.020, 256 216.032 C 22.396 216.044, 21.483 216.052, 17 218.077 M 0.419 256 C 0.419 266.725, 0.566 271.113, 0.746 265.750 C 0.925 260.387, 0.925 251.613, 0.746 246.250 C 0.566 240.887, 0.419 245.275, 0.419 256" stroke="none" fill="#040404" fill-rule="evenodd"/></svg>