<?xml version="1.0" encoding="UTF-8"?>
<!DOCTYPE svg PUBLIC "-//W3C//DTD SVG 1.1//EN" "http://www.w3.org/Graphics/SVG/1.1/DTD/svg11.dtd">
<svg xmlns="http://www.w3.org/2000/svg" version="1.1" width="512px" height="512px" style="shape-rendering:geometricPrecision; text-rendering:geometricPrecision; image-rendering:optimizeQuality; fill-rule:evenodd; clip-rule:evenodd" xmlns:xlink="http://www.w3.org/1999/xlink">
<g><path style="opacity:0.967" fill="#000000" d="M 249.5,-0.5 C 253.5,-0.5 257.5,-0.5 261.5,-0.5C 333.183,40.7615 404.683,82.4281 476,124.5C 477.439,126.275 478.439,128.275 479,130.5C 479.667,213.833 479.667,297.167 479,380.5C 478.439,382.725 477.439,384.725 476,386.5C 404.683,428.572 333.183,470.239 261.5,511.5C 257.5,511.5 253.5,511.5 249.5,511.5C 177.817,470.239 106.317,428.572 35,386.5C 33.5611,384.725 32.5611,382.725 32,380.5C 31.3333,297.167 31.3333,213.833 32,130.5C 32.5611,128.275 33.5611,126.275 35,124.5C 106.317,82.4281 177.817,40.7615 249.5,-0.5 Z M 254.5,32.5 C 313.942,66.3904 373.275,100.557 432.5,135C 373.5,169.167 314.5,203.333 255.5,237.5C 196.5,203.333 137.5,169.167 78.5,135C 137.394,101.059 196.06,66.8924 254.5,32.5 Z M 62.5,162.5 C 121.608,196.224 180.608,230.224 239.5,264.5C 240.667,332.831 240.833,401.164 240,469.5C 181.085,435.626 122.252,401.626 63.5,367.5C 62.5,299.17 62.1667,230.837 62.5,162.5 Z M 447.5,162.5 C 448.832,230.668 448.832,299.001 447.5,367.5C 388.748,401.626 329.915,435.626 271,469.5C 270.167,401.164 270.333,332.831 271.5,264.5C 330.23,230.473 388.896,196.473 447.5,162.5 Z"/></g>
<g><path style="opacity:0.945" fill="#000000" d="M 243.5,119.5 C 251.507,119.334 259.507,119.5 267.5,120C 274.813,122.317 278.813,127.317 279.5,135C 278.813,142.683 274.813,147.683 267.5,150C 259.5,150.667 251.5,150.667 243.5,150C 234.084,146.337 230.584,139.504 233,129.5C 235.106,124.557 238.606,121.224 243.5,119.5 Z"/></g>
<g><path style="opacity:0.945" fill="#000000" d="M 398.5,228.5 C 408.125,226.416 414.958,229.749 419,238.5C 419.667,246.833 419.667,255.167 419,263.5C 415.337,272.916 408.504,276.416 398.5,274C 393.572,272.073 390.406,268.573 389,263.5C 388.333,255.5 388.333,247.5 389,239.5C 390.599,234.406 393.766,230.739 398.5,228.5 Z"/></g>
<g><path style="opacity:0.942" fill="#000000" d="M 118.5,250.5 C 128.64,249.981 134.806,254.647 137,264.5C 137.822,272.555 137.488,280.555 136,288.5C 130.268,297.773 122.435,299.939 112.5,295C 109.865,293.039 108.031,290.539 107,287.5C 106.333,278.5 106.333,269.5 107,260.5C 109.194,255.171 113.027,251.838 118.5,250.5 Z"/></g>
<g><path style="opacity:0.94" fill="#000000" d="M 355.5,296.5 C 365.698,294.836 372.198,298.836 375,308.5C 375.91,317.244 375.576,325.911 374,334.5C 368.452,343.349 360.952,345.515 351.5,341C 348.567,338.736 346.4,335.902 345,332.5C 344.333,324.167 344.333,315.833 345,307.5C 346.684,301.984 350.184,298.318 355.5,296.5 Z"/></g>
<g><path style="opacity:0.944" fill="#000000" d="M 177.5,341.5 C 188.278,340.957 194.444,345.957 196,356.5C 196.762,364.215 196.429,371.881 195,379.5C 188.21,389.435 179.71,391.101 169.5,384.5C 167.703,382.869 166.536,380.869 166,378.5C 165.333,369.5 165.333,360.5 166,351.5C 168.194,346.171 172.027,342.838 177.5,341.5 Z"/></g>
<g><path style="opacity:0.94" fill="#000000" d="M 312.5,364.5 C 322.427,363.606 328.594,367.94 331,377.5C 331.667,384.833 331.667,392.167 331,399.5C 326.19,411.151 318.024,414.317 306.5,409C 303.533,406.9 301.7,404.066 301,400.5C 300.333,392.167 300.333,383.833 301,375.5C 302.789,369.541 306.622,365.875 312.5,364.5 Z"/></g>
</svg>
