<?xml version="1.0" encoding="UTF-8"?>
<!DOCTYPE svg PUBLIC "-//W3C//DTD SVG 1.1//EN" "http://www.w3.org/Graphics/SVG/1.1/DTD/svg11.dtd">
<svg xmlns="http://www.w3.org/2000/svg" version="1.1" width="512px" height="512px" style="shape-rendering:geometricPrecision; text-rendering:geometricPrecision; image-rendering:optimizeQuality; fill-rule:evenodd; clip-rule:evenodd" xmlns:xlink="http://www.w3.org/1999/xlink">
<g><path style="opacity:0.969" fill="#000000" d="M 62.5,-0.5 C 68.5,-0.5 74.5,-0.5 80.5,-0.5C 85.6396,1.81949 88.8063,5.81949 90,11.5C 90.3333,22.5 90.6667,33.5 91,44.5C 93.3602,52.8578 98.8602,57.6912 107.5,59C 119.167,59.6667 130.833,59.6667 142.5,59C 166.379,25.3934 198.712,5.56008 239.5,-0.5C 250.167,-0.5 260.833,-0.5 271.5,-0.5C 312.288,5.56008 344.621,25.3934 368.5,59C 380.167,59.6667 391.833,59.6667 403.5,59C 412.14,57.6912 417.64,52.8578 420,44.5C 420.333,33.5 420.667,22.5 421,11.5C 422.194,5.81949 425.36,1.81949 430.5,-0.5C 436.5,-0.5 442.5,-0.5 448.5,-0.5C 482.5,7.5 503.5,28.5 511.5,62.5C 511.5,70.8333 511.5,79.1667 511.5,87.5C 503.209,123.288 480.876,144.121 444.5,150C 427.5,150.333 410.5,150.667 393.5,151C 398.267,165.035 404.767,178.201 413,190.5C 431.198,215.038 450.532,238.705 471,261.5C 519.71,322.701 520.71,384.701 474,447.5C 443.227,484.139 404.06,505.472 356.5,511.5C 289.167,511.5 221.833,511.5 154.5,511.5C 86.388,501.861 38.5546,465.528 11,402.5C -5.29065,352.013 3.37601,306.346 37,265.5C 58.0906,241.08 78.424,216.08 98,190.5C 106.233,178.201 112.733,165.035 117.5,151C 100.5,150.667 83.5,150.333 66.5,150C 30.1239,144.121 7.79056,123.288 -0.5,87.5C -0.5,79.1667 -0.5,70.8333 -0.5,62.5C 7.5,28.5 28.5,7.5 62.5,-0.5 Z M 235.5,31.5 C 237.167,31.5 238.833,31.5 240.5,31.5C 240.5,60.8333 240.5,90.1667 240.5,119.5C 210.826,119.833 181.159,119.5 151.5,118.5C 161.93,72.4049 189.93,43.4049 235.5,31.5 Z M 270.5,31.5 C 304.082,37.0342 329.582,54.3675 347,83.5C 353.054,94.4942 357.22,106.161 359.5,118.5C 329.841,119.5 300.174,119.833 270.5,119.5C 270.5,90.1667 270.5,60.8333 270.5,31.5 Z M 56.5,33.5 C 57.5,33.5 58.5,33.5 59.5,33.5C 58.2724,62.0914 71.2724,80.5914 98.5,89C 107.788,90.2756 117.121,90.7756 126.5,90.5C 123.709,99.999 121.709,109.666 120.5,119.5C 101.453,119.935 82.4534,119.435 63.5,118C 37.2628,108.032 26.7628,89.1983 32,61.5C 36.4836,48.8555 44.6503,39.5222 56.5,33.5 Z M 451.5,33.5 C 465.146,38.3137 474.313,47.647 479,61.5C 484.237,89.1983 473.737,108.032 447.5,118C 428.547,119.435 409.547,119.935 390.5,119.5C 389.291,109.666 387.291,99.999 384.5,90.5C 396.378,91.2134 408.045,90.0467 419.5,87C 442.391,76.584 453.057,58.7506 451.5,33.5 Z M 150.5,150.5 C 220.5,150.5 290.5,150.5 360.5,150.5C 360.667,191.168 360.5,231.835 360,272.5C 358.581,285.172 353.081,295.672 343.5,304C 341.933,305.076 340.266,305.909 338.5,306.5C 324.624,302.227 310.958,297.394 297.5,292C 302.531,279.96 302.698,267.793 298,255.5C 293.791,240.894 285.957,228.727 274.5,219C 258.31,210.187 243.477,212.02 230,224.5C 217.954,238.938 211.121,255.605 209.5,274.5C 209.959,280.568 211.293,286.401 213.5,292C 200.608,296.945 187.608,301.612 174.5,306C 171.788,306.738 169.455,306.071 167.5,304C 158.21,295.922 152.71,285.755 151,273.5C 150.5,232.501 150.333,191.501 150.5,150.5 Z M 118.5,214.5 C 119.077,237.028 119.911,259.695 121,282.5C 123.117,294.73 127.95,305.73 135.5,315.5C 125.991,317.818 116.325,319.152 106.5,319.5C 100.15,318.772 93.8163,318.272 87.5,318C 75.336,322.514 72.1693,330.681 78,342.5C 118.166,385.662 166.999,400.162 224.5,386C 235.649,382.757 245.982,377.924 255.5,371.5C 276.929,385.069 300.429,391.736 326,391.5C 368.964,390.848 404.63,374.515 433,342.5C 438.831,330.681 435.664,322.514 423.5,318C 417.184,318.272 410.85,318.772 404.5,319.5C 394.675,319.152 385.009,317.818 375.5,315.5C 383.05,305.73 387.883,294.73 390,282.5C 391.256,259.865 391.923,237.199 392,214.5C 412.621,240.789 433.621,266.789 455,292.5C 482.396,330.863 484.396,370.53 461,411.5C 436.129,450.538 400.629,473.371 354.5,480C 321.516,481.107 288.516,481.607 255.5,481.5C 222.484,481.607 189.484,481.107 156.5,480C 98.3781,471.051 58.8781,439.218 38,384.5C 29.9683,355.085 33.9683,327.419 50,301.5C 66.8619,278.299 84.8619,255.966 104,234.5C 109.087,227.981 113.921,221.314 118.5,214.5 Z M 254.5,244.5 C 258.099,246.263 260.932,248.93 263,252.5C 266.596,259.456 269.096,266.789 270.5,274.5C 267.566,287.631 259.899,291.798 247.5,287C 243.649,283.657 241.316,279.491 240.5,274.5C 241.962,262.915 246.628,252.915 254.5,244.5 Z M 221.5,321.5 C 235.014,321.511 240.847,328.178 239,341.5C 237.939,344.562 236.106,347.062 233.5,349C 200.327,364.595 167.327,364.261 134.5,348C 164.745,342.86 193.745,334.026 221.5,321.5 Z M 282.5,321.5 C 284.857,321.337 287.19,321.503 289.5,322C 317.463,334.098 346.463,342.765 376.5,348C 343.673,364.261 310.673,364.595 277.5,349C 270.989,342.749 269.823,335.582 274,327.5C 276.671,325.098 279.505,323.098 282.5,321.5 Z"/></g>
<g><path style="opacity:0.923" fill="#000000" d="M 192.5,169.5 C 208.354,171.209 213.521,179.542 208,194.5C 198.965,202.791 190.299,202.457 182,193.5C 177.085,181.728 180.585,173.728 192.5,169.5 Z"/></g>
<g><path style="opacity:0.925" fill="#000000" d="M 313.5,169.5 C 323.248,169.289 329.082,173.956 331,183.5C 331.605,191.57 328.105,197.07 320.5,200C 304.172,200.998 298.005,193.498 302,177.5C 304.961,173.34 308.795,170.673 313.5,169.5 Z"/></g>
</svg>
