<svg xmlns="http://www.w3.org/2000/svg" width="512" height="512" viewBox="0 0 512 512" version="1.1"><path d="" stroke="none" fill="#080404" fill-rule="evenodd"/><path d="M 62 0.641 C 56.332 1.683, 46.089 5.387, 39.884 8.639 C 22.346 17.831, 9.581 33.288, 2.836 53.500 C 0.794 59.620, 0.504 62.386, 0.535 75.500 C 0.567 89.078, 0.826 91.259, 3.260 98.500 C 7.266 110.419, 12.378 118.409, 22.520 128.601 C 30.174 136.294, 33.039 138.420, 41.038 142.345 C 56.429 149.898, 58.694 150.284, 90.291 150.753 L 118.082 151.166 117.425 153.333 C 110.881 174.914, 97.670 194.855, 61.993 237 C 25.569 280.028, 14.081 298.459, 7.488 324.449 C -2.120 362.326, 5.729 401.395, 30.100 437 C 55.347 473.884, 93.603 499.015, 140 509.196 L 150.500 511.500 256 511.500 L 361.500 511.500 372 509.196 C 424.960 497.575, 466.770 466.794, 491.796 421 C 511.175 385.540, 513.669 342.056, 498.379 306.230 C 490.311 287.326, 479.448 271.778, 450.007 237 C 414.526 195.086, 401.083 174.796, 394.575 153.333 L 393.918 151.166 421.709 150.753 C 453.214 150.286, 455.598 149.883, 470.672 142.489 C 481.542 137.158, 493.356 126.698, 499.963 116.557 C 504.612 109.421, 509.565 97.571, 510.598 91.114 C 510.963 88.827, 511.654 86.714, 512.131 86.419 C 512.609 86.124, 513 80.707, 513 74.382 C 513 68.057, 512.635 63.108, 512.188 63.384 C 511.742 63.660, 510.815 61.099, 510.129 57.693 C 508.478 49.498, 501.330 34.957, 495.300 27.524 C 486.301 16.432, 473.360 7.761, 458.500 2.866 C 452.991 1.051, 449.223 0.554, 440.810 0.530 L 430.120 0.500 426.550 3.956 C 424.587 5.856, 422.537 9.006, 421.996 10.956 C 421.454 12.905, 421.009 21.380, 421.006 29.790 C 420.999 46.799, 420.054 50.252, 414.013 55.336 C 409.347 59.262, 405.030 59.988, 386.333 59.994 L 369.166 60 362.622 51.619 C 343.065 26.574, 314.995 9.243, 282.692 2.269 C 271.144 -0.225, 240.856 -0.225, 229.308 2.269 C 211.237 6.170, 195.588 12.740, 180.609 22.711 C 169.866 29.863, 153.944 44.856, 147.116 54.250 L 142.937 60 125.718 59.994 C 106.970 59.988, 102.655 59.263, 97.987 55.336 C 91.946 50.252, 91.001 46.799, 90.994 29.790 C 90.991 21.380, 90.546 12.905, 90.004 10.956 C 89.463 9.006, 87.416 5.856, 85.455 3.956 C 81.983 0.589, 81.668 0.496, 73.196 0.341 C 68.413 0.253, 63.375 0.388, 62 0.641 M 227.118 34.584 C 198.629 43.005, 175.516 62.114, 162.509 88 C 158.305 96.368, 153.902 108.898, 152.582 116.250 L 151.909 120 196.455 120 L 241 120 241 76 L 241 32 238.250 32.053 C 236.738 32.082, 231.728 33.221, 227.118 34.584 M 271 76 L 271 120 315.545 120 L 360.091 120 359.418 116.250 C 357.109 103.388, 348.832 84.392, 340.790 73.500 C 330.994 60.233, 315.438 47.401, 300.799 40.514 C 293.052 36.869, 277.377 32, 273.388 32 L 271 32 271 76 M 55.122 35.277 C 47.857 38.705, 39.458 47.294, 35.457 55.390 C 22.699 81.204, 36.442 111.132, 64.500 118.639 C 68.053 119.589, 76.928 119.980, 95.160 119.988 L 120.819 120 122.028 112.831 C 122.693 108.889, 124.084 102.703, 125.119 99.085 C 126.153 95.467, 127 92.232, 127 91.897 C 127 91.562, 121.263 91.032, 114.250 90.719 C 95.281 89.874, 85.563 86.209, 75.169 75.977 C 65.789 66.744, 61.112 56.282, 60.139 42.356 L 59.500 33.212 55.122 35.277 M 452 39.731 C 452 62.046, 437.237 82.037, 416 88.482 C 412.804 89.452, 405.159 90.389, 397.750 90.719 C 390.738 91.032, 385 91.562, 385 91.897 C 385 92.232, 385.847 95.467, 386.881 99.085 C 387.916 102.703, 389.307 108.889, 389.972 112.831 L 391.181 120 416.840 119.988 C 435.072 119.980, 443.947 119.589, 447.500 118.639 C 475.014 111.278, 489.017 81.866, 477.117 56.435 C 473.304 48.288, 465.676 40.172, 457.973 36.066 L 452 32.883 452 39.731 M 0.382 75.500 C 0.384 82.100, 0.546 84.670, 0.741 81.211 C 0.937 77.752, 0.936 72.352, 0.738 69.211 C 0.540 66.070, 0.380 68.900, 0.382 75.500 M 151 212.290 C 151 279.649, 150.995 279.582, 157.150 291.129 C 158.848 294.315, 162.837 299.401, 166.014 302.432 L 171.792 307.943 180.146 305.105 C 186.387 302.985, 212.142 293.332, 213.706 292.528 C 213.819 292.470, 213.234 290.455, 212.406 288.052 C 210.675 283.028, 210.408 269.583, 211.908 262.954 C 216.834 241.180, 230.701 221.261, 244.558 216.055 C 252.377 213.118, 262.274 213.472, 269.500 216.948 C 282.636 223.268, 295.485 242.591, 300.092 262.954 C 301.592 269.583, 301.325 283.028, 299.594 288.052 C 298.766 290.455, 298.181 292.470, 298.294 292.528 C 299.858 293.332, 325.613 302.985, 331.854 305.105 L 340.208 307.943 346.143 302.282 C 352.855 295.880, 358.383 285.840, 360.001 277.114 C 360.596 273.907, 361 247.295, 361 211.364 L 361 151 256 151 L 151 151 151 212.290 M 191.914 170.956 C 187.296 172.355, 184.141 175.078, 181.992 179.517 C 179.607 184.443, 179.931 188.712, 183.080 193.891 C 191.242 207.313, 212.489 199.899, 210.724 184.244 C 210.085 178.573, 207.551 175.097, 201.980 172.250 C 197.315 169.866, 196.046 169.703, 191.914 170.956 M 310.008 172.206 C 301.549 176.526, 298.663 185.117, 303.068 192.864 C 305.827 197.717, 309.361 200.174, 314.399 200.741 C 323.488 201.766, 331.440 194.838, 331.307 186.010 C 331.184 177.864, 326.139 172, 318 170.540 C 315.411 170.076, 313.331 170.510, 310.008 172.206 M 113.728 222.323 C 110.553 226.543, 97.348 242.709, 84.382 258.248 C 45.624 304.698, 38.176 317.975, 34.856 346.538 C 32.833 363.940, 36.114 382.900, 44.097 399.944 C 57.408 428.363, 83.926 454.859, 112.061 467.852 C 123.456 473.114, 137.330 477.431, 150 479.656 C 159.713 481.362, 167.654 481.500, 256 481.500 C 344.346 481.500, 352.287 481.362, 362 479.656 C 392.580 474.285, 417.937 461.177, 439.566 439.560 C 467.507 411.634, 480.980 378.033, 477.093 345.966 C 473.674 317.749, 466.113 304.335, 427.723 258.370 C 414.801 242.898, 401.589 226.732, 398.364 222.445 L 392.500 214.650 391.908 247.575 C 391.388 276.534, 391.069 281.403, 389.260 288 C 386.700 297.334, 383.312 304.971, 378.761 311.664 L 375.250 316.829 383.875 318.081 C 392.630 319.352, 408.435 319.741, 419.700 318.963 C 424.837 318.608, 426.379 318.890, 428.700 320.609 C 435.598 325.720, 437.787 333.433, 434.377 340.617 C 432.141 345.331, 415.847 360.519, 405.803 367.252 C 389.435 378.224, 370.604 386.003, 351.500 389.683 C 339.090 392.073, 313.728 392.058, 301.626 389.653 C 285.412 386.430, 268.105 380.093, 259.750 374.319 L 256 371.728 252.250 374.319 C 243.884 380.101, 226.547 386.445, 210.374 389.644 C 197.840 392.124, 173.795 392.116, 160.500 389.629 C 141.239 386.026, 122.977 378.500, 106.197 367.252 C 96.153 360.519, 79.859 345.331, 77.623 340.617 C 74.213 333.433, 76.402 325.720, 83.300 320.609 C 85.621 318.890, 87.163 318.608, 92.300 318.963 C 103.565 319.741, 119.370 319.352, 128.125 318.081 L 136.750 316.829 133.239 311.664 C 128.698 304.986, 125.308 297.353, 122.728 288 C 120.901 281.377, 120.591 276.649, 120.080 247.575 L 119.500 214.650 113.728 222.323 M 252.313 247.750 C 248.594 251.695, 243.131 263.641, 241.819 270.695 C 240.795 276.206, 240.891 277.142, 242.908 281.310 C 245.239 286.125, 251.077 290, 256 290 C 260.923 290, 266.761 286.125, 269.092 281.310 C 271.109 277.142, 271.205 276.206, 270.181 270.695 C 268.280 260.474, 259.740 245, 256 245 C 255.397 245, 253.738 246.238, 252.313 247.750 M 215 325.059 C 204.530 329.234, 178.076 338.314, 168.500 341.020 C 164.100 342.263, 154.518 344.491, 147.206 345.971 L 133.913 348.663 140.206 351.318 C 150.959 355.854, 157.542 357.800, 168.122 359.569 C 198.600 364.665, 239.402 353.702, 240.151 340.215 C 240.616 331.831, 237.568 325.971, 231.400 323.394 C 226.576 321.378, 223.431 321.698, 215 325.059 M 280.500 323.412 C 271.173 327.557, 268.625 339.824, 275.582 347.086 C 281.794 353.570, 302.793 359.781, 321.583 360.691 C 339.548 361.562, 353.848 358.889, 371.843 351.297 L 378.185 348.621 366.719 346.398 C 347.726 342.716, 329.447 337.239, 303.222 327.372 C 288.229 321.732, 285.393 321.237, 280.500 323.412" stroke="none" fill="#040404" fill-rule="evenodd"/></svg>