<?xml version="1.0" encoding="UTF-8"?>
<!DOCTYPE svg PUBLIC "-//W3C//DTD SVG 1.1//EN" "http://www.w3.org/Graphics/SVG/1.1/DTD/svg11.dtd">
<svg xmlns="http://www.w3.org/2000/svg" version="1.1" width="512px" height="512px" style="shape-rendering:geometricPrecision; text-rendering:geometricPrecision; image-rendering:optimizeQuality; fill-rule:evenodd; clip-rule:evenodd" xmlns:xlink="http://www.w3.org/1999/xlink">
<g><path style="opacity:0.968" fill="#000000" d="M 209.5,-0.5 C 232.167,-0.5 254.833,-0.5 277.5,-0.5C 282.394,1.22399 285.894,4.55732 288,9.5C 288.167,23.1788 288.667,36.8455 289.5,50.5C 324.766,40.2098 356.099,23.2098 383.5,-0.5C 387.5,-0.5 391.5,-0.5 395.5,-0.5C 400.303,2.70547 404.47,6.70547 408,11.5C 453.02,71.2952 463.02,136.629 438,207.5C 429.28,229.957 416.78,249.957 400.5,267.5C 395.809,271.211 390.476,272.378 384.5,271C 368.646,258.822 351.98,247.822 334.5,238C 320.001,230.889 305.001,225.056 289.5,220.5C 288.667,314.498 288.167,408.498 288,502.5C 286.312,506.685 283.479,509.685 279.5,511.5C 255.5,511.5 231.5,511.5 207.5,511.5C 202.36,509.181 199.194,505.181 198,499.5C 197.5,404.167 197.333,308.834 197.5,213.5C 165.537,217.432 135.537,227.266 107.5,243C 99.7414,245.602 93.2414,243.769 88,237.5C 54.172,178.05 50.5053,116.717 77,53.5C 80.7007,45.1507 85.2007,37.3173 90.5,30C 94.7889,27.1234 99.4555,26.1234 104.5,27C 133.564,43.0768 164.564,53.2435 197.5,57.5C 197.333,42.4963 197.5,27.4963 198,12.5C 199.58,6.09108 203.414,1.75774 209.5,-0.5 Z M 228.5,30.5 C 238.167,30.5 247.833,30.5 257.5,30.5C 257.666,39.1731 257.5,47.8397 257,56.5C 247.895,57.831 238.728,58.831 229.5,59.5C 228.502,49.8563 228.168,40.1896 228.5,30.5 Z M 386.5,36.5 C 402.851,56.9945 413.351,80.3278 418,106.5C 425.546,153.644 415.213,196.31 387,234.5C 379.429,228.631 371.596,223.131 363.5,218C 392.175,177.949 398.675,134.449 383,87.5C 378.035,74.8971 371.535,63.2304 363.5,52.5C 371.408,47.3908 379.074,42.0574 386.5,36.5 Z M 106.5,63.5 C 115.391,67.1114 124.391,70.4448 133.5,73.5C 114.901,114.159 114.901,154.825 133.5,195.5C 132.91,196.799 131.91,197.632 130.5,198C 122.605,200.614 114.938,203.781 107.5,207.5C 85.202,159.689 84.8687,111.689 106.5,63.5 Z M 332.5,67.5 C 334.903,67.393 336.736,68.393 338,70.5C 368.239,114.42 367.906,158.086 337,201.5C 336.261,202.574 335.261,203.241 334,203.5C 319.39,196.797 304.223,191.797 288.5,188.5C 288.167,153.16 288.5,117.827 289.5,82.5C 304.425,78.86 318.758,73.86 332.5,67.5 Z M 164.5,83.5 C 175.415,85.708 186.415,87.3747 197.5,88.5C 197.5,119.833 197.5,151.167 197.5,182.5C 186.859,183.246 176.359,184.912 166,187.5C 162.011,182.87 159.011,177.536 157,171.5C 146.627,141.032 149.127,111.699 164.5,83.5 Z M 249.5,88.5 C 252.167,88.5 254.833,88.5 257.5,88.5C 257.5,119.833 257.5,151.167 257.5,182.5C 247.845,181.691 238.179,181.025 228.5,180.5C 228.5,150.167 228.5,119.833 228.5,89.5C 235.687,89.8245 242.687,89.4912 249.5,88.5 Z M 228.5,211.5 C 238.167,212.167 247.833,212.833 257.5,213.5C 257.5,302.833 257.5,392.167 257.5,481.5C 247.833,481.5 238.167,481.5 228.5,481.5C 228.5,391.5 228.5,301.5 228.5,211.5 Z"/></g>
</svg>
