<?xml version="1.0" encoding="UTF-8"?>
<!DOCTYPE svg PUBLIC "-//W3C//DTD SVG 1.1//EN" "http://www.w3.org/Graphics/SVG/1.1/DTD/svg11.dtd">
<svg xmlns="http://www.w3.org/2000/svg" version="1.1" width="512px" height="512px" style="shape-rendering:geometricPrecision; text-rendering:geometricPrecision; image-rendering:optimizeQuality; fill-rule:evenodd; clip-rule:evenodd" xmlns:xlink="http://www.w3.org/1999/xlink">
<g><path style="opacity:0.973" fill="#000000" d="M 201.5,-0.5 C 237.5,-0.5 273.5,-0.5 309.5,-0.5C 377.112,10.2263 422.279,47.893 445,112.5C 447.899,122.66 449.899,132.993 451,143.5C 451.333,228.5 451.667,313.5 452,398.5C 485.396,416.982 505.23,444.982 511.5,482.5C 511.5,488.833 511.5,495.167 511.5,501.5C 509.142,505.858 505.808,509.192 501.5,511.5C 337.5,511.5 173.5,511.5 9.5,511.5C 5.19179,509.192 1.85846,505.858 -0.5,501.5C -0.5,495.167 -0.5,488.833 -0.5,482.5C 5.77022,444.982 25.6036,416.982 59,398.5C 59.3333,313.5 59.6667,228.5 60,143.5C 69.8297,73.3436 108.33,27.1769 175.5,5C 184.237,2.82092 192.903,0.98759 201.5,-0.5 Z M 217.5,29.5 C 242.836,29.3334 268.169,29.5 293.5,30C 318.222,30.5111 340.888,37.5111 361.5,51C 290.835,62.3333 220.168,62.3333 149.5,51C 170.305,37.6377 192.972,30.471 217.5,29.5 Z M 119.5,76.5 C 156.037,84.3935 193.037,88.8935 230.5,90C 222.988,103.856 216.155,118.023 210,132.5C 210.095,138.957 211.928,144.957 215.5,150.5C 170.485,146.882 139.485,165.882 122.5,207.5C 112.167,200.833 101.833,194.167 91.5,187.5C 85.3655,146.369 94.6989,109.369 119.5,76.5 Z M 390.5,76.5 C 416.216,109.018 425.882,146.018 419.5,187.5C 409.167,194.167 398.833,200.833 388.5,207.5C 371.515,165.882 340.515,146.882 295.5,150.5C 299.398,145.061 301.231,139.061 301,132.5C 294.845,118.023 288.012,103.856 280.5,90C 317.754,89.0929 354.421,84.5929 390.5,76.5 Z M 254.5,110.5 C 255.376,110.369 256.043,110.702 256.5,111.5C 260.372,119.411 264.372,127.245 268.5,135C 264.294,143.246 259.961,151.413 255.5,159.5C 251.039,151.413 246.706,143.246 242.5,135C 246.911,127.011 250.911,118.844 254.5,110.5 Z M 193.5,181.5 C 207.519,180.337 220.186,183.837 231.5,192C 237.199,197.365 242.533,203.031 247.5,209C 252.833,211 258.167,211 263.5,209C 270.631,199.532 279.297,191.866 289.5,186C 315.631,176.601 336.798,183.101 353,205.5C 356.726,211.677 359.059,218.344 360,225.5C 360.667,265.833 360.667,306.167 360,346.5C 356.819,389.757 340.319,426.924 310.5,458C 286.76,480.082 259.426,486.082 228.5,476C 206.216,465.716 189.049,449.883 177,428.5C 161.909,403.226 153.242,375.892 151,346.5C 150.333,306.167 150.333,265.833 151,225.5C 155.565,201.436 169.732,186.77 193.5,181.5 Z M 90.5,224.5 C 99.8051,230.489 109.138,236.489 118.5,242.5C 119.5,264.823 119.833,287.157 119.5,309.5C 106.338,308.335 97.1714,301.668 92,289.5C 90.533,267.9 90.033,246.233 90.5,224.5 Z M 419.5,224.5 C 420.663,244.996 420.829,265.663 420,286.5C 415.688,300.649 406.188,308.316 391.5,309.5C 391.167,287.157 391.5,264.823 392.5,242.5C 401.737,236.725 410.737,230.725 419.5,224.5 Z M 90.5,333.5 C 99.6562,337.872 109.323,340.206 119.5,340.5C 119.875,351.63 121.208,362.63 123.5,373.5C 112.482,376.84 101.482,380.173 90.5,383.5C 90.5,366.833 90.5,350.167 90.5,333.5 Z M 418.5,333.5 C 420.485,349.8 421.152,366.466 420.5,383.5C 409.518,380.173 398.518,376.84 387.5,373.5C 389.792,362.63 391.125,351.63 391.5,340.5C 401.213,340.489 410.213,338.156 418.5,333.5 Z M 127.5,404.5 C 128.978,404.238 130.311,404.571 131.5,405.5C 141.844,434.375 157.844,459.542 179.5,481C 130.163,481.833 80.83,481.667 31.5,480.5C 37.771,456.393 51.771,438.227 73.5,426C 90.8216,416.829 108.822,409.662 127.5,404.5 Z M 379.5,404.5 C 404.851,409.679 428.185,419.513 449.5,434C 465.351,445.692 475.351,461.192 479.5,480.5C 430.17,481.667 380.837,481.833 331.5,481C 353.439,459.303 369.439,433.803 379.5,404.5 Z"/></g>
<g><path style="opacity:0.921" fill="#000000" d="M 196.5,245.5 C 211.631,246.128 217.465,253.795 214,268.5C 206.927,277.472 198.594,278.806 189,272.5C 181.116,260.487 183.616,251.487 196.5,245.5 Z"/></g>
<g><path style="opacity:0.921" fill="#000000" d="M 307.5,245.5 C 322.631,246.128 328.465,253.795 325,268.5C 317.927,277.472 309.594,278.806 300,272.5C 292.116,260.487 294.616,251.487 307.5,245.5 Z"/></g>
<g><path style="opacity:0.95" fill="#000000" d="M 236.5,303.5 C 244.233,303.533 250.566,306.533 255.5,312.5C 262.755,303.461 271.421,301.627 281.5,307C 287.126,313.541 287.96,320.708 284,328.5C 277.5,335 271,341.5 264.5,348C 259.643,350.707 254.643,351.04 249.5,349C 240,342.167 231.833,334 225,324.5C 222.626,313.903 226.46,306.903 236.5,303.5 Z"/></g>
<g><path style="opacity:0.956" fill="#000000" d="M 207.5,372.5 C 211.273,372.263 214.94,372.763 218.5,374C 243.167,396 267.833,396 292.5,374C 305.322,370.243 312.989,374.91 315.5,388C 314.469,394.72 311.136,400.054 305.5,404C 277,424.594 247,426.927 215.5,411C 209.541,407.098 204.041,402.598 199,397.5C 193.213,386.207 196.046,377.873 207.5,372.5 Z"/></g>
</svg>
