<?xml version="1.0" encoding="UTF-8"?>
<!DOCTYPE svg PUBLIC "-//W3C//DTD SVG 1.1//EN" "http://www.w3.org/Graphics/SVG/1.1/DTD/svg11.dtd">
<svg xmlns="http://www.w3.org/2000/svg" version="1.1" width="512px" height="512px" style="shape-rendering:geometricPrecision; text-rendering:geometricPrecision; image-rendering:optimizeQuality; fill-rule:evenodd; clip-rule:evenodd" xmlns:xlink="http://www.w3.org/1999/xlink">
<g><path style="opacity:0.971" fill="#000000" d="M 198.5,-0.5 C 202.167,-0.5 205.833,-0.5 209.5,-0.5C 212.703,1.18562 215.536,3.51895 218,6.5C 240.165,51.854 268.499,92.854 303,129.5C 318.824,149.125 324.824,171.458 321,196.5C 318.335,206.495 315.669,216.495 313,226.5C 312.006,231.118 311.506,235.785 311.5,240.5C 347.833,240.5 384.167,240.5 420.5,240.5C 420.064,228.757 420.564,217.09 422,205.5C 426.151,197.66 432.651,194.827 441.5,197C 462.833,212.333 484.167,227.667 505.5,243C 508.121,245.114 510.121,247.614 511.5,250.5C 511.5,254.167 511.5,257.833 511.5,261.5C 510.121,264.386 508.121,266.886 505.5,269C 484.167,283 462.833,297 441.5,311C 430.991,313.5 424.158,309.666 421,299.5C 420.5,289.839 420.334,280.172 420.5,270.5C 384.167,270.5 347.833,270.5 311.5,270.5C 312.589,283.86 315.423,296.86 320,309.5C 325.647,336.242 319.98,360.242 303,381.5C 268.499,418.146 240.165,459.146 218,504.5C 215.536,507.481 212.703,509.814 209.5,511.5C 205.833,511.5 202.167,511.5 198.5,511.5C 192.924,509.047 189.758,504.714 189,498.5C 188.5,422.501 188.333,346.501 188.5,270.5C 160.492,270.167 132.492,270.5 104.5,271.5C 98.824,285.018 92.4906,298.184 85.5,311C 83.7254,312.439 81.7254,313.439 79.5,314C 56.1667,314.667 32.8333,314.667 9.5,314C 4.9552,311.952 1.62186,308.785 -0.5,304.5C -0.5,300.833 -0.5,297.167 -0.5,293.5C 5.45209,280.924 11.4521,268.258 17.5,255.5C 11.4521,242.742 5.45209,230.076 -0.5,217.5C -0.5,213.833 -0.5,210.167 -0.5,206.5C 1.62186,202.215 4.9552,199.048 9.5,197C 32.8333,196.333 56.1667,196.333 79.5,197C 83.1861,198.089 86.0194,200.255 88,203.5C 93.7738,215.381 99.2738,227.381 104.5,239.5C 132.492,240.5 160.492,240.833 188.5,240.5C 188.333,164.499 188.5,88.4993 189,12.5C 189.758,6.28619 192.924,1.95285 198.5,-0.5 Z M 219.5,73.5 C 237.658,102.091 258.491,128.757 282,153.5C 287.559,162.178 290.726,171.678 291.5,182C 289.495,194.019 286.661,205.852 283,217.5C 281.722,224.836 280.555,232.17 279.5,239.5C 259.511,240.5 239.511,240.833 219.5,240.5C 219.5,184.833 219.5,129.167 219.5,73.5 Z M 39.5,227.5 C 47.84,227.334 56.1733,227.5 64.5,228C 68.9617,237.091 73.2951,246.257 77.5,255.5C 73.2951,264.743 68.9617,273.909 64.5,283C 56.1467,283.832 47.8134,283.665 39.5,282.5C 42.6667,275.5 45.8333,268.5 49,261.5C 49.6667,257.5 49.6667,253.5 49,249.5C 45.5458,242.262 42.3791,234.928 39.5,227.5 Z M 451.5,242.5 C 457.457,246.457 463.123,250.79 468.5,255.5C 463.089,259.622 457.589,263.622 452,267.5C 451.5,259.173 451.334,250.84 451.5,242.5 Z M 219.5,270.5 C 239.511,270.167 259.511,270.5 279.5,271.5C 280.555,278.83 281.722,286.164 283,293.5C 286.661,305.148 289.495,316.981 291.5,329C 290.723,339.331 287.556,348.831 282,357.5C 258.431,381.998 237.765,408.664 220,437.5C 219.5,381.834 219.333,326.168 219.5,270.5 Z"/></g>
</svg>
