<svg xmlns="http://www.w3.org/2000/svg" width="512" height="512" viewBox="0 0 512 512" version="1.1"><path d="" stroke="none" fill="#080404" fill-rule="evenodd"/><path d="M 232 1.513 C 226.775 2.232, 219.555 3.508, 215.956 4.348 C 212.357 5.188, 204.932 7.304, 199.456 9.050 C 193.980 10.796, 184.831 14.419, 179.124 17.102 C 173.418 19.784, 165.768 23.849, 162.124 26.135 C 158.481 28.420, 151.900 33.089, 147.500 36.510 C 143.100 39.931, 134.958 47.449, 129.406 53.217 C 123.752 59.091, 116.134 68.457, 112.088 74.507 C 108.115 80.448, 102.927 89.177, 100.558 93.904 C 98.190 98.632, 94.656 106.775, 92.705 112 C 90.754 117.225, 88.038 126, 86.669 131.500 C 85.300 137, 83.577 144.875, 82.840 149 C 82.007 153.660, 81.500 164.264, 81.500 177 C 81.500 189.558, 82.013 200.406, 82.823 205 C 83.551 209.125, 85.451 217.495, 87.046 223.599 C 88.641 229.704, 91.715 239.028, 93.876 244.320 C 96.037 249.611, 99.865 257.719, 102.382 262.337 C 104.900 266.955, 109.504 274.280, 112.615 278.616 C 115.726 282.952, 120.797 289.387, 123.885 292.916 C 126.973 296.445, 133.325 302.687, 138 306.788 C 142.675 310.888, 151.167 317.329, 156.871 321.100 C 162.575 324.871, 171.800 330.169, 177.371 332.873 C 182.942 335.578, 192.113 339.491, 197.750 341.570 C 208 345.350, 208 345.350, 208 357.115 C 208 368.879, 208 368.879, 189.169 369.189 C 170.407 369.499, 170.324 369.510, 166.758 372.233 C 164.670 373.827, 162.496 376.754, 161.540 379.256 C 160.112 382.995, 159.940 388.061, 160.201 418.702 C 160.489 452.561, 160.577 453.961, 162.592 456.678 C 163.743 458.230, 166.172 460.512, 167.990 461.750 C 171.120 463.881, 172.265 464, 189.568 464 C 207.841 464, 207.841 464, 208.171 482.250 C 208.464 498.503, 208.725 500.883, 210.554 503.997 C 211.684 505.920, 214.113 508.507, 215.952 509.747 C 219.270 511.983, 219.576 512, 256 512 C 292.424 512, 292.730 511.983, 296.048 509.747 C 297.887 508.507, 300.316 505.920, 301.446 503.997 C 303.275 500.883, 303.536 498.503, 303.829 482.250 C 304.159 464, 304.159 464, 322.432 464 C 339.735 464, 340.880 463.881, 344.010 461.750 C 345.828 460.512, 348.257 458.230, 349.408 456.678 C 351.423 453.961, 351.511 452.561, 351.799 418.702 C 352.060 388.061, 351.888 382.995, 350.460 379.256 C 349.504 376.754, 347.330 373.827, 345.242 372.233 C 341.676 369.510, 341.593 369.499, 322.831 369.189 C 304 368.879, 304 368.879, 304 357.115 C 304 345.350, 304 345.350, 314.250 341.590 C 319.887 339.522, 329 335.633, 334.500 332.948 C 340 330.263, 348.550 325.437, 353.500 322.224 C 358.450 319.010, 366.629 312.913, 371.675 308.674 C 376.722 304.434, 383.755 297.711, 387.305 293.733 C 390.855 289.755, 396.298 282.952, 399.400 278.616 C 402.503 274.280, 407.100 266.955, 409.618 262.337 C 412.135 257.719, 415.963 249.611, 418.124 244.320 C 420.285 239.028, 423.359 229.704, 424.954 223.599 C 426.549 217.495, 428.449 209.125, 429.177 205 C 430.020 200.221, 430.474 189.701, 430.429 176 C 430.366 156.590, 430.094 153.236, 427.630 141.500 C 426.129 134.350, 423.326 123.775, 421.401 118 C 419.476 112.225, 415.648 102.775, 412.894 97 C 410.140 91.225, 404.550 81.490, 400.473 75.366 C 396.248 69.020, 388.655 59.618, 382.819 53.505 C 377.186 47.606, 368.960 39.969, 364.539 36.534 C 360.117 33.100, 353.545 28.436, 349.934 26.171 C 346.322 23.906, 338.672 19.829, 332.934 17.111 C 327.195 14.394, 318.225 10.790, 313 9.103 C 307.775 7.415, 300.350 5.315, 296.500 4.436 C 292.650 3.557, 284.775 2.208, 279 1.438 C 273.225 0.669, 262.425 0.077, 255 0.123 C 247.575 0.168, 237.225 0.794, 232 1.513 M 245.500 31.079 C 240.550 31.463, 232.519 32.525, 227.654 33.439 C 222.789 34.353, 214.205 36.608, 208.578 38.452 C 202.952 40.295, 194.557 43.704, 189.924 46.029 C 185.291 48.353, 177.462 53.010, 172.527 56.377 C 167.592 59.745, 159.665 66.325, 154.911 71 C 150.156 75.675, 143.566 83.171, 140.266 87.657 C 136.966 92.144, 131.777 100.694, 128.736 106.657 C 125.694 112.621, 121.842 121.379, 120.177 126.119 C 118.511 130.860, 116.102 139.410, 114.824 145.119 C 112.778 154.259, 112.504 158.070, 112.532 177 C 112.562 196.667, 112.789 199.446, 115.193 209.597 C 116.639 215.701, 119.654 225.376, 121.893 231.097 C 124.133 236.819, 128.063 245.100, 130.627 249.500 C 133.191 253.900, 138.103 261.123, 141.543 265.551 C 144.983 269.979, 151.467 277.054, 155.951 281.272 C 160.436 285.491, 168.212 291.690, 173.232 295.047 C 178.252 298.405, 185.071 302.521, 188.385 304.194 C 191.699 305.867, 198.386 308.772, 203.245 310.648 C 208.105 312.525, 216.162 315.152, 221.151 316.488 C 226.140 317.823, 231.318 319.634, 232.658 320.512 C 233.999 321.390, 235.972 323.547, 237.044 325.304 C 238.861 328.284, 238.993 330.528, 238.996 358.516 C 239 385.846, 238.834 388.841, 237.145 391.991 C 236.050 394.031, 233.524 396.383, 230.987 397.725 C 226.977 399.846, 225.477 400, 208.843 400 C 191 400, 191 400, 191 416.500 C 191 433, 191 433, 207.851 433 C 217.794 433, 226.095 433.467, 228.101 434.139 C 229.970 434.765, 232.555 436.227, 233.845 437.389 C 235.135 438.550, 236.822 440.715, 237.595 442.200 C 238.654 444.236, 239 449.467, 239 463.450 C 239 482, 239 482, 256 482 C 273 482, 273 482, 273 463.148 C 273 445.247, 273.114 444.124, 275.258 440.898 C 276.500 439.029, 279.520 436.488, 281.970 435.250 C 286.077 433.175, 287.770 433, 303.712 433 C 321 433, 321 433, 321 416.500 C 321 400, 321 400, 303.157 400 C 286.523 400, 285.023 399.846, 281.013 397.725 C 278.476 396.383, 275.950 394.031, 274.855 391.991 C 273.166 388.841, 273 385.846, 273.004 358.516 C 273.007 330.528, 273.139 328.284, 274.956 325.304 C 276.028 323.547, 278.028 321.372, 279.401 320.473 C 280.775 319.573, 284.509 318.176, 287.699 317.369 C 290.890 316.561, 297.100 314.736, 301.500 313.312 C 305.900 311.888, 313.742 308.754, 318.926 306.348 C 324.110 303.941, 332.733 299.055, 338.089 295.490 C 343.444 291.925, 351.511 285.541, 356.014 281.305 C 360.518 277.068, 367.017 269.979, 370.457 265.551 C 373.897 261.123, 378.809 253.900, 381.373 249.500 C 383.937 245.100, 387.865 236.825, 390.101 231.111 C 392.338 225.397, 395.291 215.947, 396.665 210.111 C 398.653 201.660, 399.270 195.835, 399.695 181.500 C 400.152 166.088, 399.925 161.722, 398.115 151.129 C 396.953 144.324, 394.454 134.135, 392.564 128.484 C 390.673 122.834, 387.023 114.024, 384.453 108.906 C 381.882 103.788, 377.824 96.632, 375.434 93.005 C 373.044 89.378, 368.163 82.980, 364.586 78.789 C 361.010 74.597, 354.802 68.400, 350.792 65.018 C 346.781 61.637, 340.556 56.926, 336.958 54.550 C 333.360 52.175, 326.678 48.352, 322.109 46.055 C 317.541 43.758, 309.177 40.330, 303.523 38.439 C 297.869 36.547, 287.901 34.132, 281.371 33.073 C 274.842 32.015, 266.125 30.976, 262 30.765 C 257.875 30.554, 250.450 30.696, 245.500 31.079 M 237.235 65.497 C 233.239 66.222, 226.714 67.799, 222.735 69.003 C 218.756 70.206, 211.520 73.164, 206.656 75.575 C 201.792 77.986, 194.817 82.083, 191.156 84.679 C 187.495 87.276, 180.900 93.036, 176.500 97.481 C 172.100 101.925, 166.361 108.769, 163.747 112.690 C 161.134 116.610, 157.211 123.572, 155.031 128.159 C 152.852 132.747, 149.951 140.407, 148.586 145.182 C 147.221 149.958, 145.576 158.558, 144.930 164.294 C 144.036 172.244, 144.033 177.102, 144.919 184.722 C 145.559 190.222, 146.954 198.375, 148.021 202.842 C 149.088 207.309, 151.311 214.459, 152.962 218.732 C 154.613 223.004, 157.950 229.875, 160.378 234 C 162.806 238.125, 167.442 244.650, 170.681 248.500 C 173.919 252.350, 180.378 258.575, 185.034 262.334 C 190.269 266.559, 197.699 271.225, 204.500 274.558 C 210.550 277.522, 219.774 281.082, 224.998 282.468 C 230.222 283.854, 239.335 285.495, 245.248 286.114 C 253.217 286.949, 258.783 286.949, 266.752 286.114 C 272.665 285.495, 281.778 283.854, 287.002 282.468 C 292.226 281.082, 301.450 277.522, 307.500 274.558 C 314.301 271.225, 321.731 266.559, 326.966 262.334 C 331.622 258.575, 338.081 252.350, 341.319 248.500 C 344.558 244.650, 349.194 238.125, 351.622 234 C 354.050 229.875, 357.387 223.004, 359.038 218.732 C 360.689 214.459, 362.922 207.266, 364.002 202.746 C 365.081 198.227, 366.477 189.972, 367.104 184.403 C 367.970 176.701, 367.957 171.815, 367.048 163.996 C 366.391 158.342, 364.746 149.843, 363.393 145.108 C 362.039 140.374, 359.148 132.747, 356.969 128.159 C 354.789 123.572, 350.866 116.610, 348.253 112.690 C 345.639 108.769, 339.900 101.925, 335.500 97.481 C 331.100 93.036, 324.545 87.305, 320.933 84.743 C 317.321 82.182, 310.796 78.255, 306.433 76.017 C 302.070 73.780, 294.977 70.832, 290.671 69.466 C 286.365 68.100, 278.994 66.312, 274.290 65.491 C 269.586 64.671, 260.959 64.041, 255.119 64.090 C 249.279 64.140, 241.231 64.773, 237.235 65.497 M 243.039 96.169 C 239.486 96.677, 233.186 98.226, 229.039 99.612 C 224.893 100.998, 218.733 103.674, 215.351 105.559 C 211.969 107.443, 206.682 111.037, 203.604 113.545 C 200.525 116.053, 195.748 120.894, 192.988 124.303 C 190.228 127.711, 186.213 134.100, 184.065 138.500 C 181.918 142.900, 179.221 150.187, 178.073 154.694 C 176.925 159.200, 175.705 166.851, 175.361 171.696 C 174.977 177.107, 175.218 183.396, 175.986 188.002 C 176.673 192.126, 178.523 199.046, 180.096 203.380 C 181.668 207.714, 185.026 214.583, 187.557 218.644 C 190.088 222.705, 194.941 228.851, 198.342 232.302 C 201.742 235.753, 206.691 240.067, 209.339 241.889 C 211.987 243.711, 217.831 246.907, 222.327 248.991 C 226.822 251.074, 233.650 253.575, 237.500 254.548 C 242.182 255.730, 248.308 256.316, 256 256.316 C 263.692 256.316, 269.818 255.730, 274.500 254.548 C 278.350 253.575, 285.324 251.006, 289.998 248.838 C 294.672 246.671, 301.674 242.463, 305.558 239.488 C 309.442 236.513, 314.492 231.860, 316.779 229.147 C 319.066 226.435, 322.757 221.314, 324.980 217.768 C 327.204 214.221, 330.319 207.760, 331.904 203.410 C 333.488 199.059, 335.348 191.992, 336.037 187.704 C 336.770 183.139, 337.039 176.664, 336.686 172.082 C 336.354 167.779, 335.340 160.992, 334.432 157.002 C 333.525 153.011, 331.528 146.705, 329.995 142.988 C 328.462 139.270, 325.529 133.590, 323.477 130.364 C 321.425 127.139, 316.505 121.350, 312.545 117.500 C 308.584 113.650, 302.004 108.613, 297.922 106.306 C 293.840 103.999, 287.125 100.995, 283 99.630 C 278.875 98.265, 271.980 96.665, 267.678 96.074 C 263.375 95.483, 257.525 95.056, 254.678 95.123 C 251.830 95.191, 246.593 95.662, 243.039 96.169" stroke="none" fill="#040404" fill-rule="evenodd"/></svg>