<?xml version="1.0" encoding="UTF-8"?>
<!DOCTYPE svg PUBLIC "-//W3C//DTD SVG 1.1//EN" "http://www.w3.org/Graphics/SVG/1.1/DTD/svg11.dtd">
<svg xmlns="http://www.w3.org/2000/svg" version="1.1" width="512px" height="512px" style="shape-rendering:geometricPrecision; text-rendering:geometricPrecision; image-rendering:optimizeQuality; fill-rule:evenodd; clip-rule:evenodd" xmlns:xlink="http://www.w3.org/1999/xlink">
<g><path style="opacity:0.966" fill="#000000" d="M 422.5,-0.5 C 449.167,-0.5 475.833,-0.5 502.5,-0.5C 503.987,0.803551 505.654,1.97022 507.5,3C 508.697,5.01533 510.03,6.84866 511.5,8.5C 511.5,35.1667 511.5,61.8333 511.5,88.5C 412.589,188.911 313.089,288.911 213,388.5C 212.333,389.167 212.333,389.833 213,390.5C 221.403,398.233 229.07,406.566 236,415.5C 237.478,432.356 229.978,438.856 213.5,435C 201.015,423.349 188.682,411.515 176.5,399.5C 157.847,417.653 139.347,435.986 121,454.5C 116.574,484.746 99.7409,503.746 70.5,511.5C 63.1667,511.5 55.8333,511.5 48.5,511.5C 22.5,504.833 6.16667,488.5 -0.5,462.5C -0.5,455.167 -0.5,447.833 -0.5,440.5C 7.25402,411.259 26.254,394.426 56.5,390C 75.014,371.653 93.3473,353.153 111.5,334.5C 99.4845,322.318 87.6512,309.985 76,297.5C 72.1445,281.022 78.6445,273.522 95.5,275C 104.434,281.93 112.767,289.597 120.5,298C 121.167,298.667 121.833,298.667 122.5,298C 222.089,197.911 322.089,98.4105 422.5,-0.5 Z M 434.5,29.5 C 450.167,29.5 465.833,29.5 481.5,29.5C 481.667,45.1702 481.5,60.8369 481,76.5C 384,173.5 287,270.5 190,367.5C 174.5,352 159,336.5 143.5,321C 240.701,223.965 337.701,126.799 434.5,29.5 Z M 133.5,356.5 C 140.632,363.131 147.632,369.964 154.5,377C 140.333,391.167 126.167,405.333 112,419.5C 106.5,411.333 99.6667,404.5 91.5,399C 105.702,384.965 119.702,370.799 133.5,356.5 Z M 55.5,421.5 C 77.9754,421.808 89.1421,433.141 89,455.5C 83.9743,474.265 71.8076,482.432 52.5,480C 35.7701,474.051 28.6034,462.218 31,444.5C 34.8529,432.145 43.0195,424.478 55.5,421.5 Z"/></g>
</svg>
