<svg xmlns="http://www.w3.org/2000/svg" width="512" height="512" viewBox="0 0 512 512" version="1.1"><path d="" stroke="none" fill="#080404" fill-rule="evenodd"/><path d="M 332.500 1.896 C 318.385 8.431, 315.632 27.446, 327.316 37.704 C 329.312 39.457, 332.645 41.363, 334.723 41.940 C 337.125 42.607, 356.694 42.991, 388.497 42.994 L 438.494 43 375.500 106 C 340.853 140.650, 312.133 169, 311.677 169 C 311.221 169, 308.295 167.065, 305.174 164.701 C 283.537 148.307, 254.054 135.772, 224.500 130.401 C 210.525 127.861, 181.622 127.389, 166.742 129.456 C 123.768 135.427, 87.217 153.643, 56.430 184.430 C 35.060 205.800, 21.210 227.423, 11.230 255 C -3.889 296.779, -3.889 343.221, 11.230 385 C 21.210 412.577, 35.060 434.200, 56.430 455.570 C 82.059 481.199, 109.830 497.117, 145 506.336 C 173.924 513.918, 210.076 513.918, 239 506.336 C 274.170 497.117, 301.941 481.199, 327.570 455.570 C 358.357 424.783, 376.573 388.232, 382.544 345.258 C 384.611 330.378, 384.139 301.475, 381.599 287.500 C 376.228 257.946, 363.693 228.463, 347.299 206.826 C 344.935 203.705, 343 200.779, 343 200.323 C 343 199.867, 371.350 171.147, 406 136.500 L 469 73.506 469.006 123.503 C 469.009 155.306, 469.393 174.875, 470.060 177.277 C 470.637 179.355, 472.543 182.688, 474.296 184.684 C 484.554 196.368, 503.569 193.615, 510.104 179.500 C 511.857 175.714, 511.957 171.254, 511.978 96.218 C 512.002 9.547, 512.228 13.056, 506.197 6.624 C 504.714 5.042, 501.700 2.914, 499.500 1.896 C 495.713 0.142, 491.275 0.044, 416 0.044 C 340.725 0.044, 336.287 0.142, 332.500 1.896 M 180 171.654 C 130.795 176.341, 88.959 202.620, 63.607 244.764 C 55.540 258.172, 47.872 279.564, 44.881 297 C 43.223 306.662, 43.223 333.338, 44.881 343 C 52.536 387.625, 78.133 425.154, 116.764 448.393 C 130.172 456.460, 151.564 464.128, 169 467.119 C 178.662 468.777, 205.338 468.777, 215 467.119 C 246.810 461.662, 274.832 447.304, 297.068 425.068 C 333.022 389.114, 347.856 338.827, 337.422 288.271 C 327.164 238.568, 288.151 195.132, 239 178.690 C 221.378 172.796, 197.680 169.969, 180 171.654" stroke="none" fill="#040404" fill-rule="evenodd"/></svg>