<svg xmlns="http://www.w3.org/2000/svg" width="512" height="512" viewBox="0 0 512 512" version="1.1"><path d="" stroke="none" fill="#080404" fill-rule="evenodd"/><path d="M 311.898 2.270 C 305.098 6.813, 305.003 7.423, 305.002 46.782 C 305 86.115, 305.081 86.670, 311.563 91.618 C 315.331 94.494, 315.372 94.501, 332.328 94.837 L 349.318 95.174 305.643 138.857 L 261.968 182.541 251.563 177.418 C 196.709 150.412, 130.947 155.490, 78 190.822 C 38.770 217, 12.797 255.073, 2.836 301 C 0.821 310.290, 0.559 314.267, 0.559 335.500 C 0.559 356.722, 0.822 360.715, 2.833 370 C 18.389 441.805, 70.195 493.611, 142 509.167 C 151.285 511.178, 155.278 511.441, 176.500 511.441 C 197.733 511.441, 201.710 511.179, 211 509.164 C 256.307 499.338, 295 473.134, 320.508 435 C 335.594 412.448, 344.449 390.453, 349.697 362.500 C 352.370 348.268, 352.095 318.828, 349.153 304 C 346.175 288.995, 340.948 273.366, 334.582 260.437 L 329.459 250.032 373.143 206.357 L 416.826 162.682 417.163 179.672 C 417.499 196.628, 417.506 196.669, 420.382 200.437 C 425.330 206.919, 425.885 207, 465.218 206.998 C 504.577 206.997, 505.187 206.902, 509.730 200.102 L 512 196.704 511.996 103.602 C 511.993 12.465, 511.951 10.431, 510.005 7.241 C 508.912 5.448, 506.552 3.088, 504.759 1.995 C 501.569 0.049, 499.535 0.007, 408.398 0.004 L 315.296 0 311.898 2.270 M 336 47 L 336 64 363.566 64 C 381.980 64, 391.857 64.373, 393.316 65.122 C 400.555 68.841, 403.901 75.856, 401.963 83.250 C 400.973 87.029, 393.855 94.510, 337.675 150.818 C 302.929 185.642, 273.150 214.859, 271.500 215.743 C 265.854 218.770, 260.229 217.908, 251.945 212.746 C 227.042 197.230, 200.670 190.148, 172 191.278 C 135.207 192.729, 101.317 207.311, 74.331 233.303 C 42.361 264.096, 27.462 303.199, 31.002 347.025 C 36.832 419.207, 92.660 475.090, 164.832 480.986 C 208.666 484.568, 248.424 469.360, 279.128 437.267 C 315.681 399.060, 329.589 344.695, 315.414 295.427 C 312.499 285.293, 305.936 270.816, 299.580 260.500 C 294.372 252.046, 293.606 249.211, 295.047 243.713 C 296.024 239.983, 303.397 232.233, 359.325 176.142 C 406.066 129.265, 423.623 112.271, 426.817 110.815 C 432.165 108.377, 437.743 109.071, 442.071 112.713 C 447.874 117.596, 448 118.358, 448 148.450 L 448 176 465 176 L 482 176 482 103 L 482 30 409 30 L 336 30 336 47 M 154.633 226.553 C 138.300 229.798, 121.926 237.033, 109 246.714 C 101.429 252.385, 89.220 265.043, 83.903 272.735 C 68.657 294.789, 61.581 323.018, 64.910 348.500 C 71.691 400.397, 105.404 436.567, 155.325 445.504 C 169.654 448.069, 191.762 447.207, 205.500 443.547 C 255.064 430.343, 287 387.721, 287 334.776 C 287 296.103, 266.836 261.198, 232.418 240.293 C 214.906 229.656, 197.033 224.938, 174.843 225.094 C 167.504 225.146, 158.410 225.802, 154.633 226.553 M 159 257.503 C 119.452 265.502, 93.376 299.423, 95.274 340.396 C 95.877 353.402, 97.631 360.481, 103.017 371.633 C 110.759 387.667, 124.320 401.230, 140.367 408.988 C 153.264 415.224, 159.317 416.500, 176 416.500 C 188.420 416.500, 191.571 416.164, 197.965 414.156 C 233.715 402.930, 256.219 373.103, 256.179 337 C 256.127 290.297, 221.419 255.712, 175 256.107 C 169.775 256.152, 162.575 256.780, 159 257.503" stroke="none" fill="#040404" fill-rule="evenodd"/></svg>