<?xml version="1.0" encoding="UTF-8"?>
<!DOCTYPE svg PUBLIC "-//W3C//DTD SVG 1.1//EN" "http://www.w3.org/Graphics/SVG/1.1/DTD/svg11.dtd">
<svg xmlns="http://www.w3.org/2000/svg" version="1.1" width="512px" height="512px" style="shape-rendering:geometricPrecision; text-rendering:geometricPrecision; image-rendering:optimizeQuality; fill-rule:evenodd; clip-rule:evenodd" xmlns:xlink="http://www.w3.org/1999/xlink">
<g><path style="opacity:0.95" fill="#000000" d="M 187.5,-0.5 C 196.167,-0.5 204.833,-0.5 213.5,-0.5C 243.728,5.87136 268.894,20.8714 289,44.5C 294.911,51.9886 300.577,59.6553 306,67.5C 325.954,28.6082 356.787,15.7748 398.5,29C 428.424,43.3072 444.591,67.1405 447,100.5C 448.259,117.102 445.759,133.102 439.5,148.5C 472.746,164.99 485.579,191.323 478,227.5C 470.984,242.181 459.817,252.348 444.5,258C 438.668,260.277 432.668,261.944 426.5,263C 443.402,277.901 458.902,294.067 473,311.5C 482.924,297.645 489.591,282.312 493,265.5C 499.923,259.795 506.089,260.462 511.5,267.5C 511.5,271.5 511.5,275.5 511.5,279.5C 505.969,298.895 496.969,316.561 484.5,332.5C 494.507,361.97 490.34,389.303 472,414.5C 455.925,435.457 435.091,449.291 409.5,456C 395.333,478.006 376,493.506 351.5,502.5C 341.801,500.435 338.967,494.768 343,485.5C 355.931,478.949 367.764,470.782 378.5,461C 347.37,461.107 317.37,455.44 288.5,444C 282.086,441.38 276.253,437.88 271,433.5C 259.304,443.929 246.804,453.262 233.5,461.5C 236.458,464.324 239.458,467.158 242.5,470C 251.953,476.476 261.786,482.31 272,487.5C 275.883,496.926 272.883,502.593 263,504.5C 243.516,497.759 226.849,486.759 213,471.5C 181.421,485.534 149.255,487.034 116.5,476C 88.0362,463.148 74.8695,440.981 77,409.5C 47.8559,386.115 41.8559,357.782 59,324.5C 74.0546,303.724 94.5546,293.724 120.5,294.5C 123.727,284.364 126.06,274.03 127.5,263.5C 88.6506,264.608 49.8173,265.942 11,267.5C 6.01606,267.427 2.18272,265.427 -0.5,261.5C -0.5,258.167 -0.5,254.833 -0.5,251.5C 3.49037,247.202 8.49037,245.369 14.5,246C 53.1699,244.853 91.8365,243.686 130.5,242.5C 130.5,234.833 130.5,227.167 130.5,219.5C 100.767,215.761 73.7674,205.261 49.5,188C 26.5439,168.685 21.3772,145.518 34,118.5C 43.2108,106.812 55.3775,100.812 70.5,100.5C 89.807,101.644 105.64,109.644 118,124.5C 134.602,146.445 145.102,171.112 149.5,198.5C 165.806,200.433 181.806,198.933 197.5,194C 162.754,164.023 141.921,126.19 135,80.5C 132.384,57.9582 137.717,37.6248 151,19.5C 161.003,8.75081 173.17,2.08414 187.5,-0.5 Z M 198.5,19.5 C 218.902,20.9103 237.236,27.7437 253.5,40C 271.285,54.4335 285.285,71.7668 295.5,92C 283.712,134.131 258.545,165.298 220,185.5C 187.254,159.717 166.254,126.384 157,85.5C 153.647,68.6396 155.98,52.6396 164,37.5C 172.705,26.1013 184.205,20.1013 198.5,19.5 Z M 363.5,44.5 C 392.967,44.1525 412.8,57.8192 423,85.5C 428.267,104.891 427.101,123.891 419.5,142.5C 395.438,138.383 371.938,140.383 349,148.5C 339.167,128.833 329.333,109.167 319.5,89.5C 324.699,73.9119 333.699,61.0786 346.5,51C 352.058,48.2074 357.725,46.0408 363.5,44.5 Z M 308.5,117.5 C 309.376,117.369 310.043,117.702 310.5,118.5C 316.561,131.623 322.894,144.623 329.5,157.5C 318.52,165.313 309.02,174.646 301,185.5C 292.803,194.031 284.303,202.198 275.5,210C 263.156,208.218 251.49,204.218 240.5,198C 272.757,179.245 295.424,152.412 308.5,117.5 Z M 69.5,121.5 C 84.9675,123.319 97.1342,130.652 106,143.5C 116.767,160.039 123.934,178.039 127.5,197.5C 105.944,194.038 85.9441,186.538 67.5,175C 56.1434,167.477 49.4767,156.977 47.5,143.5C 49.2316,130.435 56.5649,123.102 69.5,121.5 Z M 382.5,161.5 C 391.004,161.033 399.337,161.533 407.5,163C 398.52,175.65 387.353,185.817 374,193.5C 368.217,185.445 363.05,176.945 358.5,168C 360.635,166.619 362.968,165.619 365.5,165C 371.301,163.816 376.968,162.649 382.5,161.5 Z M 429.5,167.5 C 451.466,177.11 461.299,193.776 459,217.5C 455.167,226.667 448.667,233.167 439.5,237C 428.933,241.761 417.933,243.261 406.5,241.5C 398.766,232.364 391.766,222.697 385.5,212.5C 403.54,200.794 418.206,185.794 429.5,167.5 Z M 338.5,176.5 C 343.933,185.187 349.267,194.02 354.5,203C 338.359,210.525 321.359,213.858 303.5,213C 315.061,200.608 326.728,188.441 338.5,176.5 Z M 215.5,209.5 C 227.048,215.771 239.048,221.271 251.5,226C 244.885,230.281 238.552,234.947 232.5,240C 205.573,240.475 178.573,240.975 151.5,241.5C 151.5,234.5 151.5,227.5 151.5,220.5C 173.784,221.564 195.118,217.898 215.5,209.5 Z M 363.5,222.5 C 364.822,222.33 365.989,222.663 367,223.5C 370.972,229.638 375.138,235.638 379.5,241.5C 361.797,247.039 350.797,258.872 346.5,277C 338.328,278.134 330.328,279.967 322.5,282.5C 308.941,261.194 289.608,248.027 264.5,243C 269.435,240.394 274.102,237.394 278.5,234C 294.847,235 311.18,234.666 327.5,233C 340.156,231.341 352.156,227.841 363.5,222.5 Z M 180.5,261.5 C 191.838,261.333 203.172,261.5 214.5,262C 204.085,275.749 191.752,287.416 177.5,297C 165.739,303.785 153.406,305.119 140.5,301C 144.323,288.72 147.323,276.22 149.5,263.5C 159.992,262.833 170.326,262.167 180.5,261.5 Z M 241.5,261.5 C 253.54,262.284 265.206,264.784 276.5,269C 286.9,273.852 295.233,281.018 301.5,290.5C 281.925,302.231 263.592,315.731 246.5,331C 238.961,338.87 231.794,347.037 225,355.5C 217.725,367.107 210.058,378.44 202,389.5C 202.299,351.97 210.632,316.303 227,282.5C 231.35,275.123 236.183,268.123 241.5,261.5 Z M 387.5,261.5 C 390.568,261.547 393.568,262.047 396.5,263C 412.029,278.862 427.862,294.362 444,309.5C 448.667,315.5 453.333,321.5 458,327.5C 458.52,329.289 458.187,330.956 457,332.5C 449.129,341.516 439.629,348.183 428.5,352.5C 424.539,333.583 417.039,316.25 406,300.5C 396.179,288.507 383.679,281.007 368.5,278C 371.668,268.654 378.001,263.154 387.5,261.5 Z M 364.5,298.5 C 383.118,304.285 395.284,316.619 401,335.5C 403.659,341.788 405.159,348.122 405.5,354.5C 378.075,346.055 364.408,327.388 364.5,298.5 Z M 337.5,299.5 C 339.5,299.5 341.5,299.5 343.5,299.5C 343.2,327.679 354.534,349.845 377.5,366C 387.373,371.903 398.04,375.07 409.5,375.5C 410.919,397.072 406.586,417.406 396.5,436.5C 364.948,441.525 334.114,438.525 304,427.5C 297.614,424.724 291.448,421.557 285.5,418C 304.289,398.597 318.122,376.097 327,350.5C 330.95,334.925 331.45,319.258 328.5,303.5C 331.412,301.76 334.412,300.427 337.5,299.5 Z M 308.5,311.5 C 310.944,326.539 309.111,341.205 303,355.5C 295.053,373.073 284.387,388.74 271,402.5C 266.769,396.75 264.935,390.25 265.5,383C 267.758,357.15 278.758,335.816 298.5,319C 302.08,316.723 305.414,314.223 308.5,311.5 Z M 191.5,312.5 C 190.222,320.646 188.389,328.98 186,337.5C 181.037,359.501 179.204,381.668 180.5,404C 159.191,412.735 137.524,413.735 115.5,407C 110.055,405.112 105.055,402.445 100.5,399C 111.967,373.232 123.3,347.398 134.5,321.5C 155.023,327.468 174.023,324.468 191.5,312.5 Z M 105.5,316.5 C 108.187,316.336 110.854,316.503 113.5,317C 103.307,339.886 92.974,362.72 82.5,385.5C 68.2576,369.723 66.7576,352.723 78,334.5C 85.2513,325.387 94.418,319.387 105.5,316.5 Z M 467.5,351.5 C 470.827,374.897 463.827,394.897 446.5,411.5C 440.007,417.994 432.674,423.327 424.5,427.5C 424.167,427.167 423.833,426.833 423.5,426.5C 429.519,409.347 431.853,391.681 430.5,373.5C 445.212,369.984 457.546,362.651 467.5,351.5 Z M 245.5,363.5 C 246.043,363.56 246.376,363.893 246.5,364.5C 243.242,379.073 244.076,393.406 249,407.5C 250.54,411.419 252.707,414.919 255.5,418C 244.745,428.542 232.745,437.376 219.5,444.5C 212.972,435.776 208.305,426.109 205.5,415.5C 210.765,410.737 215.932,405.737 221,400.5C 229.177,388.138 237.344,375.805 245.5,363.5 Z M 98.5,422.5 C 119.176,432.286 140.843,435.12 163.5,431C 171.119,429.762 178.452,427.596 185.5,424.5C 189.361,434.555 194.027,444.222 199.5,453.5C 177.508,463.092 154.841,464.925 131.5,459C 116.624,454.788 106.124,445.621 100,431.5C 99.0467,428.568 98.5467,425.568 98.5,422.5 Z"/></g>
<g><path style="opacity:0.902" fill="#000000" d="M 312.5,511.5 C 309.5,511.5 306.5,511.5 303.5,511.5C 296.388,506.099 295.721,499.933 301.5,493C 310.748,488.957 316.415,491.79 318.5,501.5C 317.995,505.861 315.995,509.195 312.5,511.5 Z"/></g>
</svg>
