<?xml version="1.0" encoding="UTF-8"?>
<!DOCTYPE svg PUBLIC "-//W3C//DTD SVG 1.1//EN" "http://www.w3.org/Graphics/SVG/1.1/DTD/svg11.dtd">
<svg xmlns="http://www.w3.org/2000/svg" version="1.1" width="512px" height="512px" style="shape-rendering:geometricPrecision; text-rendering:geometricPrecision; image-rendering:optimizeQuality; fill-rule:evenodd; clip-rule:evenodd" xmlns:xlink="http://www.w3.org/1999/xlink">
<g><path style="opacity:0.975" fill="#000000" d="M 238.5,-0.5 C 249.833,-0.5 261.167,-0.5 272.5,-0.5C 334.775,9.73909 376.275,44.7391 397,104.5C 399.279,113.859 401.445,123.192 403.5,132.5C 435.202,141.035 454.369,161.369 461,193.5C 461.333,235.833 461.667,278.167 462,320.5C 477.337,326.504 487.003,337.504 491,353.5C 491.667,362.167 491.667,370.833 491,379.5C 486.652,387.915 479.819,390.748 470.5,388C 466.333,386.5 463.5,383.667 462,379.5C 461.789,372.449 461.122,365.449 460,358.5C 452.026,346.435 443.359,345.768 434,356.5C 432.956,358.715 432.29,361.048 432,363.5C 431.667,368.833 431.333,374.167 431,379.5C 426.652,387.915 419.819,390.748 410.5,388C 406.333,386.5 403.5,383.667 402,379.5C 397.513,359.251 402.68,342.084 417.5,328C 421.629,324.852 426.129,322.352 431,320.5C 431.667,282.167 431.667,243.833 431,205.5C 429.861,185.709 420.195,172.043 402,164.5C 395.478,209.645 373.478,244.979 336,270.5C 335.167,321.503 335.333,372.503 336.5,423.5C 352.961,429.461 363.794,440.794 369,457.5C 370.6,472.445 370.934,487.445 370,502.5C 368.312,506.685 365.479,509.685 361.5,511.5C 334.167,511.5 306.833,511.5 279.5,511.5C 275.521,509.685 272.688,506.685 271,502.5C 270.066,487.445 270.4,472.445 272,457.5C 277.206,440.794 288.039,429.461 304.5,423.5C 305.833,377.5 305.833,331.5 304.5,285.5C 280.721,293.496 256.388,295.662 231.5,292C 222.959,290.615 214.625,288.448 206.5,285.5C 205.167,331.5 205.167,377.5 206.5,423.5C 222.961,429.461 233.794,440.794 239,457.5C 240.6,472.445 240.934,487.445 240,502.5C 238.312,506.685 235.479,509.685 231.5,511.5C 204.167,511.5 176.833,511.5 149.5,511.5C 145.521,509.685 142.688,506.685 141,502.5C 140.066,487.445 140.4,472.445 142,457.5C 147.206,440.794 158.039,429.461 174.5,423.5C 175.667,372.503 175.833,321.503 175,270.5C 137.522,244.979 115.522,209.645 109,164.5C 90.8054,172.043 81.1388,185.709 80,205.5C 79.3333,243.833 79.3333,282.167 80,320.5C 95.3368,326.504 105.003,337.504 109,353.5C 109.667,362.167 109.667,370.833 109,379.5C 104.652,387.915 97.8191,390.748 88.5,388C 84.3333,386.5 81.5,383.667 80,379.5C 79.6667,374.167 79.3333,368.833 79,363.5C 76.3729,351.166 69.2062,346.999 57.5,351C 52.9614,353.887 50.4614,358.053 50,363.5C 49.6667,368.833 49.3333,374.167 49,379.5C 44.6524,387.915 37.8191,390.748 28.5,388C 24.3333,386.5 21.5,383.667 20,379.5C 15.1592,357.06 21.6592,338.893 39.5,325C 42.6215,323.355 45.7882,321.855 49,320.5C 49.3333,278.167 49.6667,235.833 50,193.5C 56.631,161.369 75.7977,141.035 107.5,132.5C 115.605,77.081 144.605,36.9143 194.5,12C 208.759,5.93929 223.426,1.77262 238.5,-0.5 Z M 254.5,29.5 C 259.772,30.4002 265.105,30.7335 270.5,30.5C 270.5,44.5 270.5,58.5 270.5,72.5C 260.5,71.1667 250.5,71.1667 240.5,72.5C 240.5,58.5 240.5,44.5 240.5,30.5C 245.363,30.8195 250.03,30.4861 254.5,29.5 Z M 208.5,39.5 C 209.831,46.9703 210.498,54.8037 210.5,63C 210.167,70.8333 209.833,78.6667 209.5,86.5C 181.166,111.021 173.333,141.021 186,176.5C 202.814,209.995 229.98,224.828 267.5,221C 294.385,216.141 313.552,201.307 325,176.5C 337.662,141.008 329.828,111.008 301.5,86.5C 300.167,70.8333 300.167,55.1667 301.5,39.5C 346.15,61.114 369.483,96.7806 371.5,146.5C 369.479,196.726 345.813,232.56 300.5,254C 256.037,270.478 215.37,263.812 178.5,234C 140.076,196.465 129.91,152.298 148,101.5C 160.631,73.3707 180.797,52.704 208.5,39.5 Z M 246.5,102.5 C 273.542,100.067 291.042,111.733 299,137.5C 301.92,164.564 290.42,182.064 264.5,190C 237.436,192.92 219.936,181.42 212,155.5C 209.287,128.411 220.787,110.744 246.5,102.5 Z M 184.5,452.5 C 196.046,450.687 204.212,455.021 209,465.5C 210.095,470.78 210.595,476.113 210.5,481.5C 197.167,481.5 183.833,481.5 170.5,481.5C 169.963,473.714 171.463,466.381 175,459.5C 177.79,456.535 180.957,454.202 184.5,452.5 Z M 314.5,452.5 C 326.046,450.687 334.212,455.021 339,465.5C 340.095,470.78 340.595,476.113 340.5,481.5C 327.167,481.5 313.833,481.5 300.5,481.5C 299.963,473.714 301.463,466.381 305,459.5C 307.79,456.535 310.957,454.202 314.5,452.5 Z"/></g>
<g><path style="opacity:0.931" fill="#000000" d="M 249.5,131.5 C 265.654,129.487 272.487,136.487 270,152.5C 265.652,160.915 258.819,163.748 249.5,161C 241.085,156.652 238.252,149.819 241,140.5C 242.688,136.315 245.521,133.315 249.5,131.5 Z"/></g>
</svg>
