<?xml version="1.0" encoding="UTF-8"?>
<!DOCTYPE svg PUBLIC "-//W3C//DTD SVG 1.1//EN" "http://www.w3.org/Graphics/SVG/1.1/DTD/svg11.dtd">
<svg xmlns="http://www.w3.org/2000/svg" version="1.1" width="512px" height="512px" style="shape-rendering:geometricPrecision; text-rendering:geometricPrecision; image-rendering:optimizeQuality; fill-rule:evenodd; clip-rule:evenodd" xmlns:xlink="http://www.w3.org/1999/xlink">
<g><path style="opacity:0.968" fill="#000000" d="M 231.5,-0.5 C 247.5,-0.5 263.5,-0.5 279.5,-0.5C 357.537,7.27251 424.371,38.6058 480,93.5C 494.665,109.503 505.165,127.836 511.5,148.5C 511.5,155.167 511.5,161.833 511.5,168.5C 506.222,186.199 494.555,197.699 476.5,203C 448.612,209.915 420.279,213.081 391.5,212.5C 391.667,246.502 391.5,280.502 391,314.5C 386.921,338.579 373.087,353.745 349.5,360C 343.555,361.162 337.555,361.662 331.5,361.5C 331.5,381.167 331.5,400.833 331.5,420.5C 370.704,425.873 390.704,448.373 391.5,488C 393.651,498.432 390.318,506.265 381.5,511.5C 346.5,511.5 311.5,511.5 276.5,511.5C 268.878,509.188 261.878,505.521 255.5,500.5C 249.122,505.521 242.122,509.188 234.5,511.5C 199.5,511.5 164.5,511.5 129.5,511.5C 120.575,506.107 117.241,498.107 119.5,487.5C 120.53,448.138 140.53,425.805 179.5,420.5C 179.5,400.833 179.5,381.167 179.5,361.5C 146.721,359.536 126.888,342.536 120,310.5C 119.5,277.835 119.333,245.168 119.5,212.5C 100.116,212.165 80.7824,210.998 61.5,209C 42.1896,207.237 25.0229,200.403 10,188.5C 5.14612,182.456 1.64612,175.789 -0.5,168.5C -0.5,161.833 -0.5,155.167 -0.5,148.5C 5.83472,127.836 16.3347,109.503 31,93.5C 86.6292,38.6058 153.463,7.27251 231.5,-0.5 Z M 233.5,30.5 C 308.057,26.745 374.724,47.5783 433.5,93C 448.115,105.277 460.948,119.111 472,134.5C 476.687,141.699 479.521,149.533 480.5,158C 479.829,166.014 475.496,171.014 467.5,173C 454.8,176.95 441.8,179.283 428.5,180C 412.847,180.92 397.181,181.42 381.5,181.5C 339.504,180.594 297.504,179.928 255.5,179.5C 204.5,180.434 153.5,180.934 102.5,181C 84.6143,180.859 66.9476,178.859 49.5,175C 42.6889,173.517 36.8555,170.351 32,165.5C 29.9154,159.081 30.2488,152.747 33,146.5C 37.4165,136.657 43.0831,127.657 50,119.5C 89.5856,77.4433 137.752,49.9433 194.5,37C 207.536,34.1606 220.536,31.994 233.5,30.5 Z M 210.5,210.5 C 240.5,210.5 270.5,210.5 300.5,210.5C 300.833,252.505 300.5,294.505 299.5,336.5C 284.833,343.833 270.167,351.167 255.5,358.5C 240.833,351.167 226.167,343.833 211.5,336.5C 210.5,294.505 210.167,252.505 210.5,210.5 Z M 153.5,211.5 C 162.167,211.5 170.833,211.5 179.5,211.5C 179.5,251.167 179.5,290.833 179.5,330.5C 164.781,329.28 155.281,321.613 151,307.5C 150.5,275.835 150.333,244.168 150.5,212.5C 151.791,212.737 152.791,212.404 153.5,211.5 Z M 331.5,211.5 C 341.206,211.245 350.873,211.579 360.5,212.5C 360.667,245.502 360.5,278.502 360,311.5C 355.809,325.489 346.309,331.822 331.5,330.5C 331.5,290.833 331.5,251.167 331.5,211.5 Z M 210.5,371.5 C 220.267,375.883 229.934,380.55 239.5,385.5C 240.667,412.16 240.833,438.827 240,465.5C 239.553,472.566 236.053,477.399 229.5,480C 203.169,480.5 176.835,480.667 150.5,480.5C 152.793,464.706 161.793,455.206 177.5,452C 184.833,451.667 192.167,451.333 199.5,451C 205,449.5 208.5,446 210,440.5C 210.5,417.502 210.667,394.502 210.5,371.5 Z M 298.5,371.5 C 300.325,394.145 301.159,417.145 301,440.5C 302.5,446 306,449.5 311.5,451C 318.833,451.333 326.167,451.667 333.5,452C 349.18,455.179 358.18,464.679 360.5,480.5C 334.165,480.667 307.831,480.5 281.5,480C 274.947,477.399 271.447,472.566 271,465.5C 270.167,438.827 270.333,412.16 271.5,385.5C 280.718,381.059 289.718,376.392 298.5,371.5 Z"/></g>
<g><path style="opacity:0.951" fill="#000000" d="M 177.5,82.5 C 190.734,85.41 203.734,89.2433 216.5,94C 219.295,95.7932 221.795,97.9598 224,100.5C 225.592,110.759 225.926,121.093 225,131.5C 219.385,142.279 211.218,144.779 200.5,139C 195.703,133.445 193.369,126.945 193.5,119.5C 187.204,117.235 180.871,115.068 174.5,113C 166.129,109.091 162.963,102.591 165,93.5C 167.537,87.7851 171.704,84.1184 177.5,82.5 Z"/></g>
<g><path style="opacity:0.951" fill="#000000" d="M 328.5,82.5 C 344.36,84.2213 349.526,92.5547 344,107.5C 342.062,110.106 339.562,111.939 336.5,113C 330.129,115.068 323.796,117.235 317.5,119.5C 317.631,126.945 315.297,133.445 310.5,139C 299.782,144.779 291.615,142.279 286,131.5C 285.074,121.093 285.408,110.759 287,100.5C 288.884,97.6155 291.384,95.4488 294.5,94C 305.979,90.2298 317.312,86.3964 328.5,82.5 Z"/></g>
</svg>
