<svg xmlns="http://www.w3.org/2000/svg" width="512" height="512" viewBox="0 0 512 512" version="1.1"><path d="" stroke="none" fill="#080404" fill-rule="evenodd"/><path d="M 226 1.073 C 154.354 8.910, 84.308 41.517, 37.824 88.671 C 18.693 108.077, 6.744 126.637, 1.928 144.427 C -1.161 155.834, -0.536 169.083, 3.488 177.500 C 9.463 189.999, 23.198 200.051, 41 204.953 C 55.762 209.018, 79.518 211.983, 97.500 212.004 C 102.450 212.009, 109.538 212.301, 113.250 212.652 L 120 213.289 120.017 260.395 C 120.037 313.058, 120.331 316.130, 126.582 328.832 C 135.406 346.763, 153.570 359.214, 174.250 361.506 L 180 362.144 180 391.527 L 180 420.909 176.250 421.496 C 162.398 423.661, 151.672 428.191, 143.128 435.483 C 127.030 449.225, 120 465.582, 120 489.301 C 120 498.176, 120.331 500.311, 122.275 503.987 C 126.655 512.271, 124.625 512, 182.266 512 C 230.884 512, 233.325 511.912, 239.168 509.943 C 242.526 508.812, 247.687 506.343, 250.637 504.456 L 256 501.025 261.363 504.456 C 264.313 506.343, 269.474 508.812, 272.832 509.943 C 278.675 511.912, 281.116 512, 329.734 512 C 387.375 512, 385.345 512.271, 389.725 503.987 C 391.669 500.311, 392 498.176, 392 489.301 C 392 465.582, 384.970 449.225, 368.872 435.483 C 360.328 428.191, 349.602 423.661, 335.750 421.496 L 332 420.909 332 391.598 L 332 362.288 339.959 361.624 C 355.639 360.316, 367.423 354.718, 377.823 343.637 C 383.920 337.140, 389.268 326.487, 390.908 317.566 C 391.602 313.797, 392 293.700, 392 262.461 L 392 213.289 398.750 212.652 C 402.462 212.301, 409.550 212.009, 414.500 212.004 C 432.482 211.983, 456.238 209.018, 471 204.953 C 491.050 199.432, 505.629 187.676, 510.006 173.500 C 510.686 171.300, 511.637 169.072, 512.121 168.550 C 513.378 167.192, 513.261 148.721, 512 149.500 C 511.450 149.840, 511 149.204, 511 148.088 C 511 144.885, 505.435 130.470, 501.442 123.331 C 489.095 101.251, 462.421 74.404, 433.661 55.108 C 392.743 27.655, 348.738 10.508, 299.500 2.832 C 284.601 0.510, 240.748 -0.540, 226 1.073 M 241 31.137 C 180.811 34.159, 117.683 59.346, 72.217 98.476 C 42.324 124.205, 24.605 154.372, 32.415 166.241 C 34.988 170.152, 45.068 174.760, 55.904 176.980 C 76.181 181.135, 85.305 181.525, 150.500 181.023 C 228.835 180.420, 283.165 180.420, 361.500 181.023 C 426.695 181.525, 435.819 181.135, 456.096 176.980 C 466.932 174.760, 477.012 170.152, 479.585 166.241 C 482.253 162.187, 481.754 154.611, 478.276 146.347 C 468.989 124.283, 444.630 99.058, 412 77.713 C 370.688 50.689, 318.505 33.243, 273.500 31.411 C 266.900 31.142, 260.150 30.807, 258.500 30.665 C 256.850 30.524, 248.975 30.736, 241 31.137 M 171.898 86.270 C 165.533 90.522, 163.328 98.674, 166.649 105.674 C 168.854 110.318, 171.399 111.854, 183.905 116.082 L 194.500 119.665 195.194 125.873 C 195.576 129.288, 196.782 133.526, 197.875 135.291 C 203.466 144.320, 216.795 144.523, 223.395 135.681 C 225.223 133.232, 225.544 131.195, 225.837 120.192 C 226.221 105.712, 225.265 101.242, 221.018 97.669 C 217.029 94.312, 186.006 84, 179.897 84 C 176.778 84, 174.201 84.731, 171.898 86.270 M 309.787 89.858 C 286.140 97.957, 285.665 98.550, 286.171 119.329 C 286.460 131.221, 286.755 133.203, 288.605 135.681 C 295.205 144.523, 308.534 144.320, 314.125 135.291 C 315.218 133.526, 316.424 129.288, 316.806 125.873 L 317.500 119.665 328.095 116.082 C 340.601 111.854, 343.146 110.318, 345.351 105.674 C 348.672 98.674, 346.467 90.522, 340.102 86.270 C 334.628 82.613, 328.989 83.281, 309.787 89.858 M 0.365 159.500 C 0.368 165, 0.536 167.122, 0.738 164.216 C 0.941 161.311, 0.939 156.811, 0.734 154.216 C 0.528 151.622, 0.363 154, 0.365 159.500 M 211 273.760 L 211 336.521 233.500 347.757 L 256 358.994 278.500 347.757 L 301 336.521 301 273.760 L 301 211 256 211 L 211 211 211 273.760 M 151.214 261.250 C 151.496 309.823, 151.530 310.557, 153.702 314.616 C 158.531 323.642, 166.006 329.161, 175.250 330.526 L 180 331.227 180 271.614 L 180 212 165.464 212 L 150.928 212 151.214 261.250 M 332 271.637 L 332 331.274 338.279 330.770 C 348.605 329.941, 354.976 325.690, 358.916 317 C 360.882 312.664, 360.957 310.667, 360.978 262.250 L 361 212 346.500 212 L 332 212 332 271.637 M 211 405.534 C 211 437.539, 210.860 440.353, 209.095 443.790 C 205.864 450.083, 202.367 451.421, 187.500 452.050 C 172.786 452.673, 168.155 454.155, 161.157 460.477 C 156.746 464.462, 152.510 472.210, 151.441 478.250 L 150.777 482 187.139 481.956 C 207.137 481.932, 225.448 481.536, 227.829 481.076 C 233.110 480.056, 238.607 475.075, 240.004 470.044 C 240.575 467.990, 240.991 449.582, 240.994 426.256 L 241 386.013 226 378.500 L 211 370.987 211 405.534 M 285.750 378.624 L 271 386.013 271.006 426.257 C 271.009 449.582, 271.425 467.990, 271.996 470.044 C 273.393 475.075, 278.890 480.056, 284.171 481.076 C 286.552 481.536, 304.863 481.932, 324.861 481.956 L 361.223 482 360.559 478.250 C 359.490 472.210, 355.254 464.462, 350.843 460.477 C 343.845 454.155, 339.214 452.673, 324.500 452.050 C 310.084 451.440, 306.822 450.291, 303.386 444.614 C 301.661 441.766, 301.457 438.499, 301 406.368 L 300.500 371.235 285.750 378.624" stroke="none" fill="#040404" fill-rule="evenodd"/></svg>