<?xml version="1.0" encoding="UTF-8"?>
<!DOCTYPE svg PUBLIC "-//W3C//DTD SVG 1.1//EN" "http://www.w3.org/Graphics/SVG/1.1/DTD/svg11.dtd">
<svg xmlns="http://www.w3.org/2000/svg" version="1.1" width="512px" height="512px" style="shape-rendering:geometricPrecision; text-rendering:geometricPrecision; image-rendering:optimizeQuality; fill-rule:evenodd; clip-rule:evenodd" xmlns:xlink="http://www.w3.org/1999/xlink">
<g><path style="opacity:0.981" fill="#000000" d="M 249.5,-0.5 C 280.167,-0.5 310.833,-0.5 341.5,-0.5C 350.454,4.84176 352.954,12.5084 349,22.5C 332.183,38.3129 315.017,53.8129 297.5,69C 325.833,69.3333 354.167,69.6667 382.5,70C 390.915,74.3476 393.748,81.1809 391,90.5C 380.695,115.857 374.528,142.19 372.5,169.5C 389.117,167.032 396.284,174.032 394,190.5C 389.328,198.923 382.161,201.923 372.5,199.5C 374.528,226.809 380.695,253.142 391,278.5C 393.748,287.819 390.915,294.652 382.5,299C 345.168,299.5 307.835,299.667 270.5,299.5C 270.5,319.833 270.5,340.167 270.5,360.5C 282.838,360.667 295.171,360.5 307.5,360C 316.333,348.5 325.167,337 334,325.5C 335.833,324.333 337.667,323.167 339.5,322C 393.5,321.333 447.5,321.333 501.5,322C 509.915,326.348 512.748,333.181 510,342.5C 508.5,346.667 505.667,349.5 501.5,351C 493.841,351.5 486.174,351.666 478.5,351.5C 474.246,375.938 469.412,400.272 464,424.5C 445.925,473.75 411.092,502.75 359.5,511.5C 294.167,511.5 228.833,511.5 163.5,511.5C 114.411,502.92 80.2447,475.587 61,429.5C 51.7972,397.558 42.7972,365.558 34,333.5C 26.0985,331.713 17.9318,330.88 9.5,331C 0.525335,325.848 -1.97466,318.348 2,308.5C 3.76476,305.527 6.26476,303.36 9.5,302C 60.1667,301.333 110.833,301.333 161.5,302C 165.26,303.461 168.093,305.961 170,309.5C 180.919,326.339 192.085,343.006 203.5,359.5C 215.815,360.499 228.149,360.832 240.5,360.5C 240.5,340.167 240.5,319.833 240.5,299.5C 220.164,299.667 199.831,299.5 179.5,299C 177.667,297.833 175.833,296.667 174,295.5C 158.014,265.553 150.18,233.553 150.5,199.5C 144.048,199.916 137.715,199.416 131.5,198C 126.408,194.983 124.074,190.483 124.5,184.5C 124.074,178.517 126.408,174.017 131.5,171C 138.05,169.58 144.716,169.08 151.5,169.5C 154.066,140.503 159.899,112.17 169,84.5C 170.249,77.9339 173.749,73.1005 179.5,70C 199.831,69.5 220.164,69.3334 240.5,69.5C 240.333,49.1639 240.5,28.8306 241,8.5C 242.688,4.31481 245.521,1.31481 249.5,-0.5 Z M 270.5,29.5 C 278.507,29.3336 286.507,29.5003 294.5,30C 286.371,36.4604 278.537,43.2938 271,50.5C 270.5,43.5079 270.334,36.5079 270.5,29.5 Z M 196.5,99.5 C 209.184,99.1676 221.851,99.5009 234.5,100.5C 227.725,123.04 223.392,146.04 221.5,169.5C 208.5,169.5 195.5,169.5 182.5,169.5C 185.245,145.774 189.912,122.441 196.5,99.5 Z M 266.5,99.5 C 295.841,99.1668 325.174,99.5002 354.5,100.5C 347.043,122.905 342.71,145.905 341.5,169.5C 311.833,169.5 282.167,169.5 252.5,169.5C 255.245,145.774 259.912,122.441 266.5,99.5 Z M 181.5,199.5 C 194.5,199.5 207.5,199.5 220.5,199.5C 220.348,223.42 224.348,246.587 232.5,269C 220.153,269.833 207.82,269.666 195.5,268.5C 186.224,246.453 181.557,223.453 181.5,199.5 Z M 251.5,199.5 C 281.5,199.5 311.5,199.5 341.5,199.5C 342.71,223.095 347.043,246.095 354.5,268.5C 324.833,269.833 295.167,269.833 265.5,268.5C 256.224,246.453 251.557,223.453 251.5,199.5 Z M 65.5,332.5 C 92.6696,331.171 120.003,331.171 147.5,332.5C 159.862,350.363 172.029,368.363 184,386.5C 185.833,387.667 187.667,388.833 189.5,390C 233.5,390.667 277.5,390.667 321.5,390C 323.333,388.833 325.167,387.667 327,386.5C 335.833,375 344.667,363.5 353.5,352C 384.498,351.5 415.498,351.333 446.5,351.5C 443.118,371.909 439.285,392.242 435,412.5C 420.272,454.959 390.439,477.792 345.5,481C 289.833,481.667 234.167,481.667 178.5,481C 137.003,478.481 107.837,458.314 91,420.5C 82.5588,391.025 74.0588,361.691 65.5,332.5 Z"/></g>
</svg>
