<svg xmlns="http://www.w3.org/2000/svg" width="512" height="512" viewBox="0 0 512 512" version="1.1"><path d="" stroke="none" fill="#080404" fill-rule="evenodd"/><path d="M 248.241 1.995 C 246.448 3.088, 244.088 5.448, 242.995 7.241 C 241.130 10.300, 241.007 12.328, 241.004 40.250 L 241 70 211.148 70 C 181.857 70, 181.232 70.042, 177.898 72.251 C 176.029 73.490, 173.500 76.527, 172.277 79.001 C 166.699 90.290, 155.667 136.261, 152.898 159.750 L 151.691 170 143.595 170.004 C 137.282 170.007, 134.782 170.445, 132.241 171.995 C 122.582 177.884, 122.582 192.116, 132.241 198.005 C 134.736 199.527, 137.281 199.993, 143.098 199.996 L 150.695 200 151.346 211.389 C 152.576 232.924, 157.633 256.502, 165.098 275.500 C 170.416 289.035, 173.855 295.003, 177.898 297.718 C 181.247 299.967, 181.726 300, 211.148 300 L 241 300 241 330.500 L 241 361 222.692 361 L 204.385 361 185.942 333.774 C 173.832 315.895, 166.333 305.767, 164.102 304.274 L 160.704 302 86.102 302.004 C 13.425 302.007, 11.416 302.059, 8.241 303.995 C -1.131 309.709, -1.453 323.714, 7.651 329.696 C 9.772 331.089, 13.123 331.614, 22.368 332 L 34.340 332.500 47.107 378.444 C 61.473 430.143, 62.422 433.070, 68.760 445.204 C 86.551 479.267, 120.375 503.824, 158.710 510.509 C 171.990 512.825, 352.472 512.717, 366.047 510.385 C 383.270 507.427, 400.025 500.731, 414.583 490.988 C 425.443 483.721, 442.410 466.573, 449.421 455.781 C 461.342 437.432, 464.910 426.637, 472.488 386 C 475.513 369.775, 478.225 355.488, 478.514 354.250 C 479.017 352.089, 479.464 352, 489.769 351.996 C 501.880 351.992, 505.404 350.666, 509.005 344.759 C 513.166 337.935, 510.715 328.236, 503.759 323.995 C 500.579 322.056, 498.565 322.007, 420.898 322.004 L 341.296 322 337.984 324.250 C 336.162 325.488, 328.783 334.232, 321.586 343.683 L 308.500 360.866 289.750 360.933 L 271 361 271 330.500 L 271 300 326.250 299.996 C 379.617 299.993, 381.611 299.925, 384.759 298.005 C 389.078 295.372, 391.992 290.394, 391.996 285.640 C 391.998 283.517, 389.810 275.417, 387.134 267.640 C 381.147 250.242, 376.544 231.278, 374.528 215.699 C 372.332 198.735, 371.991 200.001, 378.750 199.996 C 388.594 199.990, 394.993 194.082, 394.993 185 C 394.993 175.918, 388.594 170.010, 378.750 170.004 C 371.991 169.999, 372.332 171.265, 374.528 154.301 C 376.544 138.722, 381.147 119.758, 387.134 102.360 C 392.450 86.912, 393.002 82.156, 390.044 77.304 C 385.803 70.348, 387.217 70.554, 339.851 70 L 297.112 69.500 322.166 47.593 C 335.946 35.544, 348.069 24.294, 349.106 22.593 C 353.164 15.939, 350.632 6.185, 343.759 1.995 C 340.636 0.090, 338.644 0.007, 296 0.007 C 253.356 0.007, 251.364 0.090, 248.241 1.995 M 271 40.674 L 271 51.349 273.250 49.373 C 274.488 48.286, 279.325 44.072, 284 40.008 C 288.675 35.944, 293.159 32.029, 293.964 31.309 C 295.181 30.222, 293.359 30, 283.214 30 L 271 30 271 40.674 M 194.076 111.379 C 190.240 125.230, 186.515 142.586, 184.501 155.990 C 182.136 171.742, 179.916 170, 202.345 170 L 221.691 170 222.911 159.750 C 224.416 147.115, 229.146 122.653, 232.496 110.178 C 233.873 105.051, 235 100.663, 235 100.428 C 235 100.193, 226.501 100, 216.114 100 L 197.228 100 194.076 111.379 M 264.076 111.379 C 259.054 129.510, 253 160.456, 253 167.993 C 253 169.972, 253.618 170, 297.420 170 L 341.841 170 342.502 163.250 C 344.371 144.162, 348.062 124.523, 352.979 107.503 C 354.090 103.655, 355 100.392, 355 100.253 C 355 100.114, 335.251 100, 311.114 100 L 267.228 100 264.076 111.379 M 182 206.466 C 182 220.957, 186.674 244.934, 192.727 261.500 L 195.650 269.500 214.162 269.771 L 232.673 270.043 229.435 258.771 C 225.346 244.533, 222.178 225.968, 221.343 211.350 L 220.695 200 201.348 200 L 182 200 182 206.466 M 252 206.466 C 252 220.958, 256.674 244.938, 262.728 261.500 L 265.652 269.500 310.326 269.760 C 334.897 269.903, 355 269.902, 355 269.757 C 355 269.612, 354.090 266.345, 352.979 262.497 C 348.062 245.477, 344.371 225.838, 342.502 206.750 L 341.841 200 296.920 200 L 252 200 252 206.466 M 66.498 333.250 C 66.737 333.938, 72.151 353.400, 78.528 376.500 C 91.381 423.058, 95.074 432.542, 105.304 445.268 C 119.327 462.713, 136.399 473.565, 158.813 479.284 C 167.479 481.495, 167.723 481.500, 261.500 481.500 C 360.891 481.500, 359.026 481.578, 374 476.796 C 400.295 468.399, 422.945 446.918, 433.002 420.839 C 434.915 415.878, 437.916 402.842, 441.481 384.008 C 444.517 367.974, 447 354.209, 447 353.418 C 447 352.184, 440.364 352.017, 400.296 352.240 L 353.592 352.500 340.466 369.500 C 333.247 378.850, 325.848 387.512, 324.023 388.750 L 320.704 391 256 391 L 191.296 391 187.898 388.726 C 185.667 387.233, 178.168 377.105, 166.058 359.226 L 147.615 332 106.839 332 C 74.653 332, 66.154 332.263, 66.498 333.250" stroke="none" fill="#040404" fill-rule="evenodd"/></svg>