<?xml version="1.0" encoding="UTF-8"?>
<!DOCTYPE svg PUBLIC "-//W3C//DTD SVG 1.1//EN" "http://www.w3.org/Graphics/SVG/1.1/DTD/svg11.dtd">
<svg xmlns="http://www.w3.org/2000/svg" version="1.1" width="512px" height="512px" style="shape-rendering:geometricPrecision; text-rendering:geometricPrecision; image-rendering:optimizeQuality; fill-rule:evenodd; clip-rule:evenodd" xmlns:xlink="http://www.w3.org/1999/xlink">
<g><path style="opacity:0.965" fill="#000000" d="M 73.5,-0.5 C 77.1667,-0.5 80.8333,-0.5 84.5,-0.5C 86.8682,0.782988 89.0349,2.44965 91,4.5C 98.2943,18.2548 105.461,32.0882 112.5,46C 127.062,52.8632 141.229,60.3632 155,68.5C 160.422,77.2912 159.255,85.1246 151.5,92C 138.5,98.5 125.5,105 112.5,111.5C 105.411,124.677 98.5779,138.01 92,151.5C 83.6263,160.382 74.9596,160.715 66,152.5C 59.2161,138.431 52.0494,124.598 44.5,111C 31.1667,104.333 17.8333,97.6667 4.5,91C 2.44965,89.0349 0.782988,86.8682 -0.5,84.5C -0.5,80.8333 -0.5,77.1667 -0.5,73.5C 0.847413,70.6337 2.84741,68.1337 5.5,66C 18.8333,59.3333 32.1667,52.6667 45.5,46C 52.4611,32.5778 59.2945,19.0778 66,5.5C 68.1337,2.84741 70.6337,0.847413 73.5,-0.5 Z M 78.5,49.5 C 81.8924,55.2804 85.0591,61.2804 88,67.5C 94.2529,71.7114 100.753,75.5447 107.5,79C 99.9162,82.037 93.0829,86.2037 87,91.5C 84.3333,96.8333 81.6667,102.167 79,107.5C 75.5447,100.753 71.7114,94.2529 67.5,88C 61.5,85 55.5,82 49.5,79C 53.9413,76.2277 58.608,73.8944 63.5,72C 70.85,66.1521 75.85,58.6521 78.5,49.5 Z"/></g>
<g><path style="opacity:0.962" fill="#000000" d="M 511.5,160.5 C 511.5,171.5 511.5,182.5 511.5,193.5C 502.08,258.07 468.414,305.237 410.5,335C 391.39,343.611 371.39,348.777 350.5,350.5C 342.971,421.479 306.638,470.979 241.5,499C 188.742,517.194 137.408,513.861 87.5,489C 35.0815,457.697 5.74818,411.53 -0.5,350.5C -0.5,339.167 -0.5,327.833 -0.5,316.5C 9.2839,252.41 42.9506,205.576 100.5,176C 119.58,167.251 139.58,162.084 160.5,160.5C 168.029,89.5206 204.362,40.0206 269.5,12C 325.318,-7.37034 378.985,-2.70367 430.5,26C 478.812,57.759 505.812,102.592 511.5,160.5 Z M 334.5,29.5 C 382.893,30.6142 422.06,49.9475 452,87.5C 481.042,131.128 487.376,177.794 471,227.5C 448.579,281.155 408.413,311.822 350.5,319.5C 343.519,258.739 313.852,212.906 261.5,182C 239.691,169.881 216.357,162.714 191.5,160.5C 199.741,102.097 231.075,61.5967 285.5,39C 301.518,33.4452 317.851,30.2786 334.5,29.5 Z M 156.5,191.5 C 157.833,191.5 159.167,191.5 160.5,191.5C 169.396,261.491 206.063,310.657 270.5,339C 286.289,345.198 302.623,349.031 319.5,350.5C 311.249,408.911 279.916,449.411 225.5,472C 172.296,489.021 123.629,480.355 79.5,446C 40.9068,408.89 25.4068,363.724 33,310.5C 43.7072,254.125 76.2072,216.625 130.5,198C 139.216,195.488 147.883,193.321 156.5,191.5 Z M 191.5,191.5 C 252.511,201.351 293.345,235.351 314,293.5C 316.411,302.053 318.244,310.72 319.5,319.5C 258.489,309.649 217.655,275.649 197,217.5C 194.589,208.947 192.756,200.28 191.5,191.5 Z"/></g>
<g><path style="opacity:0.964" fill="#000000" d="M 511.5,434.5 C 511.5,438.167 511.5,441.833 511.5,445.5C 509.434,449.403 506.434,452.57 502.5,455C 492.132,460.007 481.798,465.007 471.5,470C 465.872,480.755 460.372,491.589 455,502.5C 452.57,506.434 449.403,509.434 445.5,511.5C 441.833,511.5 438.167,511.5 434.5,511.5C 432.132,510.217 429.965,508.55 428,506.5C 422.089,494.343 415.922,482.343 409.5,470.5C 396.603,464.47 384.103,457.803 372,450.5C 366.578,441.709 367.745,433.875 375.5,427C 386.833,421.333 398.167,415.667 409.5,410C 415.461,398.578 421.294,387.078 427,375.5C 435.374,366.618 444.04,366.285 453,374.5C 458.911,386.657 465.078,398.657 471.5,410.5C 483.167,416.333 494.833,422.167 506.5,428C 508.55,429.965 510.217,432.132 511.5,434.5 Z M 439.5,419.5 C 442.44,424.528 445.774,429.361 449.5,434C 453.5,436 457.5,438 461.5,440C 457.167,442.5 452.833,445 448.5,447.5C 445.583,451.666 442.916,455.999 440.5,460.5C 437.537,455.406 434.204,450.572 430.5,446C 426.673,444.254 423.007,442.254 419.5,440C 424.242,437.88 428.742,435.38 433,432.5C 435.705,428.423 437.872,424.09 439.5,419.5 Z"/></g>
</svg>
