<?xml version="1.0" encoding="UTF-8"?>
<!DOCTYPE svg PUBLIC "-//W3C//DTD SVG 1.1//EN" "http://www.w3.org/Graphics/SVG/1.1/DTD/svg11.dtd">
<svg xmlns="http://www.w3.org/2000/svg" version="1.1" width="512px" height="512px" style="shape-rendering:geometricPrecision; text-rendering:geometricPrecision; image-rendering:optimizeQuality; fill-rule:evenodd; clip-rule:evenodd" xmlns:xlink="http://www.w3.org/1999/xlink">
<g><path style="opacity:0.985" fill="#000000" d="M 249.5,-0.5 C 253.5,-0.5 257.5,-0.5 261.5,-0.5C 283.384,20.8836 305.218,42.5502 327,64.5C 328,66.1667 329,67.8333 330,69.5C 330.333,90.8333 330.667,112.167 331,133.5C 340.385,189.142 349.552,244.809 358.5,300.5C 361.85,300.665 365.183,300.498 368.5,300C 377.863,290.303 387.53,280.97 397.5,272C 404.214,269.531 410.547,270.197 416.5,274C 448.45,305.782 480.116,337.616 511.5,369.5C 511.5,413.833 511.5,458.167 511.5,502.5C 510.196,503.987 509.03,505.654 508,507.5C 505.985,508.697 504.151,510.03 502.5,511.5C 337.833,511.5 173.167,511.5 8.5,511.5C 7.01307,510.196 5.3464,509.03 3.5,508C 2.30342,505.985 0.970083,504.151 -0.5,502.5C -0.5,458.167 -0.5,413.833 -0.5,369.5C 30.8838,337.616 62.5505,305.782 94.5,274C 100.453,270.197 106.786,269.531 113.5,272C 123.47,280.97 133.137,290.303 142.5,300C 145.817,300.498 149.15,300.665 152.5,300.5C 161.448,244.809 170.615,189.142 180,133.5C 180.333,112.167 180.667,90.8333 181,69.5C 182,67.8333 183,66.1667 184,64.5C 205.782,42.5502 227.616,20.8836 249.5,-0.5 Z M 254.5,37.5 C 262.912,44.4068 270.912,51.9068 278.5,60C 263.167,60.6667 247.833,60.6667 232.5,60C 240.036,52.6316 247.369,45.1316 254.5,37.5 Z M 210.5,90.5 C 220.5,90.5 230.5,90.5 240.5,90.5C 240.5,100.5 240.5,110.5 240.5,120.5C 230.5,120.5 220.5,120.5 210.5,120.5C 210.5,110.5 210.5,100.5 210.5,90.5 Z M 270.5,90.5 C 280.5,90.5 290.5,90.5 300.5,90.5C 300.5,100.5 300.5,110.5 300.5,120.5C 290.5,120.5 280.5,120.5 270.5,120.5C 270.5,110.5 270.5,100.5 270.5,90.5 Z M 208.5,150.5 C 239.833,150.5 271.167,150.5 302.5,150.5C 310.352,200.446 318.685,250.28 327.5,300C 279.5,300.667 231.5,300.667 183.5,300C 192.315,250.28 200.648,200.446 208.5,150.5 Z M 104.5,308.5 C 130.082,332.581 155.249,357.247 180,382.5C 180.5,415.498 180.667,448.498 180.5,481.5C 170.5,481.5 160.5,481.5 150.5,481.5C 150.667,464.497 150.5,447.497 150,430.5C 148.5,426.333 145.667,423.5 141.5,422C 117.5,421.333 93.5,421.333 69.5,422C 65.3333,423.5 62.5,426.333 61,430.5C 60.5001,447.497 60.3334,464.497 60.5,481.5C 50.1667,481.5 39.8333,481.5 29.5,481.5C 29.3334,448.498 29.5,415.498 30,382.5C 54.7283,357.605 79.5616,332.938 104.5,308.5 Z M 404.5,308.5 C 405.922,308.709 407.255,309.209 408.5,310C 432.667,334.167 456.833,358.333 481,382.5C 481.5,415.498 481.667,448.498 481.5,481.5C 471.167,481.5 460.833,481.5 450.5,481.5C 450.667,464.497 450.5,447.497 450,430.5C 448.5,426.333 445.667,423.5 441.5,422C 417.5,421.333 393.5,421.333 369.5,422C 365.333,423.5 362.5,426.333 361,430.5C 360.5,447.497 360.333,464.497 360.5,481.5C 350.5,481.5 340.5,481.5 330.5,481.5C 330.333,448.498 330.5,415.498 331,382.5C 355.702,357.965 380.202,333.299 404.5,308.5 Z M 173.5,331.5 C 227.998,330.335 282.665,330.168 337.5,331C 327.833,340.667 318.167,350.333 308.5,360C 273.167,360.667 237.833,360.667 202.5,360C 192.965,350.298 183.298,340.798 173.5,331.5 Z M 210.5,390.5 C 240.5,390.5 270.5,390.5 300.5,390.5C 300.5,420.833 300.5,451.167 300.5,481.5C 270.5,481.5 240.5,481.5 210.5,481.5C 210.5,451.167 210.5,420.833 210.5,390.5 Z M 90.5,451.5 C 100.5,451.5 110.5,451.5 120.5,451.5C 120.5,461.5 120.5,471.5 120.5,481.5C 110.5,481.5 100.5,481.5 90.5,481.5C 90.5,471.5 90.5,461.5 90.5,451.5 Z M 390.5,451.5 C 400.5,451.5 410.5,451.5 420.5,451.5C 420.5,461.5 420.5,471.5 420.5,481.5C 410.5,481.5 400.5,481.5 390.5,481.5C 390.5,471.5 390.5,461.5 390.5,451.5 Z"/></g>
<g><path style="opacity:0.951" fill="#000000" d="M 69.5,30.5 C 73.5138,30.3345 77.5138,30.5012 81.5,31C 103.323,41.7444 124.989,52.7444 146.5,64C 151.628,71.3754 151.794,78.8754 147,86.5C 141.795,90.3188 135.962,91.4855 129.5,90C 107.677,79.2556 86.0108,68.2556 64.5,57C 59.3722,49.6246 59.2055,42.1246 64,34.5C 66.0153,33.3034 67.8487,31.9701 69.5,30.5 Z"/></g>
<g><path style="opacity:0.951" fill="#000000" d="M 429.5,30.5 C 445.654,28.4866 452.487,35.4866 450,51.5C 448.833,53.3333 447.667,55.1667 446.5,57C 424.989,68.2556 403.323,79.2556 381.5,90C 365.333,92.5 358.5,85.6667 361,69.5C 362.167,67.6667 363.333,65.8333 364.5,64C 386.228,52.8037 407.894,41.637 429.5,30.5 Z"/></g>
<g><path style="opacity:0.951" fill="#000000" d="M 129.5,120.5 C 145.654,118.487 152.487,125.487 150,141.5C 148.833,143.333 147.667,145.167 146.5,147C 124.989,158.256 103.323,169.256 81.5,180C 65.3333,182.5 58.5,175.667 61,159.5C 62.1667,157.667 63.3333,155.833 64.5,154C 86.2278,142.804 107.894,131.637 129.5,120.5 Z"/></g>
<g><path style="opacity:0.951" fill="#000000" d="M 369.5,120.5 C 373.514,120.334 377.514,120.501 381.5,121C 403.323,131.744 424.989,142.744 446.5,154C 451.628,161.375 451.794,168.875 447,176.5C 441.795,180.319 435.962,181.486 429.5,180C 407.677,169.256 386.011,158.256 364.5,147C 359.372,139.625 359.206,132.125 364,124.5C 366.015,123.303 367.849,121.97 369.5,120.5 Z"/></g>
<g><path style="opacity:0.968" fill="#000000" d="M 234.5,180.5 C 248.504,180.333 262.504,180.5 276.5,181C 284.915,185.348 287.748,192.181 285,201.5C 283.5,205.667 280.667,208.5 276.5,210C 262.5,210.667 248.5,210.667 234.5,210C 225.525,204.848 223.025,197.348 227,187.5C 229.015,184.588 231.515,182.255 234.5,180.5 Z"/></g>
<g><path style="opacity:0.968" fill="#000000" d="M 234.5,240.5 C 248.504,240.333 262.504,240.5 276.5,241C 284.915,245.348 287.748,252.181 285,261.5C 283.5,265.667 280.667,268.5 276.5,270C 262.5,270.667 248.5,270.667 234.5,270C 225.525,264.848 223.025,257.348 227,247.5C 229.015,244.588 231.515,242.255 234.5,240.5 Z"/></g>
</svg>
