<?xml version="1.0" encoding="UTF-8"?>
<!DOCTYPE svg PUBLIC "-//W3C//DTD SVG 1.1//EN" "http://www.w3.org/Graphics/SVG/1.1/DTD/svg11.dtd">
<svg xmlns="http://www.w3.org/2000/svg" version="1.1" width="512px" height="512px" style="shape-rendering:geometricPrecision; text-rendering:geometricPrecision; image-rendering:optimizeQuality; fill-rule:evenodd; clip-rule:evenodd" xmlns:xlink="http://www.w3.org/1999/xlink">
<g><path style="opacity:0.968" fill="#000000" d="M 63.5,-0.5 C 69.8333,-0.5 76.1667,-0.5 82.5,-0.5C 108.475,8.01007 120.308,26.0101 118,53.5C 133.014,68.6807 148.181,83.6807 163.5,98.5C 212.252,68.29 263.586,63.1234 317.5,83C 327.438,86.9675 336.771,91.9675 345.5,98C 346.5,98.6667 347.5,98.6667 348.5,98C 363.333,83.1667 378.167,68.3333 393,53.5C 390.659,26.0347 402.492,8.03466 428.5,-0.5C 434.833,-0.5 441.167,-0.5 447.5,-0.5C 464.016,3.45349 475.35,13.4535 481.5,29.5C 497.549,35.6613 507.549,46.9946 511.5,63.5C 511.5,69.8333 511.5,76.1667 511.5,82.5C 502.99,108.475 484.99,120.308 457.5,118C 440.319,135.014 423.319,152.181 406.5,169.5C 421.677,204.777 424.677,241.11 415.5,278.5C 441.53,299.472 447.363,325.139 433,355.5C 431.167,358 429.333,360.5 427.5,363C 437.5,373 447.5,383 457.5,393C 484.99,390.692 502.99,402.525 511.5,428.5C 511.5,434.833 511.5,441.167 511.5,447.5C 507.627,464.034 497.627,475.2 481.5,481C 475.616,497.391 464.282,507.558 447.5,511.5C 441.167,511.5 434.833,511.5 428.5,511.5C 402.492,502.965 390.659,484.965 393,457.5C 381.333,445.833 369.667,434.167 358,422.5C 352.704,431.897 344.87,438.064 334.5,441C 281.833,441.667 229.167,441.667 176.5,441C 166.13,438.064 158.296,431.897 153,422.5C 141.333,434.167 129.667,445.833 118,457.5C 120.308,484.99 108.475,502.99 82.5,511.5C 76.1667,511.5 69.8333,511.5 63.5,511.5C 46.9946,507.549 35.6613,497.549 29.5,481.5C 13.4535,475.35 3.45349,464.016 -0.5,447.5C -0.5,441.167 -0.5,434.833 -0.5,428.5C 8.03466,402.492 26.0347,390.659 53.5,393C 63.5,383 73.5,373 83.5,363C 72.2433,349.478 68.0766,333.978 71,316.5C 72.8472,306.808 76.8472,298.141 83,290.5C 87.068,286.263 91.2347,282.263 95.5,278.5C 88.7037,249.462 88.8703,220.462 96,191.5C 98.2489,183.75 101.082,176.25 104.5,169C 87.5,152 70.5,135 53.5,118C 26.0101,120.308 8.01007,108.475 -0.5,82.5C -0.5,76.1667 -0.5,69.8333 -0.5,63.5C 3.43739,47.5083 13.1041,36.3416 28.5,30C 33.1633,19.6546 40.1633,11.3213 49.5,5C 54.1587,2.84209 58.8254,1.00876 63.5,-0.5 Z M 67.5,30.5 C 78.7142,28.7675 85.3809,33.4341 87.5,44.5C 83.9278,51.8336 83.7612,59.1669 87,66.5C 104.347,83.6805 121.514,101.014 138.5,118.5C 132.145,125.687 125.979,133.02 120,140.5C 102.167,122.667 84.3333,104.833 66.5,87C 63.7946,85.1285 60.7946,84.2952 57.5,84.5C 52.4622,85.4668 47.4622,86.3001 42.5,87C 31.6537,83.4735 28.1537,76.3068 32,65.5C 33.5,64 35,62.5 36.5,61C 42.4249,59.4604 48.0916,57.2937 53.5,54.5C 54.8613,52.9716 56.028,51.3049 57,49.5C 57.4104,41.3367 60.9104,35.0033 67.5,30.5 Z M 433.5,30.5 C 440.331,29.0514 445.831,31.0514 450,36.5C 451.54,42.4249 453.706,48.0916 456.5,53.5C 458.028,54.8613 459.695,56.028 461.5,57C 468.594,57.2973 474.427,60.1306 479,65.5C 482.846,76.3068 479.346,83.4735 468.5,87C 463.538,86.3001 458.538,85.4668 453.5,84.5C 450.205,84.2952 447.205,85.1285 444.5,87C 426.653,105.014 408.653,122.847 390.5,140.5C 384.381,133.21 378.048,126.044 371.5,119C 389,101.5 406.5,84 424,66.5C 427.239,59.1669 427.072,51.8336 423.5,44.5C 424.401,38.0088 427.735,33.3421 433.5,30.5 Z M 254.5,101.5 C 307.576,103.938 347.41,127.938 374,173.5C 391.99,209.479 394.323,246.479 381,284.5C 380.085,290.091 381.419,295.091 385,299.5C 390.606,302.145 396.106,304.979 401.5,308C 411.167,318.835 412,330.335 404,342.5C 398.567,347.649 392.067,350.482 384.5,351C 369.5,351.333 354.5,351.667 339.5,352C 335.333,353.5 332.5,356.333 331,360.5C 330.956,376.9 330.289,393.233 329,409.5C 327.933,410.191 326.766,410.691 325.5,411C 317.173,411.5 308.84,411.666 300.5,411.5C 300.666,401.161 300.5,390.828 300,380.5C 294.848,371.525 287.348,369.025 277.5,373C 274.527,374.765 272.36,377.265 271,380.5C 270.5,390.828 270.334,401.161 270.5,411.5C 260.5,411.5 250.5,411.5 240.5,411.5C 240.666,401.161 240.5,390.828 240,380.5C 234.848,371.525 227.348,369.025 217.5,373C 214.527,374.765 212.36,377.265 211,380.5C 210.5,390.828 210.334,401.161 210.5,411.5C 202.16,411.666 193.827,411.5 185.5,411C 184.234,410.691 183.067,410.191 182,409.5C 180.711,393.233 180.044,376.9 180,360.5C 178.5,356.333 175.667,353.5 171.5,352C 156.5,351.667 141.5,351.333 126.5,351C 107.906,348.655 99.7391,338.155 102,319.5C 104.194,313.926 107.694,309.426 112.5,306C 117.088,304.306 121.421,302.14 125.5,299.5C 129.523,295.265 131.023,290.265 130,284.5C 110.89,225.434 124.057,174.934 169.5,133C 194.302,112.93 222.636,102.43 254.5,101.5 Z M 190.5,202.5 C 204.652,201.151 210.819,207.485 209,221.5C 203.135,231.246 195.301,233.08 185.5,227C 178.906,217.014 180.573,208.848 190.5,202.5 Z M 310.5,202.5 C 324.652,201.151 330.819,207.485 329,221.5C 323.135,231.246 315.301,233.08 305.5,227C 298.906,217.014 300.573,208.848 310.5,202.5 Z M 110.5,379.5 C 112.414,380.185 114.414,380.685 116.5,381C 127.5,381.333 138.5,381.667 149.5,382C 128.667,402.833 107.833,423.667 87,444.5C 83.7612,451.833 83.9278,459.166 87.5,466.5C 85.3892,477.723 78.7225,482.223 67.5,480C 60.7802,475.734 57.2802,469.567 57,461.5C 56.028,459.695 54.8613,458.028 53.5,456.5C 48.0916,453.706 42.4249,451.54 36.5,450C 29.9296,444.175 28.7629,437.342 33,429.5C 36.0311,425.97 39.8644,423.97 44.5,423.5C 51.8336,427.072 59.1669,427.239 66.5,424C 81.3685,409.299 96.0352,394.465 110.5,379.5 Z M 399.5,379.5 C 414.632,394.131 429.632,408.965 444.5,424C 451.833,427.239 459.166,427.072 466.5,423.5C 478.692,426.214 482.859,433.548 479,445.5C 477.5,447 476,448.5 474.5,450C 468.575,451.54 462.908,453.706 457.5,456.5C 456.139,458.028 454.972,459.695 454,461.5C 453.72,469.567 450.22,475.734 443.5,480C 432.277,482.223 425.611,477.723 423.5,466.5C 427.072,459.166 427.239,451.833 424,444.5C 403.167,423.667 382.333,402.833 361.5,382C 372.5,381.667 383.5,381.333 394.5,381C 396.382,380.802 398.048,380.302 399.5,379.5 Z"/></g>
<g><path style="opacity:0.962" fill="#000000" d="M 185.5,171.5 C 208.793,168.396 225.959,177.062 237,197.5C 245.029,218.545 240.862,236.712 224.5,252C 207.989,263.094 190.656,264.427 172.5,256C 149.914,239.83 144.414,218.997 156,193.5C 163.172,182.481 173.005,175.148 185.5,171.5 Z M 190.5,202.5 C 180.573,208.848 178.906,217.014 185.5,227C 195.301,233.08 203.135,231.246 209,221.5C 210.819,207.485 204.652,201.151 190.5,202.5 Z"/></g>
<g><path style="opacity:0.962" fill="#000000" d="M 305.5,171.5 C 328.793,168.396 345.959,177.062 357,197.5C 365.029,218.545 360.862,236.712 344.5,252C 327.989,263.094 310.656,264.427 292.5,256C 269.914,239.83 264.414,218.997 276,193.5C 283.172,182.481 293.005,175.148 305.5,171.5 Z M 310.5,202.5 C 300.573,208.848 298.906,217.014 305.5,227C 315.301,233.08 323.135,231.246 329,221.5C 330.819,207.485 324.652,201.151 310.5,202.5 Z"/></g>
<g><path style="opacity:0.957" fill="#000000" d="M 249.5,271.5 C 255.675,270.643 261.342,271.81 266.5,275C 277.667,290.167 288.833,305.333 300,320.5C 301.908,337.801 294.408,344.301 277.5,340C 276.421,339.044 275.255,338.211 274,337.5C 268.064,329.281 261.897,321.281 255.5,313.5C 249.103,321.281 242.936,329.281 237,337.5C 229.333,342.833 221.667,342.833 214,337.5C 210.197,331.547 209.531,325.214 212,318.5C 222.91,304.345 233.577,290.012 244,275.5C 246.015,274.303 247.849,272.97 249.5,271.5 Z"/></g>
</svg>
