<?xml version="1.0" encoding="UTF-8"?>
<!DOCTYPE svg PUBLIC "-//W3C//DTD SVG 1.1//EN" "http://www.w3.org/Graphics/SVG/1.1/DTD/svg11.dtd">
<svg xmlns="http://www.w3.org/2000/svg" version="1.1" width="512px" height="512px" style="shape-rendering:geometricPrecision; text-rendering:geometricPrecision; image-rendering:optimizeQuality; fill-rule:evenodd; clip-rule:evenodd" xmlns:xlink="http://www.w3.org/1999/xlink">
<g><path style="opacity:0.988" fill="#000000" d="M 189.5,-0.5 C 193.5,-0.5 197.5,-0.5 201.5,-0.5C 252.034,15.398 302.701,31.2314 353.5,47C 356.473,48.7648 358.64,51.2648 360,54.5C 360.5,66.4954 360.667,78.4954 360.5,90.5C 370.167,90.5 379.833,90.5 389.5,90.5C 389.073,73.4519 389.573,56.4519 391,39.5C 396.152,30.5253 403.652,28.0253 413.5,32C 416.473,33.7648 418.64,36.2648 420,39.5C 420.5,56.4967 420.667,73.4967 420.5,90.5C 437.503,90.3334 454.503,90.5001 471.5,91C 474.616,92.4488 477.116,94.6155 479,97.5C 480.485,145.107 480.985,192.773 480.5,240.5C 487.841,240.334 495.174,240.5 502.5,241C 506.685,242.688 509.685,245.521 511.5,249.5C 511.5,333.833 511.5,418.167 511.5,502.5C 510.196,503.987 509.03,505.654 508,507.5C 505.985,508.697 504.151,510.03 502.5,511.5C 337.833,511.5 173.167,511.5 8.5,511.5C 7.01307,510.196 5.3464,509.03 3.5,508C 2.30342,505.985 0.970083,504.151 -0.5,502.5C -0.5,368.167 -0.5,233.833 -0.5,99.5C 1.31481,95.5212 4.31481,92.6878 8.5,91C 65.8324,90.5 123.166,90.3333 180.5,90.5C 180.333,63.1646 180.5,35.8313 181,8.5C 182.688,4.31481 185.521,1.31481 189.5,-0.5 Z M 210.5,35.5 C 250.194,47.508 289.861,59.6747 329.5,72C 330.491,88.0891 330.825,104.256 330.5,120.5C 290.5,120.5 250.5,120.5 210.5,120.5C 210.5,92.1667 210.5,63.8333 210.5,35.5 Z M 30.5,120.5 C 80.5,120.5 130.5,120.5 180.5,120.5C 180.5,240.833 180.5,361.167 180.5,481.5C 170.833,481.5 161.167,481.5 151.5,481.5C 155.073,461.929 150.073,445.096 136.5,431C 120.374,419.374 103.041,417.374 84.5,425C 72.1114,432.061 64.278,442.561 61,456.5C 60.5003,464.827 60.3336,473.16 60.5,481.5C 50.5,481.5 40.5,481.5 30.5,481.5C 30.5,361.167 30.5,240.833 30.5,120.5 Z M 360.5,120.5 C 390.167,120.5 419.833,120.5 449.5,120.5C 449.5,160.5 449.5,200.5 449.5,240.5C 439.833,240.5 430.167,240.5 420.5,240.5C 420.666,233.492 420.5,226.492 420,219.5C 414.848,210.525 407.348,208.025 397.5,212C 395,213.167 393.167,215 392,217.5C 390.568,225.054 390.068,232.721 390.5,240.5C 380.5,240.5 370.5,240.5 360.5,240.5C 360.5,200.5 360.5,160.5 360.5,120.5 Z M 210.5,150.5 C 250.5,150.5 290.5,150.5 330.5,150.5C 330.5,160.5 330.5,170.5 330.5,180.5C 290.5,180.5 250.5,180.5 210.5,180.5C 210.5,170.5 210.5,160.5 210.5,150.5 Z M 210.5,210.5 C 250.5,210.5 290.5,210.5 330.5,210.5C 330.5,220.5 330.5,230.5 330.5,240.5C 290.5,240.5 250.5,240.5 210.5,240.5C 210.5,230.5 210.5,220.5 210.5,210.5 Z M 210.5,270.5 C 240.5,270.5 270.5,270.5 300.5,270.5C 300.5,280.5 300.5,290.5 300.5,300.5C 270.5,300.5 240.5,300.5 210.5,300.5C 210.5,290.5 210.5,280.5 210.5,270.5 Z M 330.5,270.5 C 380.5,270.5 430.5,270.5 480.5,270.5C 480.5,340.833 480.5,411.167 480.5,481.5C 460.5,481.5 440.5,481.5 420.5,481.5C 420.666,474.159 420.5,466.826 420,459.5C 414.848,450.525 407.348,448.025 397.5,452C 392.548,455.066 390.048,459.566 390,465.5C 389.501,470.823 389.334,476.156 389.5,481.5C 369.833,481.5 350.167,481.5 330.5,481.5C 330.5,411.167 330.5,340.833 330.5,270.5 Z M 210.5,330.5 C 240.5,330.5 270.5,330.5 300.5,330.5C 300.5,340.5 300.5,350.5 300.5,360.5C 270.5,360.5 240.5,360.5 210.5,360.5C 210.5,350.5 210.5,340.5 210.5,330.5 Z M 210.5,390.5 C 240.5,390.5 270.5,390.5 300.5,390.5C 300.5,400.5 300.5,410.5 300.5,420.5C 270.5,420.5 240.5,420.5 210.5,420.5C 210.5,410.5 210.5,400.5 210.5,390.5 Z M 105.5,450.5 C 114.561,452.061 119.728,457.394 121,466.5C 121.499,471.489 121.666,476.489 121.5,481.5C 111.5,481.5 101.5,481.5 91.5,481.5C 91.3337,474.492 91.5004,467.492 92,460.5C 95.033,454.939 99.533,451.606 105.5,450.5 Z M 210.5,451.5 C 240.5,451.5 270.5,451.5 300.5,451.5C 300.5,461.5 300.5,471.5 300.5,481.5C 270.5,481.5 240.5,481.5 210.5,481.5C 210.5,471.5 210.5,461.5 210.5,451.5 Z"/></g>
<g><path style="opacity:0.964" fill="#000000" d="M 69.5,150.5 C 78.822,148.251 85.6553,151.251 90,159.5C 90.3333,161.5 90.6667,163.5 91,165.5C 91.6667,235.5 91.6667,305.5 91,375.5C 88.6233,389.113 80.79,393.613 67.5,389C 64.527,387.235 62.3604,384.735 61,381.5C 60.3333,307.5 60.3333,233.5 61,159.5C 62.6878,155.315 65.5212,152.315 69.5,150.5 Z"/></g>
<g><path style="opacity:0.993" fill="#000000" d="M 129.5,150.5 C 138.822,148.251 145.655,151.251 150,159.5C 150.667,233.5 150.667,307.5 150,381.5C 144.848,390.475 137.348,392.975 127.5,389C 124.527,387.235 122.36,384.735 121,381.5C 120.333,307.5 120.333,233.5 121,159.5C 122.688,155.315 125.521,152.315 129.5,150.5 Z"/></g>
<g><path style="opacity:0.941" fill="#000000" d="M 399.5,150.5 C 408.822,148.251 415.655,151.251 420,159.5C 420.667,166.833 420.667,174.167 420,181.5C 415.652,189.915 408.819,192.748 399.5,190C 391.854,185.878 388.52,179.378 389.5,170.5C 388.653,161.527 391.986,154.86 399.5,150.5 Z"/></g>
<g><path style="opacity:0.941" fill="#000000" d="M 369.5,290.5 C 378.822,288.251 385.655,291.251 390,299.5C 390.667,306.833 390.667,314.167 390,321.5C 385.652,329.915 378.819,332.748 369.5,330C 361.854,325.878 358.52,319.378 359.5,310.5C 358.653,301.527 361.986,294.86 369.5,290.5 Z"/></g>
<g><path style="opacity:0.941" fill="#000000" d="M 429.5,290.5 C 438.822,288.251 445.655,291.251 450,299.5C 450.667,306.833 450.667,314.167 450,321.5C 445.652,329.915 438.819,332.748 429.5,330C 421.854,325.878 418.52,319.378 419.5,310.5C 418.653,301.527 421.986,294.86 429.5,290.5 Z"/></g>
<g><path style="opacity:0.941" fill="#000000" d="M 369.5,350.5 C 378.822,348.251 385.655,351.251 390,359.5C 390.667,366.833 390.667,374.167 390,381.5C 385.652,389.915 378.819,392.748 369.5,390C 361.854,385.878 358.52,379.378 359.5,370.5C 358.653,361.527 361.986,354.86 369.5,350.5 Z"/></g>
<g><path style="opacity:0.941" fill="#000000" d="M 429.5,350.5 C 438.822,348.251 445.655,351.251 450,359.5C 450.667,366.833 450.667,374.167 450,381.5C 445.652,389.915 438.819,392.748 429.5,390C 421.854,385.878 418.52,379.378 419.5,370.5C 418.653,361.527 421.986,354.86 429.5,350.5 Z"/></g>
<g><path style="opacity:0.941" fill="#000000" d="M 369.5,410.5 C 378.822,408.251 385.655,411.251 390,419.5C 390.667,426.833 390.667,434.167 390,441.5C 385.652,449.915 378.819,452.748 369.5,450C 361.854,445.878 358.52,439.378 359.5,430.5C 358.653,421.527 361.986,414.86 369.5,410.5 Z"/></g>
<g><path style="opacity:0.941" fill="#000000" d="M 429.5,410.5 C 438.822,408.251 445.655,411.251 450,419.5C 450.667,426.833 450.667,434.167 450,441.5C 445.652,449.915 438.819,452.748 429.5,450C 421.854,445.878 418.52,439.378 419.5,430.5C 418.653,421.527 421.986,414.86 429.5,410.5 Z"/></g>
</svg>
