<svg xmlns="http://www.w3.org/2000/svg" width="512" height="512" viewBox="0 0 512 512" version="1.1"><path d="" stroke="none" fill="#080404" fill-rule="evenodd"/><path d="M 188.241 1.995 C 186.448 3.088, 184.088 5.448, 182.995 7.241 C 181.099 10.350, 181.007 12.351, 181.004 50.750 L 181 91 95.750 91.004 C 12.448 91.007, 10.426 91.053, 7.241 92.995 C 5.448 94.088, 3.088 96.448, 1.995 98.241 C 0.029 101.464, 0.007 103.692, 0.007 301.500 C 0.007 499.308, 0.029 501.536, 1.995 504.759 C 3.088 506.552, 5.448 508.912, 7.241 510.005 C 10.470 511.974, 12.790 511.993, 256 511.993 C 498.071 511.993, 501.545 511.965, 504.715 510.033 C 506.483 508.954, 509.070 506.265, 510.465 504.056 L 513 500.040 512.756 299.770 C 512.622 189.621, 512.394 133.700, 512.249 175.500 L 511.985 251.500 510.002 248.241 C 506.448 242.401, 502.838 241.008, 491.250 241.004 L 481 241 480.996 171.250 C 480.993 103.414, 480.938 101.411, 479.005 98.241 C 477.912 96.448, 475.552 94.088, 473.759 92.995 C 470.739 91.153, 468.683 91.007, 445.750 91.004 L 421 91 420.996 66.250 C 420.993 43.317, 420.847 41.261, 419.005 38.241 C 413.116 28.582, 398.884 28.582, 392.995 38.241 C 391.153 41.261, 391.007 43.317, 391.004 66.250 L 391 91 376 91 L 361 91 360.996 73.750 C 360.992 54.884, 360.307 52.213, 354.491 48.402 C 350.440 45.748, 200.177 -0.001, 195.524 0.004 C 193.275 0.006, 190.063 0.884, 188.241 1.995 M 211 78.427 L 211 121 271 121 L 331 121 331 96.729 L 331 72.458 272.376 54.479 C 240.133 44.591, 213.133 36.355, 212.376 36.177 C 211.224 35.906, 211 42.795, 211 78.427 M 0.490 301.500 C 0.490 412.050, 0.607 457.423, 0.750 402.330 C 0.893 347.236, 0.893 256.786, 0.750 201.330 C 0.607 145.873, 0.490 190.950, 0.490 301.500 M 30 301.500 L 30 482 45.500 482 L 61 482 61 470.589 C 61 453.033, 64.727 443.277, 75.227 433.346 C 85.030 424.075, 95.215 420.470, 109.440 421.234 C 120.916 421.852, 129.440 425.466, 137.584 433.168 C 148.284 443.288, 152 452.933, 152 470.589 L 152 482 166.500 482 L 181 482 181 301.500 L 181 121 105.500 121 L 30 121 30 301.500 M 361 181 L 361 241 376 241 L 391 241 391.004 231.250 C 391.007 223.286, 391.371 220.903, 392.995 218.241 C 398.884 208.582, 413.116 208.582, 419.005 218.241 C 420.629 220.903, 420.993 223.286, 420.996 231.250 L 421 241 436 241 L 451 241 451 181 L 451 121 406 121 L 361 121 361 181 M 68.241 152.995 C 66.448 154.088, 64.088 156.448, 62.995 158.241 C 61.044 161.441, 61.007 163.497, 61.007 271 C 61.007 378.503, 61.044 380.559, 62.995 383.759 C 68.884 393.418, 83.116 393.418, 89.005 383.759 C 90.956 380.559, 90.993 378.503, 90.993 271 C 90.993 163.497, 90.956 161.441, 89.005 158.241 C 84.764 151.285, 75.065 148.834, 68.241 152.995 M 128.241 152.995 C 126.448 154.088, 124.088 156.448, 122.995 158.241 C 121.044 161.441, 121.007 163.497, 121.007 271 C 121.007 378.503, 121.044 380.559, 122.995 383.759 C 128.884 393.418, 143.116 393.418, 149.005 383.759 C 150.956 380.559, 150.993 378.503, 150.993 271 C 150.993 163.497, 150.956 161.441, 149.005 158.241 C 144.764 151.285, 135.065 148.834, 128.241 152.995 M 211 166 L 211 181 271 181 L 331 181 331 166 L 331 151 271 151 L 211 151 211 166 M 398.241 152.995 C 392.510 156.489, 391.007 160.228, 391.007 171 C 391.007 178.719, 391.380 181.111, 392.995 183.759 C 398.884 193.418, 413.116 193.418, 419.005 183.759 C 421.886 179.035, 421.886 162.965, 419.005 158.241 C 414.764 151.285, 405.065 148.834, 398.241 152.995 M 211 226 L 211 241 271 241 L 331 241 331 226 L 331 211 271 211 L 211 211 211 226 M 211 286 L 211 301 256 301 L 301 301 301 286 L 301 271 256 271 L 211 271 211 286 M 331 376.500 L 331 482 361 482 L 391 482 391.004 471.750 C 391.007 463.287, 391.354 460.932, 392.995 458.241 C 398.884 448.582, 413.116 448.582, 419.005 458.241 C 420.646 460.932, 420.993 463.287, 420.996 471.750 L 421 482 451.500 482 L 482 482 482 376.500 L 482 271 406.500 271 L 331 271 331 376.500 M 368.241 292.995 C 362.510 296.489, 361.007 300.228, 361.007 311 C 361.007 321.772, 362.510 325.511, 368.241 329.005 C 375.065 333.166, 384.764 330.715, 389.005 323.759 C 391.886 319.035, 391.886 302.965, 389.005 298.241 C 386.227 293.683, 381.416 291.007, 376 291.007 C 373.270 291.007, 370.218 291.789, 368.241 292.995 M 428.241 292.995 C 422.510 296.489, 421.007 300.228, 421.007 311 C 421.007 321.772, 422.510 325.511, 428.241 329.005 C 435.065 333.166, 444.764 330.715, 449.005 323.759 C 451.886 319.035, 451.886 302.965, 449.005 298.241 C 446.227 293.683, 441.416 291.007, 436 291.007 C 433.270 291.007, 430.218 291.789, 428.241 292.995 M 211 346 L 211 361 256 361 L 301 361 301 346 L 301 331 256 331 L 211 331 211 346 M 368.241 352.995 C 362.510 356.489, 361.007 360.228, 361.007 371 C 361.007 381.772, 362.510 385.511, 368.241 389.005 C 375.065 393.166, 384.764 390.715, 389.005 383.759 C 391.886 379.035, 391.886 362.965, 389.005 358.241 C 386.227 353.683, 381.416 351.007, 376 351.007 C 373.270 351.007, 370.218 351.789, 368.241 352.995 M 428.241 352.995 C 422.510 356.489, 421.007 360.228, 421.007 371 C 421.007 381.772, 422.510 385.511, 428.241 389.005 C 435.065 393.166, 444.764 390.715, 449.005 383.759 C 451.886 379.035, 451.886 362.965, 449.005 358.241 C 446.227 353.683, 441.416 351.007, 436 351.007 C 433.270 351.007, 430.218 351.789, 428.241 352.995 M 211 406 L 211 421 256 421 L 301 421 301 406 L 301 391 256 391 L 211 391 211 406 M 368.241 412.995 C 362.510 416.489, 361.007 420.228, 361.007 431 C 361.007 441.772, 362.510 445.511, 368.241 449.005 C 375.065 453.166, 384.764 450.715, 389.005 443.759 C 391.886 439.035, 391.886 422.965, 389.005 418.241 C 386.227 413.683, 381.416 411.007, 376 411.007 C 373.270 411.007, 370.218 411.789, 368.241 412.995 M 428.241 412.995 C 422.510 416.489, 421.007 420.228, 421.007 431 C 421.007 441.772, 422.510 445.511, 428.241 449.005 C 435.065 453.166, 444.764 450.715, 449.005 443.759 C 451.886 439.035, 451.886 422.965, 449.005 418.241 C 446.227 413.683, 441.416 411.007, 436 411.007 C 433.270 411.007, 430.218 411.789, 428.241 412.995 M 101.500 452.491 C 93.805 455.236, 91.015 461.021, 91.006 474.250 L 91 482 106.616 482 L 122.233 482 121.840 472.225 C 121.540 464.757, 120.973 461.639, 119.438 459.011 C 115.814 452.805, 108.289 450.070, 101.500 452.491 M 211 467 L 211 482 256 482 L 301 482 301 467 L 301 452 256 452 L 211 452 211 467" stroke="none" fill="#040404" fill-rule="evenodd"/></svg>