<?xml version="1.0" encoding="UTF-8"?>
<!DOCTYPE svg PUBLIC "-//W3C//DTD SVG 1.1//EN" "http://www.w3.org/Graphics/SVG/1.1/DTD/svg11.dtd">
<svg xmlns="http://www.w3.org/2000/svg" version="1.1" width="512px" height="512px" style="shape-rendering:geometricPrecision; text-rendering:geometricPrecision; image-rendering:optimizeQuality; fill-rule:evenodd; clip-rule:evenodd" xmlns:xlink="http://www.w3.org/1999/xlink">
<g><path style="opacity:0.97" fill="#000000" d="M 231.5,-0.5 C 248.167,-0.5 264.833,-0.5 281.5,-0.5C 322.788,11.1282 347.454,38.1282 355.5,80.5C 377.159,81.3331 398.826,81.8331 420.5,82C 424.667,83.5 427.5,86.3333 429,90.5C 429.717,96.2247 429.384,101.891 428,107.5C 421.872,134.471 415.872,161.471 410,188.5C 408.874,194.268 405.707,198.435 400.5,201C 384.167,201.333 367.833,201.667 351.5,202C 363.564,209.356 376.564,214.356 390.5,217C 413.855,217.954 437.188,218.954 460.5,220C 477.612,226.715 484.446,239.215 481,257.5C 479.527,261.779 477.527,265.779 475,269.5C 455.478,286.599 436.145,303.932 417,321.5C 393.295,350.678 385.628,383.678 394,420.5C 399.667,438.167 405.333,455.833 411,473.5C 413.359,491.797 405.859,503.963 388.5,510C 380.491,511.291 372.824,510.291 365.5,507C 344.767,493.272 323.767,479.938 302.5,467C 271.833,453 241.167,453 210.5,467C 187.998,480.75 165.665,494.75 143.5,509C 126.134,514.212 112.967,509.046 104,493.5C 101.104,485.619 100.771,477.619 103,469.5C 110.013,450.13 116.013,430.463 121,410.5C 125.638,377.094 117.305,347.427 96,321.5C 78.7613,304.924 60.928,289.091 42.5,274C 31.2153,263.12 28.382,250.287 34,235.5C 38.887,226.47 46.387,220.97 56.5,219C 75.8333,218.667 95.1667,218.333 114.5,218C 131.345,216.052 147.011,210.719 161.5,202C 145.167,201.667 128.833,201.333 112.5,201C 107.293,198.435 104.126,194.268 103,188.5C 97.1276,161.471 91.1276,134.471 85,107.5C 82.3671,99.7493 83.0338,92.4159 87,85.5C 88.8333,84.3333 90.6667,83.1667 92.5,82C 114.174,81.8331 135.841,81.3331 157.5,80.5C 165.518,38.154 190.185,11.154 231.5,-0.5 Z M 250.5,28.5 C 285.846,26.4045 309.679,41.7378 322,74.5C 324.207,84.5342 326.54,94.5342 329,104.5C 330.833,106.333 332.667,108.167 334.5,110C 354.744,111.31 375.077,111.977 395.5,112C 390.833,131.667 386.167,151.333 381.5,171C 297.93,171.832 214.43,171.665 131,170.5C 126.727,150.911 122.227,131.411 117.5,112C 137.923,111.977 158.256,111.31 178.5,110C 180.333,108.167 182.167,106.333 184,104.5C 186.619,92.4044 189.619,80.4044 193,68.5C 204.197,43.6558 223.363,30.3225 250.5,28.5 Z M 209.5,201.5 C 230.836,201.333 252.169,201.5 273.5,202C 257.167,218.333 240.833,234.667 224.5,251C 201.5,251.333 178.5,251.667 155.5,252C 151.333,253.5 148.5,256.333 147,260.5C 146.333,274.167 146.333,287.833 147,301.5C 148.333,308.17 150.833,314.337 154.5,320C 150.38,325.122 145.88,329.956 141,334.5C 131.779,315.577 119.279,299.077 103.5,285C 89.8705,273.706 76.5372,262.039 63.5,250C 81.1667,249.667 98.8333,249.333 116.5,249C 153.893,245.305 184.893,229.472 209.5,201.5 Z M 379.5,478.5 C 358.865,464.844 337.865,451.677 316.5,439C 276.5,421 236.5,421 196.5,439C 175.135,451.677 154.135,464.844 133.5,478.5C 139.632,458.936 145.465,439.27 151,419.5C 153.942,402.511 154.276,385.511 152,368.5C 161.681,358.652 171.514,348.986 181.5,339.5C 202.946,345.183 221.113,339.85 236,323.5C 239.75,318.502 242.583,313.002 244.5,307C 246.783,295.634 247.95,284.134 248,272.5C 269,251.5 290,230.5 311,209.5C 334.443,232.468 362.61,245.635 395.5,249C 413.5,249.333 431.5,249.667 449.5,250C 430.034,267.131 410.867,284.631 392,302.5C 361.646,341.266 352.646,384.599 365,432.5C 370.344,447.699 375.178,463.032 379.5,478.5 Z M 176.5,281.5 C 189.833,281.5 203.167,281.5 216.5,281.5C 218.565,294.534 213.899,304.034 202.5,310C 190.946,312.307 182.779,308.14 178,297.5C 176.905,292.22 176.405,286.887 176.5,281.5 Z M 311.5,282.5 C 325.652,281.151 331.819,287.485 330,301.5C 324.135,311.246 316.301,313.08 306.5,307C 299.906,297.014 301.573,288.848 311.5,282.5 Z"/></g>
<g><path style="opacity:0.952" fill="#000000" d="M 230.5,64.5 C 234.514,64.3345 238.514,64.5012 242.5,65C 247.603,68.2665 252.27,72.0998 256.5,76.5C 260.73,72.0998 265.397,68.2665 270.5,65C 286.667,62.5 293.5,69.3333 291,85.5C 287.734,90.6029 283.9,95.2696 279.5,99.5C 283.9,103.73 287.734,108.397 291,113.5C 293.5,129.667 286.667,136.5 270.5,134C 265.397,130.734 260.73,126.9 256.5,122.5C 252.27,126.9 247.603,130.734 242.5,134C 226.333,136.5 219.5,129.667 222,113.5C 225.266,108.397 229.1,103.73 233.5,99.5C 229.814,95.6481 226.314,91.6481 223,87.5C 219.046,77.5084 221.546,69.8418 230.5,64.5 Z"/></g>
<g><path style="opacity:0.962" fill="#000000" d="M 306.5,251.5 C 329.793,248.396 346.959,257.062 358,277.5C 366.029,298.545 361.862,316.712 345.5,332C 328.989,343.094 311.656,344.427 293.5,336C 270.914,319.83 265.414,298.997 277,273.5C 284.172,262.481 294.005,255.148 306.5,251.5 Z M 311.5,282.5 C 301.573,288.848 299.906,297.014 306.5,307C 316.301,313.08 324.135,311.246 330,301.5C 331.819,287.485 325.652,281.151 311.5,282.5 Z"/></g>
</svg>
