<svg xmlns="http://www.w3.org/2000/svg" width="512" height="512" viewBox="0 0 512 512" version="1.1"><path d="" stroke="none" fill="#080404" fill-rule="evenodd"/><path d="M 233.500 1.140 C 194.931 6.917, 162.976 22.715, 136.167 49.259 C 108.707 76.448, 92.112 110.281, 86.952 149.597 C 85.442 161.099, 86.197 188.531, 88.339 200.013 C 95.015 235.795, 111.903 267.134, 138.205 292.551 C 163.283 316.786, 194.652 332.537, 228.750 338.016 L 236 339.181 236 367.009 L 236 394.836 213.169 395.168 L 190.337 395.500 185.496 398.500 C 173.067 406.203, 172.718 424.062, 184.833 432.487 L 189.166 435.500 212.583 435.801 L 236 436.103 236 466.591 C 236 494.593, 236.155 497.382, 237.903 500.790 C 245.627 515.852, 266.373 515.852, 274.097 500.790 C 275.845 497.382, 276 494.593, 276 466.591 L 276 436.103 299.417 435.801 L 322.834 435.500 327.167 432.487 C 339.282 424.062, 338.933 406.203, 326.504 398.500 L 321.663 395.500 298.831 395.168 L 276 394.836 276 367.009 L 276 339.181 283.250 338.016 C 340.606 328.800, 390.183 289.782, 412.872 236 C 421.407 215.767, 425.034 198.612, 425.746 175.097 C 426.271 157.759, 425.291 146.769, 421.906 132 C 407.629 69.722, 359.986 20.903, 297.962 4.999 C 279.829 0.349, 250.502 -1.406, 233.500 1.140 M 245.450 41.078 C 214.733 43.443, 186.688 56.440, 164.564 78.564 C 139.657 103.471, 126.898 134.445, 126.898 170 C 126.898 197.057, 134.053 220.766, 148.733 242.353 C 173.296 278.470, 212.170 299, 256 299 C 299.830 299, 338.704 278.470, 363.267 242.353 C 377.947 220.766, 385.102 197.057, 385.102 170 C 385.102 134.445, 372.343 103.471, 347.436 78.564 C 320.315 51.444, 284.034 38.108, 245.450 41.078" stroke="none" fill="#040404" fill-rule="evenodd"/></svg>