<svg xmlns="http://www.w3.org/2000/svg" width="512" height="512" viewBox="0 0 512 512" version="1.1"><path d="" stroke="none" fill="#080404" fill-rule="evenodd"/><path d="M 438.882 1.320 C 422.504 7.448, 408.776 28.382, 396.575 65.832 C 383.642 105.531, 378.052 143.648, 382.567 161.356 C 388.449 184.427, 408.010 203.824, 430.868 209.254 L 436 210.473 436 233.596 L 436 256.719 424.250 259.467 C 379.193 270.005, 335.602 291.181, 301.374 319.160 C 296.772 322.922, 292.797 326, 292.541 326 C 292.284 326, 289.583 325.068, 286.538 323.928 L 281 321.856 281 239.053 L 281 156.250 283.750 155.683 C 288.344 154.735, 295.705 149.379, 299.392 144.302 C 309.108 130.924, 307.766 113.089, 296.186 101.683 C 292.114 97.672, 282.318 92.545, 223.274 63.525 C 185.759 45.086, 154.168 30, 153.071 30 C 150.561 30, 143.445 33.369, 85.500 61.990 C 59.650 74.759, 32.918 87.901, 26.096 91.194 C 5.799 100.994, -0.657 109.807, 0.232 126.500 C 0.935 139.685, 7.300 149.065, 19.250 154.521 L 25 157.147 25 227.494 L 25 297.841 22.250 298.396 C 20.737 298.701, 16.365 299.475, 12.533 300.116 C 7.183 301.010, 4.919 301.927, 2.783 304.064 C -1.400 308.246, -0.834 316.073, 3.913 319.718 C 6.189 321.465, 12.230 321.278, 26.228 319.026 C 48.241 315.485, 67.039 313.899, 94 313.309 C 152.083 312.038, 206.759 319.854, 260.588 337.123 L 276.114 342.103 270.270 348.802 C 259.915 360.669, 254.103 368.318, 244.431 382.802 C 244.320 382.968, 236.190 380.401, 226.365 377.098 C 196.108 366.927, 165.989 360.274, 132.500 356.367 C 113.690 354.172, 62.423 353.860, 45 355.834 C 29.097 357.635, 8.624 360.812, 5.665 361.937 C -0.490 364.278, -1.967 372.767, 2.845 378.153 C 6.363 382.090, 7.641 382.145, 27.500 379.216 C 74.517 372.282, 123.908 373.774, 171.500 383.567 C 189.617 387.295, 225.717 397.737, 232.188 401.121 C 233.704 401.914, 233.478 402.846, 229.978 410.252 C 226.945 416.671, 219.223 438.557, 216.355 448.864 C 215.919 450.430, 217.422 450.709, 194 444.708 C 156.684 435.146, 127.797 431.624, 86.500 431.601 C 57.190 431.585, 46.668 432.315, 21.049 436.146 C 2.705 438.888, 0 440.508, 0 448.746 C -0 451.300, 0.715 453.391, 2.096 454.873 C 5.657 458.695, 8.401 459.163, 17.850 457.556 C 55.552 451.145, 103.287 450.385, 141.500 455.586 C 162.823 458.489, 186.328 463.465, 205.253 469.082 L 212.005 471.086 211.253 479.793 C 210.839 484.582, 210.500 492.428, 210.500 497.229 C 210.500 505.436, 210.666 506.124, 213.273 508.729 C 217.176 512.630, 223.797 512.658, 227.664 508.790 C 230.228 506.226, 230.414 505.391, 231.134 493.199 C 232.904 463.226, 239.439 438.070, 252.049 412.684 C 274.882 366.717, 314.594 328.211, 365.083 303.080 C 404.516 283.453, 442.431 274.048, 492.500 271.474 C 505.906 270.784, 508.334 269.838, 510.597 264.422 C 511.837 261.455, 511.837 260.545, 510.597 257.578 C 507.860 251.026, 506.192 250.610, 485.693 251.369 C 475.687 251.740, 465.137 252.316, 462.250 252.649 L 457 253.254 457 231.786 L 457 210.318 462.550 209.076 C 480.737 205.006, 499.500 188.825, 507.283 170.500 C 515.190 151.879, 512.787 121.353, 499.961 77.489 C 487.844 36.051, 473.726 11.023, 457.922 2.960 C 452.627 0.259, 443.759 -0.505, 438.882 1.320 M 439.004 25.996 C 424.748 40.632, 406.535 94.653, 402.036 135.645 C 400.124 153.066, 403.845 165.669, 414.103 176.515 C 418.955 181.646, 431.049 189, 434.634 189 C 435.752 189, 436 184.455, 436 163.950 C 436 135.808, 436.370 133.997, 442.652 131.372 C 447.375 129.399, 452.431 131.019, 455.074 135.353 C 456.831 138.236, 456.993 140.620, 456.996 163.750 C 456.999 181.542, 457.327 189, 458.107 189 C 461.543 189, 473.107 182.053, 478.278 176.881 C 488.709 166.451, 492.634 153.882, 490.904 136.451 C 487.303 100.181, 471.554 50.143, 457.575 30.552 C 449.659 19.460, 446.197 18.611, 439.004 25.996 M 89.522 83.119 C 54.884 100.160, 25.684 114.867, 24.634 115.801 C 16.370 123.151, 21.518 136.640, 32.500 136.415 C 35.624 136.351, 48.867 130.236, 93 108.481 C 134.931 87.811, 150.403 80.636, 153 80.657 C 155.529 80.677, 172.170 88.410, 213 108.540 C 276.768 139.980, 275.406 139.498, 281.577 132.765 C 286.148 127.777, 286.415 121.553, 282.250 117.075 C 280.383 115.067, 259.147 104.145, 216.111 83.059 C 181.246 65.976, 152.671 52.031, 152.611 52.068 C 152.550 52.105, 124.160 66.078, 89.522 83.119 M 99 128.607 L 45.500 154.915 45.243 225.096 L 44.986 295.277 52.243 294.631 C 63.708 293.611, 88.095 292.031, 92.626 292.015 L 96.752 292 97.247 271.250 C 97.663 253.852, 98.081 249.450, 99.835 244 C 105.714 225.738, 120.774 211.159, 138.542 206.531 C 141.775 205.689, 148.409 205, 153.284 205 C 174.073 205, 193.372 217.296, 202.382 236.284 C 207.381 246.819, 208 251.419, 208 278.030 L 208 301.962 210.750 302.540 C 216.666 303.784, 256.600 313.848, 258.250 314.511 C 259.908 315.177, 260 310.998, 260 235.056 L 260 154.897 208.250 129.359 C 179.787 115.313, 155.600 103.478, 154.500 103.060 C 152.992 102.486, 139.351 108.765, 99 128.607 M 145 126.558 C 127.196 131.490, 117.772 150.977, 125.032 167.852 C 127.948 174.632, 136.196 182.240, 143.122 184.541 C 153.356 187.940, 165.886 185.126, 173.839 177.642 C 182.168 169.805, 185.229 155.883, 181.055 144.826 C 175.720 130.693, 159.585 122.519, 145 126.558 M 146.400 149.400 C 143.141 152.659, 142.811 153.455, 143.340 156.777 C 144.142 161.815, 147.922 165, 153.101 165 C 164.676 165, 165.285 148.172, 153.777 146.340 C 150.455 145.811, 149.659 146.141, 146.400 149.400 M 146.132 226.036 C 135.580 228.210, 126.323 235.568, 121.318 245.761 C 118.555 251.387, 118.493 251.896, 118.162 271.653 L 117.825 291.806 126.662 292.417 C 150.396 294.059, 163.494 295.210, 173.522 296.534 C 179.560 297.331, 185.287 297.987, 186.250 297.992 C 187.852 297.999, 187.999 296.494, 187.992 280.250 C 187.983 259.025, 186.909 251.486, 182.794 243.765 C 175.681 230.419, 160.498 223.077, 146.132 226.036 M 481 321.633 C 479.625 321.832, 474.450 322.480, 469.500 323.073 C 444.094 326.116, 417.334 334.491, 393.500 346.860 C 344.271 372.408, 309.165 414.353, 296.941 462.230 C 294.340 472.417, 292.045 489.258, 292.020 498.350 C 292.001 504.818, 292.189 505.389, 295.400 508.600 C 298.950 512.150, 301.818 512.780, 306.434 511.025 C 311.050 509.270, 312.633 505.072, 313.331 492.736 C 317.568 417.844, 384.413 355.346, 473 343.449 C 478.775 342.674, 487.156 342.030, 491.625 342.020 C 502.182 341.994, 505.448 341.279, 508.374 338.353 C 512.645 334.082, 512.162 326.846, 507.353 323.063 C 505.047 321.249, 503.447 321.016, 494.115 321.136 C 488.277 321.211, 482.375 321.435, 481 321.633 M 485 381.689 C 468.253 383.452, 446.388 389.766, 432.031 396.984 C 399.393 413.394, 374.115 442.710, 366.055 473.500 C 363.382 483.710, 361.527 498.666, 362.374 503.182 C 363.882 511.218, 373.932 514.523, 379.606 508.849 C 381.947 506.508, 382.362 505.044, 383.150 496.349 C 385.337 472.223, 394.227 453.883, 412.257 436.304 C 425.991 422.914, 444.597 412.213, 463.272 406.963 C 472.563 404.351, 487.808 402.013, 495.601 402.006 C 503.202 401.999, 507.385 400.588, 509.534 397.308 C 512.948 392.098, 510.758 383.999, 505.383 381.955 C 502.983 381.043, 492.443 380.905, 485 381.689" stroke="none" fill="#040404" fill-rule="evenodd"/></svg>