<svg xmlns="http://www.w3.org/2000/svg" width="512" height="512" viewBox="0 0 512 512" version="1.1"><path d="" stroke="none" fill="#080404" fill-rule="evenodd"/><path d="M 215.684 2.440 C 209.987 6.306, 114.263 91.904, 106.467 100.103 C 88.379 119.129, 75.102 143.655, 68.630 170 C 64.719 185.919, 64 194.793, 64 227.110 L 64 256.773 50.250 257.216 C 34.580 257.721, 28.222 259.458, 19.126 265.717 C -6.810 283.562, -6.018 326.580, 20.559 343.581 C 29.184 349.098, 36.884 351.156, 51.132 351.750 L 63.764 352.278 64.268 367.389 C 64.580 376.774, 65.393 384.774, 66.411 388.500 C 68.103 394.687, 74.273 408.124, 77.945 413.617 L 80.028 416.735 70.782 417.920 C 54.009 420.072, 40.544 425.850, 27.915 436.315 C 11.203 450.164, 0.020 473.283, 0.011 494 C 0.007 502.611, 1.868 506.729, 7.241 510.005 C 10.470 511.974, 12.790 511.993, 256 511.993 C 499.957 511.993, 501.521 511.980, 504.789 509.987 C 506.598 508.884, 509.011 506.401, 510.151 504.468 L 512.225 500.954 512.116 352.567 C 512.055 270.954, 511.697 203.352, 511.318 202.340 C 510.940 201.328, 495.444 177.711, 476.883 149.858 C 443.742 100.128, 443.053 99.186, 438.577 97.476 C 433.336 95.475, 427.924 95.955, 424.023 98.767 C 422.636 99.768, 411.777 115.088, 399.894 132.812 L 378.287 165.038 374.985 155.769 C 367.130 133.716, 352.620 110.737, 336.835 95.351 C 326.216 85, 235.054 4.111, 231.500 1.886 C 227.134 -0.848, 220.169 -0.604, 215.684 2.440 M 176.952 77.300 C 151.403 100.032, 128.431 121.077, 125.902 124.066 C 115.536 136.315, 107.675 149.760, 102.554 164 C 99.578 172.273, 96.018 186.257, 96.007 189.715 L 96 191.929 145.750 192.215 C 193.425 192.488, 195.642 192.583, 198.895 194.500 C 205.874 198.611, 206.464 200.353, 206.817 217.908 L 207.133 233.677 215.567 242.066 L 224 250.456 232.500 242 L 241 233.544 241 218.420 C 241 204.382, 241.162 203.058, 243.250 199.990 C 244.488 198.172, 246.770 195.743, 248.322 194.592 C 251.086 192.544, 252.199 192.494, 301.572 192.215 C 334.569 192.028, 352 191.582, 352 190.923 C 352 190.369, 351.305 186.552, 350.456 182.440 C 345.531 158.599, 332.554 134.435, 315.683 117.694 C 308.978 111.041, 225.432 36.677, 224.165 36.234 C 223.746 36.088, 202.500 54.567, 176.952 77.300 M 448 322.300 L 448 482 465 482 L 482 482 482 347.485 L 482 212.969 465.876 188.735 C 457.008 175.406, 449.358 164.072, 448.876 163.550 C 448.374 163.006, 448 230.815, 448 322.300 M 400.153 188.270 L 384 212.541 384 347.270 L 384 482 400.500 482 L 417 482 417 323 C 417 235.550, 416.844 164, 416.653 164 C 416.462 164, 409.037 174.922, 400.153 188.270 M 95.024 299.250 C 95.040 347.019, 95.427 377.139, 96.061 379.888 C 99.860 396.371, 115.629 412.140, 132.112 415.939 C 134.888 416.580, 168.666 416.960, 224.068 416.976 C 319.591 417.002, 315.707 417.217, 327.472 411.259 C 338.668 405.589, 349.633 390.769, 351.995 378.114 C 352.612 374.809, 353 343.796, 353 297.864 L 353 223 312 223 L 271 223 271 233.550 C 271 240.740, 270.547 244.959, 269.577 246.800 C 267.150 251.406, 231.795 285.777, 228.690 286.549 C 227.145 286.933, 223.823 287.015, 221.308 286.731 C 216.912 286.236, 215.984 285.466, 197.350 266.858 C 182.916 252.444, 177.715 246.606, 176.988 244 C 176.451 242.075, 176.009 236.563, 176.006 231.750 L 176 223 135.500 223 L 95 223 95.024 299.250 M 136.009 258.855 C 132.180 260.909, 127.987 267.761, 128.022 271.907 C 128.059 276.265, 131.654 282.819, 135.192 284.976 C 137.345 286.288, 140.246 286.993, 143.500 286.993 C 150.029 286.993, 154.533 284.243, 157.036 278.729 C 159.543 273.206, 159.484 270.368, 156.750 265.036 C 152.898 257.523, 143.638 254.764, 136.009 258.855 M 295.898 259.270 C 286.817 265.336, 286.870 278.667, 296 284.819 C 298.922 286.787, 300.452 287.110, 305.261 286.774 C 310.180 286.430, 311.535 285.874, 314.530 282.970 C 322.385 275.358, 320.583 263.495, 310.800 258.405 C 306.633 256.237, 299.848 256.631, 295.898 259.270 M 43.836 287.944 C 35.546 289.558, 31.010 295.270, 31.004 304.102 C 31 310.276, 33.227 314.632, 38.317 318.403 C 40.699 320.168, 42.896 320.546, 52.567 320.853 L 64 321.216 64 304.108 L 64 287 55.750 287.115 C 51.212 287.178, 45.851 287.551, 43.836 287.944 M 0.349 304 C 0.349 308.675, 0.522 310.587, 0.732 308.250 C 0.943 305.913, 0.943 302.087, 0.732 299.750 C 0.522 297.413, 0.349 299.325, 0.349 304 M 169.450 322.407 C 157.739 327.508, 157.468 343.942, 169 349.777 L 173.500 352.054 225 351.777 C 271.563 351.527, 276.802 351.335, 279.653 349.774 C 289.818 344.211, 289.414 327.994, 278.980 322.752 C 275.799 321.153, 271.082 321.006, 224 321.041 C 183.444 321.070, 171.852 321.361, 169.450 322.407 M 346.500 435.606 C 334.289 443.940, 318.905 448, 299.542 448 L 287 448 287 453.106 C 287 459.562, 284.633 468.843, 281.098 476.250 L 278.354 482 315.677 482 L 353 482 353 457 C 353 443.250, 352.663 432.044, 352.250 432.097 C 351.837 432.151, 349.250 433.730, 346.500 435.606 M 68.402 449.486 C 60.015 451.310, 53.227 454.966, 46.336 461.370 C 40.780 466.532, 34.957 474.888, 33.527 479.750 L 32.865 482 100.933 482 C 138.370 482, 169 481.760, 169 481.467 C 169 481.173, 167.908 478.779, 166.574 476.145 C 163.794 470.660, 161.450 462.080, 160.456 453.750 L 159.770 448 117.135 448.079 C 85.701 448.138, 72.898 448.508, 68.402 449.486 M 191.466 452.750 C 193.093 463.911, 199.538 473.134, 209.205 478.136 C 215.701 481.497, 228.588 481.913, 236.289 479.010 C 246.966 474.984, 254.409 465.067, 256.373 452.250 L 257.024 448 223.898 448 L 190.773 448 191.466 452.750 M 0.355 493.500 C 0.352 498.450, 0.521 500.601, 0.731 498.280 C 0.940 495.959, 0.943 491.909, 0.736 489.280 C 0.530 486.651, 0.358 488.550, 0.355 493.500" stroke="none" fill="#040404" fill-rule="evenodd"/></svg>