<svg xmlns="http://www.w3.org/2000/svg" width="512" height="512" viewBox="0 0 512 512" version="1.1"><path d="" stroke="none" fill="#080404" fill-rule="evenodd"/><path d="M 134.400 2.893 C 129.065 6.850, 60.529 75.920, 59.024 78.856 C 57.283 82.252, 57.429 88.996, 59.322 92.656 C 60.278 94.505, 70.383 103.567, 83.727 114.542 C 96.252 124.843, 107.343 134.066, 108.373 135.037 C 110.191 136.750, 110.021 137.086, 102.621 146.380 C 89.624 162.706, 91.008 154.051, 91.004 219.033 L 91 275.566 75.580 288.354 C 59.944 301.321, 59.383 301.940, 57.979 307.799 C 56.347 314.609, 58.183 317.476, 75.099 334.538 C 88.872 348.430, 91 350.998, 91 353.725 C 91 356.125, 53.445 443.330, 36.942 479.250 L 35.679 482 23.089 482.004 C 12.291 482.007, 10.036 482.290, 7.241 483.995 C -2.418 489.884, -2.418 504.116, 7.241 510.005 C 10.470 511.974, 12.790 511.993, 256 511.993 C 498.071 511.993, 501.545 511.965, 504.715 510.033 C 509.545 507.087, 513 500.966, 513 495.353 C 513 492.776, 512.702 490.965, 512.337 491.330 C 511.972 491.694, 510.851 490.640, 509.846 488.987 C 506.282 483.127, 502.928 482.008, 488.911 482.004 L 476.321 482 475.058 479.250 C 458.297 442.768, 421 356.128, 421 353.675 C 421 350.880, 422.906 348.579, 436.068 335.487 C 444.356 327.244, 451.810 319.229, 452.632 317.676 C 454.475 314.197, 454.645 307.972, 453.007 304.016 C 452.247 302.183, 445.896 296.199, 436.389 288.360 L 421 275.672 420.996 219.086 C 420.992 154.076, 422.355 162.680, 409.502 146.534 C 405.376 141.352, 402 136.916, 402 136.677 C 402 136.438, 413.029 127.157, 426.510 116.053 C 441.106 104.029, 451.685 94.576, 452.664 92.682 C 454.569 88.999, 454.721 82.260, 452.976 78.856 C 451.471 75.920, 382.935 6.850, 377.600 2.893 C 372.799 -0.668, 365.278 -1.109, 360.500 1.891 C 358.850 2.926, 350.750 12.122, 342.500 22.325 C 334.250 32.529, 327.097 40.770, 326.605 40.640 C 326.112 40.510, 319.331 32.325, 311.536 22.452 C 303.740 12.578, 295.864 3.487, 294.033 2.250 C 290.737 0.022, 290.354 0, 255.602 0.004 C 222.847 0.007, 220.291 0.135, 217.376 1.912 C 215.658 2.960, 207.696 12.188, 199.684 22.418 L 185.116 41.019 173.290 26.760 C 166.786 18.917, 159.707 10.334, 157.560 7.686 C 152.730 1.732, 149.493 0, 143.200 0 C 139.362 0, 137.455 0.627, 134.400 2.893 M 219.093 47.429 C 211.719 56.958, 205.776 65.148, 205.887 65.628 C 206.110 66.593, 254.626 125.653, 255.778 126.360 C 256.828 127.005, 305.523 67.385, 305.375 65.638 C 305.306 64.828, 299.231 56.499, 291.875 47.129 L 278.500 30.093 255.500 30.098 L 232.500 30.103 219.093 47.429 M 119.149 61.350 L 95.815 84.701 158.046 136.054 C 192.273 164.298, 221.113 188.778, 222.135 190.453 C 224.544 194.405, 224.552 201.582, 222.152 205.518 C 221.140 207.178, 193.143 231.028, 159.938 258.518 C 126.732 286.008, 98.750 309.175, 97.755 310 C 96.068 311.399, 97.514 313.065, 119.329 334.848 L 142.711 358.196 194.443 295.670 C 230.769 251.765, 247.161 232.677, 249.488 231.573 C 253.934 229.463, 259.821 229.593, 263.579 231.885 C 265.272 232.918, 289.756 261.754, 317.987 295.965 L 369.317 358.168 392.658 334.842 C 405.496 322.013, 416 311.499, 416 311.479 C 416 311.458, 387.918 288.279, 353.596 259.971 C 319.274 231.662, 290.388 207.159, 289.404 205.520 C 287.095 201.673, 287.090 194.339, 289.395 190.480 C 290.374 188.841, 319.299 164.367, 353.672 136.092 L 416.169 84.684 392.834 61.316 C 371.019 39.468, 369.402 38.065, 368 39.770 C 268.368 160.881, 265.875 163.833, 261.923 165.414 C 256.716 167.498, 254.461 167.415, 249.566 164.964 C 246.326 163.341, 235.049 150.241, 194.041 100.464 C 165.739 66.109, 142.561 38, 142.533 38 C 142.506 38, 131.983 48.508, 119.149 61.350 M 353.062 176.372 C 339.621 187.513, 328.461 197.117, 328.262 197.713 C 327.946 198.661, 389.004 250, 390.447 250 C 390.751 250, 391 232.633, 391 211.406 L 391 172.812 384.339 164.406 C 380.675 159.783, 377.637 156.026, 377.589 156.058 C 377.540 156.090, 366.503 165.231, 353.062 176.372 M 127.162 164.949 L 121 172.898 121 211.533 C 121 232.781, 121.363 250.017, 121.807 249.833 C 123.273 249.228, 184 198.649, 184 198.034 C 184 197.154, 135.293 157, 134.226 157 C 133.730 157, 130.551 160.577, 127.162 164.949 M 248.241 182.995 C 235.233 190.926, 240.794 210.993, 256 210.993 C 271.206 210.993, 276.767 190.926, 263.759 182.995 C 259.481 180.386, 252.519 180.386, 248.241 182.995 M 204.500 331.744 C 157.734 388.312, 153.109 393.595, 148.788 395.386 C 141.329 398.477, 137.610 396.847, 125.920 385.367 L 116.340 375.959 115.064 378.730 C 110.372 388.922, 70 480.888, 70 481.383 C 70 481.723, 98.325 482, 132.944 482 L 195.887 482 196.206 445.250 L 196.526 408.500 199.130 401.773 C 204.918 386.825, 215.164 375.193, 228.357 368.592 C 237.828 363.853, 245.597 362, 256 362 C 266.498 362, 274.175 363.854, 283.981 368.759 C 294.119 373.829, 304.171 383.881, 309.241 394.019 C 315.694 406.922, 316 409.350, 316 447.710 L 316 482 379 482 C 413.650 482, 442 481.723, 442 481.383 C 442 480.888, 401.628 388.922, 396.936 378.730 L 395.660 375.959 386.080 385.367 C 374.395 396.842, 370.669 398.476, 363.226 395.392 C 358.920 393.607, 354.287 388.307, 307.801 331.984 C 279.901 298.182, 256.720 270.419, 256.287 270.290 C 255.854 270.160, 232.550 297.815, 204.500 331.744 M 250.344 393.031 C 241.083 394.887, 232.945 401.485, 228.799 410.500 C 226.571 415.346, 226.490 416.521, 226.178 448.750 L 225.856 482 256 482 L 286.144 482 285.821 448.750 C 285.509 416.515, 285.428 415.344, 283.191 410.401 C 277.538 397.910, 263.373 390.419, 250.344 393.031 M 128.241 423.995 C 115.233 431.926, 120.794 451.993, 136 451.993 C 151.206 451.993, 156.767 431.926, 143.759 423.995 C 141.782 422.789, 138.730 422.007, 136 422.007 C 133.270 422.007, 130.218 422.789, 128.241 423.995 M 368.241 423.995 C 355.233 431.926, 360.794 451.993, 376 451.993 C 384.532 451.993, 390.993 445.532, 390.993 437 C 390.993 428.468, 384.532 422.007, 376 422.007 C 373.270 422.007, 370.218 422.789, 368.241 423.995 M 0.300 497 C 0.300 500.025, 0.487 501.262, 0.716 499.750 C 0.945 498.238, 0.945 495.762, 0.716 494.250 C 0.487 492.738, 0.300 493.975, 0.300 497" stroke="none" fill="#040404" fill-rule="evenodd"/></svg>