<?xml version="1.0" encoding="UTF-8"?>
<!DOCTYPE svg PUBLIC "-//W3C//DTD SVG 1.1//EN" "http://www.w3.org/Graphics/SVG/1.1/DTD/svg11.dtd">
<svg xmlns="http://www.w3.org/2000/svg" version="1.1" width="512px" height="512px" style="shape-rendering:geometricPrecision; text-rendering:geometricPrecision; image-rendering:optimizeQuality; fill-rule:evenodd; clip-rule:evenodd" xmlns:xlink="http://www.w3.org/1999/xlink">
<g><path style="opacity:0.972" fill="#000000" d="M 137.5,-0.5 C 141.167,-0.5 144.833,-0.5 148.5,-0.5C 152.061,1.54988 155.228,4.21655 158,7.5C 166.675,18.3372 175.508,29.0039 184.5,39.5C 194.16,27.6681 203.66,15.6681 213,3.5C 215.015,2.30342 216.849,0.970083 218.5,-0.5C 242.833,-0.5 267.167,-0.5 291.5,-0.5C 293.151,0.970083 294.985,2.30342 297,3.5C 306.667,15.8333 316.333,28.1667 326,40.5C 335.239,29.6838 344.239,18.6838 353,7.5C 355.772,4.21655 358.939,1.54988 362.5,-0.5C 366.167,-0.5 369.833,-0.5 373.5,-0.5C 399.743,24.2414 425.576,49.5748 451,75.5C 454.97,81.3464 455.303,87.3464 452,93.5C 435.63,108.261 418.797,122.428 401.5,136C 407.788,144.077 413.955,152.244 420,160.5C 420.333,198.833 420.667,237.167 421,275.5C 431.626,283.79 441.959,292.457 452,301.5C 455.333,307.167 455.333,312.833 452,318.5C 441.667,328.833 431.333,339.167 421,349.5C 420.833,350.667 420.667,351.833 420.5,353C 438.144,395.755 456.477,438.255 475.5,480.5C 484.482,481.332 493.482,481.832 502.5,482C 506.685,483.688 509.685,486.521 511.5,490.5C 511.5,494.5 511.5,498.5 511.5,502.5C 510.196,503.987 509.03,505.654 508,507.5C 505.985,508.697 504.151,510.03 502.5,511.5C 337.833,511.5 173.167,511.5 8.5,511.5C 7.01307,510.196 5.3464,509.03 3.5,508C 2.30342,505.985 0.970083,504.151 -0.5,502.5C -0.5,498.5 -0.5,494.5 -0.5,490.5C 1.31481,486.521 4.31481,483.688 8.5,482C 17.5184,481.832 26.5184,481.332 35.5,480.5C 54.5227,438.255 72.856,395.755 90.5,353C 90.3333,351.833 90.1667,350.667 90,349.5C 79.6667,339.167 69.3333,328.833 59,318.5C 55.6667,312.833 55.6667,307.167 59,301.5C 69.0197,292.646 79.1863,283.979 89.5,275.5C 90.3333,237.171 90.8333,198.838 91,160.5C 97.0452,152.244 103.212,144.077 109.5,136C 92.2035,122.428 75.3702,108.261 59,93.5C 55.5012,87.3122 55.8345,81.3122 60,75.5C 85.4236,49.5748 111.257,24.2414 137.5,-0.5 Z M 232.5,29.5 C 247.504,29.3334 262.504,29.5001 277.5,30C 287.405,41.4023 296.738,53.2356 305.5,65.5C 289.18,85.8169 272.514,105.817 255.5,125.5C 238.284,105.784 221.617,85.6173 205.5,65C 214.14,52.8847 223.14,41.0514 232.5,29.5 Z M 141.5,37.5 C 175.469,78.3104 209.302,119.31 243,160.5C 252.592,168.929 261.592,168.262 270,158.5C 303,118.167 336,77.8333 369,37.5C 384.5,53 400,68.5 415.5,84C 373.667,118.5 331.833,153 290,187.5C 284.888,195.659 285.721,203.159 292.5,210C 333.5,243.667 374.5,277.333 415.5,311C 400,326.5 384.5,342 369,357.5C 334.18,315.016 299.014,272.85 263.5,231C 254.321,227.432 246.821,229.598 241,237.5C 208.378,277.791 175.378,317.791 142,357.5C 126.5,342 111,326.5 95.5,311C 137.959,276.21 180.126,241.043 222,205.5C 224.636,198.466 223.803,191.966 219.5,186C 178.167,152 136.833,118 95.5,84C 111.035,68.6319 126.368,53.1319 141.5,37.5 Z M 132.5,156.5 C 136.202,158.024 139.536,160.19 142.5,163C 156.02,174.688 169.687,186.188 183.5,197.5C 162.799,214.942 141.965,232.275 121,249.5C 120.333,223.833 120.333,198.167 121,172.5C 125.077,167.27 128.91,161.936 132.5,156.5 Z M 376.5,156.5 C 381.459,161.305 385.959,166.638 390,172.5C 390.667,198.167 390.667,223.833 390,249.5C 368.704,232.702 347.871,215.369 327.5,197.5C 343.56,183.434 359.894,169.767 376.5,156.5 Z M 255.5,269.5 C 289.926,311.102 324.592,352.602 359.5,394C 365.167,397.333 370.833,397.333 376.5,394C 382.667,387.833 388.833,381.667 395,375.5C 410.5,410.5 426,445.5 441.5,480.5C 399.505,481.5 357.505,481.833 315.5,481.5C 315.667,457.831 315.5,434.164 315,410.5C 307.334,379.329 287.5,362.996 255.5,361.5C 223.5,362.996 203.666,379.329 196,410.5C 195.5,434.164 195.333,457.831 195.5,481.5C 153.495,481.833 111.495,481.5 69.5,480.5C 85,445.5 100.5,410.5 116,375.5C 122.167,381.667 128.333,387.833 134.5,394C 140.167,397.333 145.833,397.333 151.5,394C 186.378,352.627 221.045,311.127 255.5,269.5 Z M 248.5,392.5 C 269.76,390.866 281.927,400.532 285,421.5C 285.5,441.497 285.667,461.497 285.5,481.5C 265.5,481.5 245.5,481.5 225.5,481.5C 225.078,459.132 225.578,436.798 227,414.5C 230.35,403.318 237.517,395.984 248.5,392.5 Z"/></g>
<g><path style="opacity:0.928" fill="#000000" d="M 255.5,179.5 C 270.785,183.417 274.619,192.417 267,206.5C 261.005,210.766 254.505,211.599 247.5,209C 238.944,201.888 237.777,193.721 244,184.5C 247.396,181.545 251.229,179.879 255.5,179.5 Z"/></g>
<g><path style="opacity:0.928" fill="#000000" d="M 375.5,420.5 C 390.785,424.417 394.619,433.417 387,447.5C 381.005,451.766 374.505,452.599 367.5,450C 358.944,442.888 357.777,434.721 364,425.5C 367.396,422.545 371.229,420.879 375.5,420.5 Z"/></g>
<g><path style="opacity:0.933" fill="#000000" d="M 129.5,421.5 C 145.654,419.487 152.487,426.487 150,442.5C 145.614,450.936 138.781,453.77 129.5,451C 121.085,446.652 118.252,439.819 121,430.5C 122.688,426.315 125.521,423.315 129.5,421.5 Z"/></g>
</svg>
