<?xml version="1.0" encoding="UTF-8"?>
<!DOCTYPE svg PUBLIC "-//W3C//DTD SVG 1.1//EN" "http://www.w3.org/Graphics/SVG/1.1/DTD/svg11.dtd">
<svg xmlns="http://www.w3.org/2000/svg" version="1.1" width="512px" height="512px" style="shape-rendering:geometricPrecision; text-rendering:geometricPrecision; image-rendering:optimizeQuality; fill-rule:evenodd; clip-rule:evenodd" xmlns:xlink="http://www.w3.org/1999/xlink">
<g><path style="opacity:0.97" fill="#000000" d="M 312.5,-0.5 C 326.833,-0.5 341.167,-0.5 355.5,-0.5C 389.262,2.58669 419.596,14.42 446.5,35C 453.468,43.6438 453.135,51.9771 445.5,60C 431.281,66.5178 416.615,71.8511 401.5,76C 391.753,79.068 387.92,85.568 390,95.5C 393.294,102.404 398.794,106.238 406.5,107C 433.677,107.959 460.677,110.626 487.5,115C 497.987,116.062 505.987,120.895 511.5,129.5C 511.5,133.5 511.5,137.5 511.5,141.5C 507.043,152.476 500.043,161.643 490.5,169C 478.529,177.319 465.529,183.485 451.5,187.5C 450.774,235.036 459.607,280.702 478,324.5C 485.077,339.654 492.41,354.654 500,369.5C 505.596,384.882 509.43,400.548 511.5,416.5C 511.5,424.833 511.5,433.167 511.5,441.5C 507.298,447.212 502.464,452.546 497,457.5C 486.6,471.361 480.933,487.028 480,504.5C 477.536,507.481 474.703,509.814 471.5,511.5C 327.5,511.5 183.5,511.5 39.5,511.5C 35.2149,509.378 32.0482,506.045 30,501.5C 29.6999,484.919 24.3666,470.252 14,457.5C 8.53568,452.546 3.70234,447.212 -0.5,441.5C -0.5,433.167 -0.5,424.833 -0.5,416.5C 1.57046,400.548 5.40379,384.882 11,369.5C 18.5896,354.654 25.9229,339.654 33,324.5C 51.3922,280.705 60.2255,235.038 59.5,187.5C 40.0059,182.34 23.1726,172.674 9,158.5C 4.76313,153.353 1.59647,147.686 -0.5,141.5C -0.5,137.5 -0.5,133.5 -0.5,129.5C 2.87408,122.973 8.20741,118.807 15.5,117C 24.0424,114.692 32.709,113.025 41.5,112C 79.5315,112.764 113.865,102.098 144.5,80C 158.458,69.0438 172.125,57.7104 185.5,46C 223.792,19.5134 266.125,4.01339 312.5,-0.5 Z M 314.5,30.5 C 343.486,27.9557 371.486,31.9557 398.5,42.5C 399.774,43.3594 399.608,44.0261 398,44.5C 365.794,53.92 353.461,74.92 361,107.5C 367.982,123.147 379.816,132.981 396.5,137C 421.599,138.34 446.599,140.674 471.5,144C 454.196,154.647 435.529,161.98 415.5,166C 377.225,173.761 338.558,178.094 299.5,179C 247.378,180.817 195.378,179.15 143.5,174C 117.617,171.223 92.2832,165.89 67.5,158C 57.6089,154.388 48.2756,149.721 39.5,144C 58.1662,141.667 76.8329,139.333 95.5,137C 120.263,130.616 142.93,119.95 163.5,105C 176.753,95.085 189.419,84.4184 201.5,73C 235.513,49.0522 273.18,34.8855 314.5,30.5 Z M 90.5,196.5 C 100.008,198.556 109.508,200.556 119,202.5C 119.333,246.833 119.667,291.167 120,335.5C 121.215,350.924 127.049,364.257 137.5,375.5C 130.633,377.362 123.633,378.529 116.5,379C 105.827,379.21 95.1599,379.21 84.5,379C 76.6387,383.236 73.8054,389.736 76,398.5C 81.0788,406.914 87.5788,414.081 95.5,420C 140.299,453.851 188.965,460.518 241.5,440C 246.666,437.92 251.333,435.087 255.5,431.5C 276.861,445.338 300.361,452.005 326,451.5C 367.576,450.872 402.576,435.539 431,405.5C 437.652,396.187 436.819,387.687 428.5,380C 425.793,378.943 422.96,378.443 420,378.5C 404.299,380.314 388.799,379.314 373.5,375.5C 383.951,364.257 389.785,350.924 391,335.5C 391.333,291.167 391.667,246.833 392,202.5C 401.384,200.756 410.718,198.756 420,196.5C 420.796,245.813 430.796,293.146 450,338.5C 457.683,354.531 465.349,370.531 473,386.5C 478.053,400.759 480.386,415.426 480,430.5C 465.588,444.657 456.421,461.657 452.5,481.5C 321.167,481.5 189.833,481.5 58.5,481.5C 54.5791,461.657 45.4124,444.657 31,430.5C 30.6138,415.426 32.9471,400.759 38,386.5C 46.5901,368.985 54.9235,351.318 63,333.5C 81.0717,289.641 90.2384,243.975 90.5,196.5 Z M 150.5,206.5 C 220.5,211.833 290.5,211.833 360.5,206.5C 360.974,250.539 360.474,294.539 359,338.5C 354.203,352.955 344.203,361.289 329,363.5C 319.11,360.387 309.443,356.72 300,352.5C 303.261,325.548 296.261,301.548 279,280.5C 263.333,267.167 247.667,267.167 232,280.5C 214.806,301.79 207.64,325.957 210.5,353C 201.151,356.925 191.651,360.425 182,363.5C 164.724,360.556 154.391,350.556 151,333.5C 150.5,291.168 150.333,248.835 150.5,206.5 Z M 254.5,302.5 C 256.371,302.859 257.871,303.859 259,305.5C 265.314,315.608 269.148,326.608 270.5,338.5C 270.237,345.821 267.237,351.654 261.5,356C 254.104,359.178 248.271,357.345 244,350.5C 242.267,346.674 241.101,342.674 240.5,338.5C 241.847,325.113 246.513,313.113 254.5,302.5 Z M 223.5,381.5 C 235.635,382.772 240.802,389.439 239,401.5C 237.939,404.562 236.106,407.062 233.5,409C 208.84,421.095 183.174,423.761 156.5,417C 149.106,415.038 142.106,412.204 135.5,408.5C 165.903,402.572 195.237,393.572 223.5,381.5 Z M 284.5,381.5 C 302.761,387.754 321.095,393.921 339.5,400C 351.429,403.149 363.429,405.982 375.5,408.5C 350.632,421.066 324.632,423.899 297.5,417C 290.515,415.116 283.848,412.45 277.5,409C 270.355,401.885 269.688,394.218 275.5,386C 278.324,383.921 281.324,382.421 284.5,381.5 Z"/></g>
<g><path style="opacity:0.932" fill="#000000" d="M 189.5,230.5 C 207.246,229.735 213.413,237.735 208,254.5C 201.402,261.043 193.902,262.209 185.5,258C 176.683,247.266 178.016,238.099 189.5,230.5 Z"/></g>
<g><path style="opacity:0.931" fill="#000000" d="M 310.5,230.5 C 326.149,229.174 332.649,236.174 330,251.5C 325.652,259.915 318.819,262.748 309.5,260C 301.024,254.572 298.524,247.072 302,237.5C 304.441,234.546 307.275,232.213 310.5,230.5 Z"/></g>
</svg>
