<svg xmlns="http://www.w3.org/2000/svg" width="512" height="512" viewBox="0 0 512 512" version="1.1"><path d="" stroke="none" fill="#080404" fill-rule="evenodd"/><path d="M 248.241 1.995 C 241.600 6.044, 240.877 8.562, 241.206 26.526 C 241.496 42.311, 241.549 42.652, 244.741 49.131 C 251.072 61.980, 262.031 69.298, 277.593 71.066 C 288.268 72.279, 293.372 74.427, 298.129 79.709 C 306.536 89.042, 306.536 102.958, 298.129 112.291 C 291.349 119.819, 288.916 120.376, 260 121.022 C 236.849 121.540, 233.901 121.803, 228 123.879 C 217.736 127.491, 211.078 131.761, 202.982 139.921 C 194.665 148.305, 189.386 157.602, 186.470 169 C 183.981 178.731, 184.789 195.171, 188.230 204.807 C 194.682 222.876, 208.966 237.195, 227.119 243.792 C 234.299 246.401, 235.264 246.488, 262.500 246.987 C 281.964 247.344, 291.154 247.875, 292.645 248.729 C 294.864 250.001, 296.997 254.732, 297.004 258.399 C 297.006 259.555, 297.902 261.967, 298.995 263.759 C 304.886 273.421, 318.985 273.421, 325.071 263.759 C 326.787 261.034, 327.061 259.267, 326.741 252.980 C 326.032 239.074, 317.989 227.076, 305.130 220.741 L 298.551 217.500 270.025 216.916 C 238.974 216.280, 236.717 215.906, 228.806 210.089 C 220.408 203.913, 215.803 194.674, 215.803 184 C 215.803 173.326, 220.408 164.087, 228.806 157.911 C 236.503 152.251, 239.301 151.747, 267 151.033 C 287.755 150.498, 293.430 150.043, 297.500 148.588 C 315.118 142.291, 328.830 127.597, 333.515 109.992 C 335.390 102.945, 335.390 89.055, 333.515 82.008 C 327.557 59.619, 305.252 41.070, 284.218 41.012 C 277.830 40.994, 273.480 38.815, 272.135 34.958 C 271.511 33.167, 270.998 26.931, 270.996 21.101 C 270.993 12.287, 270.657 9.951, 269.005 7.241 C 264.764 0.285, 255.065 -2.166, 248.241 1.995 M 433.500 1.842 C 429.089 4.538, 428.286 5.822, 424.093 16.881 C 418.708 31.082, 414.795 37.202, 404.500 47.526 C 396.999 55.048, 393.755 57.463, 385.019 62.026 C 372.786 68.415, 370 71.565, 370 79 C 370 86.435, 372.786 89.585, 385.019 95.974 C 393.755 100.537, 396.999 102.952, 404.500 110.474 C 414.803 120.806, 418.707 126.917, 424.111 141.167 C 426.221 146.732, 428.746 152.167, 429.721 153.245 C 434.449 158.468, 443.319 159.601, 449.102 155.719 C 452.921 153.155, 454.653 150.124, 459.058 138.291 C 465.771 120.258, 478.683 105.886, 496.963 96.101 C 509.185 89.559, 512 86.357, 512 79 C 512 71.643, 509.185 68.441, 496.963 61.899 C 478.683 52.114, 465.771 37.742, 459.058 19.709 C 454.653 7.876, 452.921 4.845, 449.102 2.281 C 444.849 -0.574, 437.777 -0.773, 433.500 1.842 M 176.241 18.995 C 163.233 26.926, 168.794 46.993, 184 46.993 C 199.206 46.993, 204.767 26.926, 191.759 18.995 C 187.481 16.386, 180.519 16.386, 176.241 18.995 M 437.469 57.250 C 435.931 59.587, 430.685 65.423, 425.810 70.217 L 416.948 78.935 425.806 87.717 C 430.678 92.548, 435.925 98.412, 437.465 100.750 C 439.006 103.088, 440.554 105, 440.907 105 C 441.260 105, 443.563 102.234, 446.024 98.853 C 448.486 95.473, 453.802 89.664, 457.837 85.946 L 465.174 79.185 456.254 70.343 C 451.349 65.479, 446.075 59.587, 444.535 57.250 C 442.994 54.913, 441.404 53, 441 53 C 440.596 53, 439.007 54.913, 437.469 57.250 M 136.241 90.995 C 123.233 98.926, 128.794 118.993, 144 118.993 C 152.532 118.993, 158.993 112.532, 158.993 104 C 158.993 95.468, 152.532 89.007, 144 89.007 C 141.270 89.007, 138.218 89.789, 136.241 90.995 M 63.500 106.842 C 59.089 109.538, 58.286 110.822, 54.093 121.881 C 48.708 136.082, 44.795 142.202, 34.500 152.526 C 26.999 160.048, 23.755 162.463, 15.019 167.026 C 2.786 173.415, 0 176.565, -0 184 C -0 191.435, 2.786 194.585, 15.019 200.974 C 23.755 205.537, 26.999 207.952, 34.500 215.474 C 44.803 225.806, 48.707 231.917, 54.111 246.167 C 56.221 251.732, 58.746 257.167, 59.721 258.245 C 64.449 263.468, 73.319 264.601, 79.102 260.719 C 82.921 258.155, 84.653 255.124, 89.058 243.291 C 95.771 225.258, 108.683 210.886, 126.963 201.101 C 139.185 194.559, 142 191.357, 142 184 C 142 176.643, 139.185 173.441, 126.963 166.899 C 108.683 157.114, 95.771 142.742, 89.058 124.709 C 84.653 112.876, 82.921 109.845, 79.102 107.281 C 74.849 104.426, 67.777 104.227, 63.500 106.842 M 360.241 154.995 C 353.285 159.236, 350.834 168.935, 354.995 175.759 C 362.926 188.767, 382.993 183.206, 382.993 168 C 382.993 156.364, 370.091 148.989, 360.241 154.995 M 67.469 162.250 C 65.931 164.588, 60.685 170.423, 55.810 175.217 L 46.948 183.935 55.806 192.717 C 60.678 197.548, 65.925 203.412, 67.465 205.750 C 69.006 208.088, 70.554 210, 70.907 210 C 71.260 210, 73.563 207.234, 76.024 203.853 C 78.486 200.473, 83.802 194.664, 87.837 190.946 L 95.174 184.185 86.254 175.343 C 81.349 170.479, 76.075 164.588, 74.535 162.250 C 72.994 159.912, 71.404 158, 71 158 C 70.596 158, 69.007 159.912, 67.469 162.250 M 248.241 282.995 C 235.233 290.926, 240.794 310.993, 256 310.993 C 264.532 310.993, 270.993 304.532, 270.993 296 C 270.993 287.468, 264.532 281.007, 256 281.007 C 253.270 281.007, 250.218 281.789, 248.241 282.995 M 24.241 298.966 C 22.448 300.075, 20.088 302.448, 18.995 304.241 C 17.102 307.345, 17.007 309.347, 17.004 346.250 L 17 385 13.750 385.004 C 9.555 385.009, 4.511 388.114, 1.995 392.241 C 0.108 395.336, 0.007 397.339, 0.007 432 C 0.007 466.661, 0.108 468.664, 1.995 471.759 C 3.088 473.552, 5.448 475.912, 7.241 477.005 C 10.403 478.933, 12.401 478.993, 74.289 478.996 C 113.147 478.999, 141.850 479.421, 147.728 480.076 C 168.083 482.346, 184.859 489.878, 201 503.996 C 204.575 507.122, 208.483 510.203, 209.684 510.840 C 212.778 512.483, 299.222 512.483, 302.316 510.840 C 303.517 510.203, 307.425 507.122, 311 503.996 C 327.141 489.878, 343.917 482.346, 364.272 480.076 C 370.150 479.421, 398.853 478.999, 437.711 478.996 C 499.303 478.993, 501.611 478.925, 504.715 477.033 C 506.483 475.954, 509.070 473.265, 510.465 471.056 L 513 467.040 513 430.353 C 513 410.176, 512.702 393.965, 512.337 394.330 C 511.972 394.694, 510.851 393.640, 509.846 391.987 C 507.478 388.093, 502.356 385.008, 498.250 385.004 L 495 385 494.996 346.250 C 494.993 309.347, 494.898 307.345, 493.005 304.241 C 491.912 302.448, 489.552 300.075, 487.759 298.966 C 484.568 296.993, 483.221 296.958, 423.500 297.293 C 356.697 297.668, 358.352 297.536, 338.684 304.075 C 306.371 314.818, 276.865 338.721, 260.245 367.617 C 258.226 371.128, 256.316 374, 256 374 C 255.684 374, 253.774 371.128, 251.755 367.617 C 235.135 338.721, 205.629 314.818, 173.316 304.075 C 153.648 297.536, 155.303 297.668, 88.500 297.293 C 28.779 296.958, 27.432 296.993, 24.241 298.966 M 47 355.910 L 47 385 107.250 385.003 C 173.161 385.007, 176.328 385.225, 193.944 390.982 C 207.583 395.439, 222.695 403.707, 233.750 412.760 C 236.088 414.675, 238 415.985, 238 415.672 C 238 413.362, 232.109 397.087, 229.021 390.866 C 223.395 379.531, 217.648 371.514, 208.149 361.749 C 192.034 345.184, 173.694 335.067, 149.500 329.400 C 143.705 328.043, 134.284 327.679, 94.750 327.290 L 47 326.819 47 355.910 M 371.678 328.092 C 362.476 329.064, 351.449 331.953, 341.056 336.114 C 309.044 348.932, 282.436 379.868, 274.561 413.421 L 273.876 416.343 278.188 412.811 C 289.305 403.706, 304.387 395.448, 318.056 390.982 C 335.672 385.225, 338.839 385.007, 404.750 385.003 L 465 385 465 356 L 465 327 422.250 327.133 C 398.738 327.206, 375.980 327.638, 371.678 328.092 M 0.453 432 C 0.453 452.625, 0.586 461.063, 0.749 450.750 C 0.911 440.438, 0.911 423.563, 0.749 413.250 C 0.586 402.938, 0.453 411.375, 0.453 432 M 30 432 L 30 449 90.465 449 C 145.780 449, 151.762 449.162, 160.715 450.901 C 182.199 455.074, 202.109 464.416, 217.659 477.619 L 222.819 482 255.924 482 L 289.028 482 294.764 477.323 C 311.720 463.496, 331.062 454.581, 352.860 450.547 C 359.814 449.260, 371.380 449, 421.610 449 L 482 449 482 432 L 482 415 419.461 415 C 381.469 415, 353.134 415.422, 347.272 416.076 C 328.845 418.131, 312.791 424.877, 298.107 436.736 C 284.136 448.019, 288.347 446.989, 256.184 446.995 C 236.697 446.998, 227.187 446.640, 225.684 445.845 C 224.483 445.210, 220.800 442.359, 217.500 439.510 C 201.600 425.780, 184.783 418.312, 164.728 416.076 C 158.866 415.422, 130.531 415, 92.539 415 L 30 415 30 432" stroke="none" fill="#040404" fill-rule="evenodd"/></svg>