<?xml version="1.0" encoding="UTF-8"?>
<svg width="100" height="100" version="1.1" viewBox="0 0 1200 1200" xmlns="http://www.w3.org/2000/svg">
 <path d="m986.08 388.24c-0.23828-1.8008-0.35938-3.5977-0.83984-5.2773-0.48047-1.5586-1.1992-2.8789-1.8008-4.4375-0.48047-1.3203-0.83984-2.6406-1.5586-3.8398-0.12109-0.12109-0.23828-0.23828-0.23828-0.35938-0.83984-1.3203-1.918-2.5195-2.8789-3.8398-0.96094-1.1992-1.8008-2.5195-2.8789-3.5977-0.96094-0.96094-2.1602-1.6797-3.2383-2.5195-1.3203-1.0781-2.6406-2.2812-4.1992-3.1211-0.23828-0.12109-0.35938-0.23828-0.48047-0.35938l-351.77-194.36c-11.277-6.2383-24.953-6-35.992 0.71875l-344.09 207.56c-0.23828 0.12109-0.35938 0.35938-0.60156 0.48047-1.4414 0.83984-2.6406 2.0391-3.9609 3.1211-1.0781 0.96094-2.2812 1.8008-3.3594 2.8789-0.96094 1.0781-1.8008 2.3984-2.6406 3.4805-0.96094 1.3203-2.0391 2.6406-2.7578 4.0781-0.12109 0.23828-0.23828 0.35938-0.35938 0.48047-0.60156 1.1992-0.83984 2.3984-1.1992 3.5977-0.60156 1.5586-1.3203 3-1.6797 4.6797-0.35938 1.6797-0.48047 3.3594-0.60156 5.0391-0.12109 1.1992-0.48047 2.3984-0.48047 3.7188l7.5586 401.8c0.23828 12.836 7.3203 24.594 18.598 30.832l352.01 194.36c5.3984 3 11.398 4.4375 17.398 4.4375 6.4805 0 12.836-1.6797 18.598-5.1602l344.21-207.44c11.039-6.5977 17.637-18.598 17.398-31.555l-7.5586-401.8c-0.003906-1.1953-0.48438-2.3945-0.60547-3.5938zm-263.11 331.86-106.54 189.8-113.62-185.72zm-227.12-74.387 106.54-189.8 113.62 185.72zm-64.305-32.512-113.26-175.29 219.08-13.316zm351.65 0.35938-117.1-191.36 223.39 5.0391zm-146.61-264.07-1.0781-89.863 169.53 93.703zm-71.988 1.3203-165.93 10.078 164.97-99.461zm-179.6 322.98-88.062 64.066-3.9609-206.36zm39.473 60.227 112.66 184.16-208.04-114.94zm373.24-0.11719 92.504 59.508-190.16 114.58zm35.516-62.867 83.863-147.09 3.8398 203.6z"/>
</svg>
