<svg xmlns="http://www.w3.org/2000/svg" width="512" height="512" viewBox="0 0 512 512" version="1.1"><path d="" stroke="none" fill="#080404" fill-rule="evenodd"/><path d="M 245.500 3.373 C 217.604 18.950, 38.975 122.663, 37.155 124.340 C 31.717 129.349, 32 122.118, 32 256 C 32 389.882, 31.717 382.651, 37.155 387.660 C 39.097 389.448, 238.559 505.133, 248.700 510.353 C 252.794 512.460, 259.206 512.460, 263.300 510.353 C 273.441 505.133, 472.903 389.448, 474.845 387.660 C 480.283 382.651, 480 389.882, 480 256 C 480 122.118, 480.283 129.349, 474.845 124.340 C 472.903 122.552, 273.441 6.867, 263.300 1.647 C 258.143 -1.007, 252.336 -0.444, 245.500 3.373 M 168 83.578 C 119.875 111.387, 79.963 134.449, 79.307 134.827 C 78.026 135.567, 253.445 237.400, 256 237.400 C 257.098 237.400, 411.068 149.179, 431.159 137.040 L 433.817 135.433 345.936 84.696 C 297.601 56.790, 257.480 33.747, 256.777 33.488 C 256.075 33.229, 216.125 55.770, 168 83.578 M 241.271 121.964 C 230.001 127.080, 230.084 143.955, 241.405 149.096 C 247.234 151.744, 264.766 151.744, 270.595 149.096 C 275.963 146.659, 279 141.745, 279 135.500 C 279 129.255, 275.963 124.341, 270.595 121.904 C 264.688 119.221, 247.235 119.257, 241.271 121.964 M 63 265.287 L 63 367.787 151.501 418.894 C 200.177 447.002, 240.229 470, 240.506 470 C 240.783 470, 240.895 423.838, 240.755 367.417 L 240.500 264.834 153 214.300 C 104.875 186.506, 64.938 163.545, 64.250 163.276 C 63.255 162.886, 63 183.692, 63 265.287 M 359.500 213.962 L 271.500 264.834 271.245 367.417 C 271.105 423.838, 271.217 470, 271.494 470 C 271.771 470, 311.823 447.002, 360.499 418.894 L 449 367.787 449 265.394 C 449 209.077, 448.663 163.020, 448.250 163.045 C 447.837 163.070, 407.900 185.983, 359.500 213.962 M 395.861 231.448 C 390.607 235.019, 389 239.917, 389 252.363 C 389 261.174, 389.333 263.315, 391.275 266.987 C 396.974 277.764, 412.428 277.780, 418.148 267.016 C 420.761 262.099, 420.828 242.153, 418.248 237.020 C 414.268 229.097, 403.328 226.374, 395.861 231.448 M 117.619 252.003 C 114.176 253.071, 110.337 256.487, 108.405 260.200 C 106.223 264.393, 106.469 285.452, 108.752 289.929 C 111.541 295.400, 115.216 297.500, 122 297.500 C 128.674 297.500, 132.186 295.522, 135.500 289.895 C 137.200 287.009, 137.500 284.702, 137.500 274.500 C 137.500 264.273, 137.204 262.010, 135.500 259.181 C 131.933 253.261, 123.926 250.047, 117.619 252.003 M 352.673 299.051 C 346.768 302.254, 345.048 307.075, 345.024 320.500 C 345 333.097, 346.323 337.006, 351.862 340.706 C 357.209 344.277, 361.238 344.590, 366.742 341.860 C 370.323 340.084, 372.069 338.387, 373.802 335 C 375.883 330.931, 376.074 329.381, 375.802 318.819 C 375.477 306.232, 374.692 304.099, 368.763 299.672 C 364.890 296.781, 357.390 296.491, 352.673 299.051 M 176.619 343.034 C 175.035 343.509, 172.630 344.933, 171.274 346.198 C 166.680 350.489, 166 353.082, 166 366.302 C 166 377.531, 166.215 379.026, 168.270 382.102 C 174.336 391.183, 187.696 391.129, 193.800 382 C 196.017 378.685, 196.124 377.776, 195.820 364.803 L 195.500 351.105 192.044 347.543 C 190.144 345.584, 186.994 343.537, 185.044 342.996 C 180.972 341.864, 180.520 341.867, 176.619 343.034 M 309.424 367.019 C 302.631 370.382, 301 374.541, 301 388.500 C 301 398.704, 301.284 400.732, 303.184 404.114 C 307.380 411.579, 318.205 414.145, 324.913 409.265 C 329.814 405.699, 332.001 399.608, 331.994 389.538 C 331.985 374.933, 329.021 368.521, 321.193 366.176 C 315.814 364.564, 314.141 364.684, 309.424 367.019" stroke="none" fill="#040404" fill-rule="evenodd"/></svg>