<svg xmlns="http://www.w3.org/2000/svg" width="512" height="512" viewBox="0 0 512 512" version="1.1"><path d="" stroke="none" fill="#080404" fill-rule="evenodd"/><path d="M 200 0.685 C 193.084 1.525, 173.441 6.245, 166.540 8.725 C 113.787 27.684, 74.624 72.987, 62.794 128.735 L 60.509 139.500 60.005 269.208 L 59.500 398.915 50.500 405.056 C 37.706 413.785, 29.821 421.019, 21.826 431.364 C 8.612 448.462, 1.354 468.120, 0.362 489.500 C -0.223 502.123, 0.951 505.757, 6.898 509.730 L 10.296 512 256 512 L 501.704 512 505.102 509.716 C 510.664 505.976, 512.826 500.855, 512.919 491.191 C 512.971 485.887, 512.638 483.105, 512 483.500 C 511.420 483.858, 511 482.886, 511 481.187 C 511 476.166, 506.343 459.611, 502.731 451.794 C 494.500 433.980, 480.342 417.808, 462.279 405.590 L 452.064 398.680 451.725 268.590 C 451.392 140.408, 451.356 138.358, 449.268 128.849 C 436.625 71.271, 396.881 25.998, 343.182 8.008 C 321.175 0.635, 321.591 0.672, 259.500 0.456 C 228.700 0.348, 201.925 0.452, 200 0.685 M 211 30.625 C 191.023 32.283, 168.023 39.569, 153.514 48.837 L 149.500 51.401 154 52.195 C 208.694 61.856, 300.206 62.078, 355 52.683 L 362.500 51.397 358.486 48.835 C 347.935 42.100, 332.396 36.095, 317 32.803 C 308.356 30.954, 303.355 30.748, 261.500 30.512 C 236.200 30.369, 213.475 30.420, 211 30.625 M 114.631 84.903 C 103.771 99.986, 95.704 119.390, 92.586 137.926 C 91.502 144.369, 91 153.740, 91 167.536 L 91 187.719 107.199 198.263 L 123.399 208.807 126.207 201.816 C 138.398 171.473, 169.160 150.869, 202 151.051 C 205.575 151.071, 210.412 151.457, 212.750 151.909 C 215.088 152.361, 217 152.554, 217 152.337 C 217 152.120, 215.612 149.194, 213.917 145.835 C 208.957 136.010, 209.280 134.417, 220.975 111.049 C 226.554 99.903, 230.979 90.685, 230.809 90.563 C 230.639 90.442, 221.500 89.808, 210.500 89.156 C 182.697 87.507, 156.886 84.392, 134 79.923 C 128.225 78.795, 122.789 77.670, 121.920 77.423 C 120.845 77.117, 118.519 79.504, 114.631 84.903 M 379.500 79.510 C 356.764 84.287, 324.220 88.184, 295.250 89.601 C 287.413 89.984, 281 90.460, 281 90.658 C 281 90.857, 285.538 100.085, 291.083 111.167 C 302.714 134.406, 303.039 136.017, 298.083 145.835 C 296.387 149.194, 295 152.120, 295 152.337 C 295 152.554, 296.913 152.361, 299.250 151.909 C 309.937 149.842, 324.388 151.346, 337.694 155.912 C 359.270 163.315, 377.057 180.470, 386.049 202.550 L 388.597 208.809 404.799 198.264 L 421 187.719 421 167.536 C 421 138.018, 417.776 122.304, 407.484 101.667 C 403.312 93.300, 392.357 76.885, 391.089 77.100 C 390.765 77.155, 385.550 78.239, 379.500 79.510 M 249.361 123.250 L 243.260 135.500 249.361 147.750 C 252.717 154.488, 255.704 160, 256 160 C 256.296 160, 259.283 154.488, 262.639 147.750 L 268.740 135.500 262.639 123.250 C 259.283 116.513, 256.295 111, 256 111 C 255.705 111, 252.717 116.513, 249.361 123.250 M 189.348 183.357 C 170.665 188.117, 155.602 203.909, 152.012 222.500 C 151.178 226.819, 150.976 246.574, 151.293 293 C 151.767 362.408, 151.659 360.841, 157.479 382.707 C 169.646 428.419, 200.528 467.483, 232.500 477.603 C 254.967 484.715, 278.024 481.599, 297.787 468.782 C 322.065 453.036, 345.106 418.079, 354.521 382.707 C 360.341 360.841, 360.233 362.408, 360.707 293 C 361.024 246.574, 360.822 226.819, 359.988 222.500 C 356.206 202.912, 339.991 186.794, 320.198 182.945 C 301.949 179.396, 282.470 186.810, 270.703 201.783 C 265.435 208.486, 261.425 211, 256 211 C 250.575 211, 246.565 208.486, 241.297 201.783 C 235.641 194.586, 227.025 188.296, 218.236 184.948 C 211.113 182.235, 196.838 181.449, 189.348 183.357 M 91.198 257.149 C 91.489 288.267, 91.584 289.657, 93.700 293.613 C 98.124 301.881, 110.003 310, 117.678 310 L 120 310 120 276.642 L 120 243.284 106.312 234.392 C 98.783 229.501, 92.235 225.342, 91.760 225.149 C 91.282 224.955, 91.031 239.244, 91.198 257.149 M 405.750 234.288 L 392 243.403 392 276.701 L 392 310 394.322 310 C 401.997 310, 413.876 301.881, 418.300 293.613 C 420.416 289.658, 420.512 288.265, 420.801 257.250 C 420.967 239.512, 420.742 225.039, 420.301 225.087 C 419.861 225.134, 413.313 229.275, 405.750 234.288 M 194.020 248.250 C 187.755 251.452, 185.500 254.958, 185.500 261.500 C 185.500 267.542, 187.449 270.966, 193.092 274.839 C 199.156 279.001, 208.077 276.795, 213.261 269.852 C 218.298 263.106, 215.205 252.368, 207.038 248.250 C 204.584 247.012, 201.642 246, 200.500 246 C 199.358 246, 196.442 247.012, 194.020 248.250 M 305.020 248.250 C 298.755 251.452, 296.500 254.958, 296.500 261.500 C 296.500 267.542, 298.449 270.966, 304.092 274.839 C 310.156 279.001, 319.077 276.795, 324.261 269.852 C 329.298 263.106, 326.205 252.368, 318.038 248.250 C 315.584 247.012, 312.642 246, 311.500 246 C 310.358 246, 307.442 247.012, 305.020 248.250 M 235.619 305.034 C 229.836 306.766, 225 313.263, 225 319.301 C 225 325.763, 226.949 328.695, 238.012 338.878 C 255.038 354.547, 258.593 354.574, 274.335 339.145 C 279.748 333.840, 284.812 328.285, 285.588 326.800 C 287.282 323.560, 287.433 316.711, 285.878 313.684 C 280.531 303.278, 269.591 301.522, 260.197 309.563 L 256 313.156 251.815 309.574 C 249.514 307.604, 246.026 305.546, 244.065 305.002 C 239.971 303.864, 239.522 303.866, 235.619 305.034 M 91 358.590 C 91 372.566, 91.371 384, 91.825 384 C 92.279 384, 95.766 382.944, 99.575 381.652 C 103.384 380.361, 110.467 378.260, 115.316 376.984 C 123.237 374.898, 124.081 374.451, 123.634 372.581 C 122.964 369.784, 121.209 356.082, 120.453 347.750 C 119.924 341.918, 119.574 341, 117.878 341 C 113.586 341, 100.416 337.723, 95.845 335.518 L 91 333.181 91 358.590 M 415.865 335.670 C 411.439 337.772, 398.271 341, 394.122 341 C 392.426 341, 392.076 341.918, 391.547 347.750 C 390.787 356.122, 389.034 369.789, 388.359 372.610 C 387.910 374.486, 388.596 374.907, 394.533 376.398 C 398.207 377.321, 405.480 379.443, 410.697 381.114 C 415.913 382.785, 420.373 383.960, 420.608 383.725 C 420.843 383.490, 420.915 372.087, 420.767 358.384 L 420.500 333.469 415.865 335.670 M 204.984 374.852 C 197.385 378.890, 194.427 389.566, 198.986 396.500 C 204.249 404.505, 223.119 416.034, 237 419.727 C 245.915 422.098, 266.085 422.098, 275 419.727 C 288.881 416.034, 307.751 404.505, 313.014 396.500 C 317.573 389.566, 314.615 378.890, 307.016 374.852 C 300.465 371.371, 294.324 372.844, 286.629 379.743 C 284.500 381.652, 279.325 384.853, 275.129 386.857 C 267.720 390.395, 267.168 390.500, 256 390.498 C 245.347 390.497, 244.021 390.276, 238 387.505 C 234.425 385.860, 229.194 382.639, 226.375 380.347 C 216.881 372.628, 211.682 371.293, 204.984 374.852 M 117.500 408.371 C 95.627 414.955, 82.006 421.071, 67.284 430.918 C 49.208 443.008, 36.466 460.552, 32.542 478.750 L 31.841 482 106.485 482 L 181.129 482 175.435 476.250 C 159.419 460.076, 143.860 435.641, 134.937 412.650 C 133.012 407.690, 131.601 405.433, 130.331 405.280 C 129.324 405.159, 123.550 406.550, 117.500 408.371 M 379.329 406.750 C 370.874 431.071, 354.410 457.927, 336.723 476.250 L 331.173 482 405.666 482 L 480.159 482 479.458 478.750 C 476.819 466.509, 470.514 454.986, 460.646 444.365 C 446.567 429.213, 423.132 416.586, 393.120 407.983 C 380.976 404.502, 380.137 404.427, 379.329 406.750 M 0.355 492.500 C 0.352 497.450, 0.521 499.601, 0.731 497.280 C 0.940 494.959, 0.943 490.909, 0.736 488.280 C 0.530 485.651, 0.358 487.550, 0.355 492.500" stroke="none" fill="#040404" fill-rule="evenodd"/></svg>