<svg xmlns="http://www.w3.org/2000/svg" width="512" height="512" viewBox="0 0 512 512" version="1.1"><path d="" stroke="none" fill="#080404" fill-rule="evenodd"/><path d="M 183.500 1.413 C 155.210 7.893, 137.357 32.040, 135.378 66.500 C 133.267 103.261, 155.699 153.050, 189.329 186.250 C 194.204 191.063, 198.016 195, 197.800 195 C 197.583 195, 193.217 195.914, 188.096 197.032 C 176.948 199.465, 153.592 201.431, 151.270 200.131 C 150.229 199.549, 149.004 196.004, 147.822 190.155 C 140.768 155.238, 121.146 122.312, 99.885 109.718 C 89.586 103.617, 81.854 101.713, 69.211 102.162 C 59.712 102.500, 57.739 102.901, 51.777 105.706 C 27.422 117.166, 20.357 145.750, 35.494 171.581 C 46.799 190.871, 80.038 209.606, 116 216.958 C 121.775 218.138, 127.513 219.314, 128.750 219.571 C 130.924 220.022, 131 220.422, 131 231.417 L 131 242.795 117.750 243.404 C 110.463 243.739, 87.400 244.464, 66.500 245.015 C 45.600 245.566, 23.353 246.288, 17.063 246.619 C 6.232 247.189, 5.476 247.370, 2.813 250.033 C -2.452 255.298, -0.011 264.900, 7.059 266.738 C 8.672 267.157, 34.406 266.747, 64.246 265.826 C 94.086 264.906, 120.638 264.118, 123.250 264.076 C 127.532 264.008, 128 264.222, 127.999 266.250 C 127.997 268.579, 123.749 287.027, 121.897 292.750 L 120.845 296 113.133 296 C 97.636 296, 81.575 302.650, 69.650 314.004 C 57.261 325.799, 51.185 338.673, 50.301 355 C 49.700 366.118, 51.400 374.887, 55.877 383.757 C 59.883 391.693, 66.844 400.712, 72.910 405.827 L 78 410.119 78 418.746 C 78 450.634, 99.241 474.076, 135 481.652 C 141.199 482.966, 147.696 483.438, 159 483.395 C 176.895 483.327, 189.353 481.148, 204.700 475.400 L 213.987 471.921 220.744 478.543 C 229.088 486.721, 245.567 497.801, 255.600 501.977 C 262.256 504.748, 263.527 504.981, 266.549 503.984 C 271.097 502.483, 274 498.627, 274 494.088 C 274 488.722, 271.867 486.503, 262.488 482.107 C 257.845 479.931, 250.750 475.873, 246.722 473.089 C 239.606 468.169, 233.207 462.389, 234.073 461.662 C 234.308 461.465, 238.379 458.745, 243.120 455.617 C 247.861 452.490, 256.110 446.311, 261.452 441.887 L 271.165 433.843 274.913 436.324 C 295.084 449.672, 328.700 458.653, 365.799 460.605 L 379.097 461.304 375.821 464.685 C 371.584 469.056, 360.404 476.704, 351.387 481.400 C 343.984 485.255, 342 487.701, 342 492.970 C 342 496.910, 346.308 501.780, 350.489 502.564 C 353.198 503.072, 355.438 502.404, 361.938 499.151 C 378.450 490.886, 393.216 478.518, 404.701 463.329 C 409.844 456.528, 410.470 456.052, 416.812 454.120 C 433.219 449.123, 451.800 437.459, 463.705 424.683 C 486.907 399.782, 495.534 368.465, 487.057 339.909 L 484.845 332.458 492.482 321.027 C 501.681 307.259, 506.033 298.433, 509.440 286.638 C 512.773 275.099, 512.781 270.082, 509.473 266.150 C 506.221 262.285, 502.131 261.370, 497.639 263.501 C 493.818 265.314, 492.783 267.319, 490.553 277.230 C 488.714 285.399, 484.466 294.980, 478.286 304.896 L 473.664 312.311 471.244 309.405 C 461.863 298.146, 452.019 287.724, 440.166 276.500 L 426.436 263.500 432.968 261.824 C 447.722 258.039, 458.105 252.567, 466.831 243.977 C 477.239 233.732, 481.007 224.597, 480.988 209.661 C 480.974 198.931, 479.368 192.139, 474.565 182.500 C 468.052 169.431, 457.639 158.699, 445.211 152.246 C 441.585 150.364, 440.078 149.028, 440.419 148 C 447.022 128.099, 448.925 114.078, 447.085 98.896 C 442.466 60.782, 420.170 33.927, 386.500 25.921 C 357.554 19.038, 327.822 32.295, 311.772 59.241 C 309.722 62.684, 307.697 66.084, 307.272 66.798 C 306.745 67.684, 304.119 64.838, 299 57.831 C 288.490 43.446, 272.754 27.894, 260.440 19.723 C 248.880 12.052, 241.567 8.555, 227.500 3.976 C 218.530 1.056, 216.058 0.686, 203.500 0.379 C 194.054 0.149, 187.548 0.485, 183.500 1.413 M 191.638 21.083 C 176.020 23.410, 164.694 33.407, 158.877 50 C 156.895 55.653, 156.605 58.389, 156.653 71 C 156.700 83.521, 157.076 86.865, 159.413 95.500 C 168.238 128.119, 189.020 160.063, 215.875 182.286 L 220.251 185.907 224.959 183.521 C 235.147 178.358, 248.808 168.191, 258.495 158.561 C 274.455 142.696, 283.701 127.295, 294.348 98.845 L 296.839 92.190 292.284 84.845 C 280.193 65.348, 264.417 47.686, 250.502 38.067 C 231.570 24.979, 209.065 18.486, 191.638 21.083 M 358 46.823 C 354.975 47.836, 350.589 49.648, 348.252 50.851 C 339.450 55.383, 329.584 68.058, 322.657 83.734 L 319.902 89.967 334.523 119.563 C 346.690 144.193, 349.425 149.039, 350.822 148.445 C 355.304 146.540, 371.106 142.905, 379.310 141.891 C 388.049 140.812, 411.171 141.237, 417.106 142.586 C 419.406 143.109, 419.889 142.728, 421.228 139.339 C 425.175 129.344, 426.468 121.572, 426.440 108 C 426.415 95.862, 426.132 93.694, 423.633 86.510 C 417.706 69.473, 407.308 57.223, 392.581 49.925 C 384.436 45.889, 383.474 45.654, 373.749 45.327 C 365.759 45.058, 362.288 45.388, 358 46.823 M 309 118.352 C 309 120.943, 298.232 141.567, 291.955 151 C 283.455 163.772, 263.829 183.352, 250.576 192.281 L 240.652 198.967 247.403 202.029 C 255.767 205.821, 271.070 211, 273.913 211 C 276.414 211, 296.030 192.302, 308.518 178.013 C 313.092 172.781, 319.770 166.250, 323.359 163.500 C 326.948 160.750, 329.911 158.158, 329.942 157.740 C 330.022 156.684, 310.105 117, 309.495 117 C 309.223 117, 309 117.608, 309 118.352 M 63.939 123.323 C 53.661 126.190, 48.548 133.078, 48.590 144 C 48.617 151.184, 51.776 159.568, 56.627 165.333 C 63.971 174.061, 79.636 183.509, 98 190.285 C 108.307 194.089, 126.690 198.643, 127.691 197.642 C 128.767 196.566, 122.983 176.660, 118.604 166.370 C 113.148 153.545, 105.496 141.731, 98.041 134.621 C 87.794 124.847, 74.392 120.407, 63.939 123.323 M 380 162.656 C 373.923 163.589, 359 167.199, 359 167.737 C 359 168.504, 366.255 181.851, 370.690 189.242 L 374.135 194.983 380.141 190.904 C 390.139 184.114, 408 166.167, 408 162.910 C 408 162.045, 385.324 161.839, 380 162.656 M 424.905 175.774 C 417.706 185.905, 404.385 199.090, 393.715 206.646 L 385.036 212.792 391.641 222.146 C 395.274 227.291, 400.329 234.086, 402.873 237.246 L 407.500 242.993 414.590 242.996 C 431.842 243.005, 450.124 234.626, 456.951 223.579 C 461.924 215.534, 461.720 203.079, 456.439 192.285 C 452.137 183.493, 440.391 172, 432.731 169.088 C 430.505 168.241, 429.876 168.778, 424.905 175.774 M 330.781 185.106 C 326.199 189.723, 318.197 198.186, 312.999 203.914 L 303.546 214.327 314.023 213.682 C 319.785 213.327, 327.650 212.356, 331.500 211.523 C 339.224 209.853, 355 205.019, 355 204.323 C 355 203.611, 340.931 178.588, 339.979 177.606 C 339.478 177.089, 335.593 180.257, 330.781 185.106 M 207.853 213.055 C 194.202 217.573, 180.668 220.026, 165.750 220.687 L 152 221.297 152 231.701 L 152 242.105 192.711 241.392 L 233.422 240.680 238.815 236.286 C 241.782 233.870, 246.066 230.721, 248.335 229.289 L 252.460 226.684 249.980 225.682 C 243.091 222.896, 228.117 215.628, 223.827 212.989 C 221.156 211.345, 218.414 210.044, 217.735 210.097 C 217.056 210.150, 212.609 211.482, 207.853 213.055 M 355.701 226.197 C 335.883 233.144, 327.545 234.429, 301.500 234.555 L 278.500 234.666 271.716 238.966 C 267.985 241.331, 265.109 243.442, 265.324 243.657 C 265.539 243.872, 268.829 244.911, 272.634 245.966 C 281.721 248.484, 291.584 252.964, 298.741 257.824 C 305.547 262.446, 316.659 273.964, 319.500 279.342 C 321.036 282.250, 321.964 283.010, 323.500 282.620 C 324.600 282.342, 330.563 281.083, 336.750 279.825 C 345.246 278.096, 348 277.157, 348 275.990 C 348 272.480, 355.277 259.586, 360.229 254.320 C 365.045 249.199, 375.183 243.003, 378.750 243.001 C 379.438 243, 380 242.754, 380 242.453 C 380 242.153, 376.962 237.520, 373.250 232.159 L 366.500 222.412 355.701 226.197 M 189.500 262.111 C 176.300 262.551, 161.925 263.044, 157.556 263.206 L 149.612 263.500 147.825 273.500 C 146.842 279, 144.944 287.550, 143.607 292.500 C 142.269 297.450, 141.325 301.652, 141.508 301.837 C 142.400 302.740, 150.098 303.954, 155 303.964 C 170.012 303.997, 183.786 296.264, 201.527 277.845 C 212.521 266.431, 216.919 260.908, 214.818 261.155 C 214.093 261.240, 202.700 261.670, 189.500 262.111 M 238.771 266.192 C 226.691 281.241, 218.186 299.666, 211.139 326.051 C 205.511 347.121, 202.946 361.790, 202.316 376.500 L 201.717 390.500 203.921 388.539 C 205.133 387.460, 209.547 381.160, 213.731 374.539 C 225.166 356.441, 232.040 347.769, 245.906 333.949 C 260.027 319.877, 274.651 308.504, 291.568 298.438 L 302.972 291.652 300.332 288.076 C 289.127 272.897, 274.088 265.576, 247.864 262.538 L 242.228 261.885 238.771 266.192 M 384.275 262.916 C 378.302 264.437, 372.544 269.809, 370.157 276.088 C 369.217 278.561, 369.374 278.718, 373.961 279.893 C 392.078 284.537, 407.290 298.618, 417.431 320.133 C 421.482 328.728, 426.979 345.258, 427.015 348.957 C 427.024 349.806, 427.440 351.147, 427.941 351.939 C 429.602 354.563, 442.771 347.054, 452.198 338.107 L 460.404 330.320 455.570 323.410 C 452.788 319.434, 439.221 305.116, 423.618 289.688 C 397.122 263.490, 396.397 262.867, 392 262.485 C 389.525 262.271, 386.049 262.464, 384.275 262.916 M 336.500 300.935 L 329.500 302.544 330 307.022 C 331.210 317.861, 330.455 338.518, 328.575 346 C 322.939 368.433, 311.150 389.281, 290.211 413.840 L 285.922 418.870 290.540 421.576 C 312.013 434.160, 357.103 442.415, 386 439.052 C 391.775 438.380, 396.645 437.686, 396.822 437.509 C 396.999 437.333, 398.901 433.115, 401.048 428.135 C 407.234 413.787, 409.140 405.360, 409.734 389.750 L 410.256 376 407.378 375.985 C 402.079 375.958, 391.568 372.949, 384.375 369.400 C 361.372 358.052, 346.138 334.601, 344.105 307.413 L 343.500 299.325 336.500 300.935 M 365 304.723 C 365 327.040, 383.139 350.289, 403.852 354.519 L 407.204 355.204 406.473 351.852 C 401.502 329.052, 389.200 309.569, 375.693 303.106 C 364.898 297.940, 365 297.925, 365 304.723 M 301.307 317.886 C 292.360 324.631, 286.955 330.292, 280.697 339.470 C 275.306 347.377, 269.431 360.777, 267.423 369.747 C 265.209 379.636, 265.798 392.829, 268.743 399.294 L 270.926 404.087 274.283 400.294 C 287.390 385.479, 299.103 367.540, 304.057 354.696 C 308.500 343.176, 310.118 333.949, 309.787 322.030 L 309.500 311.710 301.307 317.886 M 185.500 316.607 C 172.360 323.996, 156.140 326.613, 142.068 323.615 C 137.980 322.744, 134.532 322.137, 134.406 322.266 C 134.280 322.395, 132.301 327.212, 130.009 332.970 C 127.716 338.729, 121.776 352.004, 116.809 362.470 C 107.715 381.631, 102.688 393.329, 101.513 398.063 C 100.919 400.457, 101.396 400.870, 108.715 404.305 C 122.106 410.589, 131.067 412.317, 147.444 411.775 C 160.152 411.354, 162.451 410.983, 171.413 407.905 L 181.326 404.500 181.498 384 C 181.632 368.033, 182.128 361.068, 183.742 352.500 C 185.462 343.367, 190.603 321.489, 192.613 314.750 C 193.303 312.436, 192.582 312.624, 185.500 316.607 M 100 319.034 C 87.942 323.334, 75.741 335.399, 72.536 346.192 C 70.335 353.602, 70.548 364.739, 73.014 371.212 C 75.071 376.610, 81.331 386, 82.874 386 C 83.344 386, 84.525 383.863, 85.499 381.250 C 86.473 378.637, 91.207 368.175, 96.019 358 C 104.463 340.144, 107.906 332.387, 112.028 321.929 L 113.971 317 109.735 317.036 C 107.406 317.056, 103.025 317.955, 100 319.034 M 462.190 357.029 C 455.670 363.111, 445.380 369.327, 437.338 372.043 L 431.298 374.083 430.690 389.291 C 430.099 404.093, 428.362 414.211, 424.604 424.750 C 423.771 427.087, 423.406 429, 423.794 429 C 425.345 429, 439.817 419.043, 444.703 414.614 C 460.910 399.926, 471.308 376.268, 469.476 358.250 C 469.127 354.813, 468.539 352.017, 468.170 352.038 C 467.802 352.059, 465.111 354.305, 462.190 357.029 M 241.538 370.160 C 239 373.647, 233.903 381.380, 230.211 387.344 C 223.608 398.013, 215.842 407.160, 209.047 412.271 L 205.593 414.869 207.404 420.684 C 209.678 427.987, 217.843 444.002, 219.644 444.694 C 221.748 445.501, 241.055 432.369, 252.816 422.131 L 256.132 419.244 253.149 414.372 C 248.138 406.188, 245.768 397.667, 245.236 385.928 C 244.960 379.816, 245.239 373.111, 245.900 370.032 C 246.528 367.104, 246.842 364.508, 246.598 364.264 C 246.353 364.020, 244.077 366.673, 241.538 370.160 M 99.294 427.157 C 101.107 440.675, 114.317 453.663, 132.422 459.728 C 140.002 462.267, 141.578 462.431, 158 462.394 C 173.800 462.359, 176.447 462.095, 185.247 459.681 C 190.609 458.211, 196.318 456.444, 197.935 455.754 L 200.875 454.500 197.280 448.500 C 195.302 445.200, 192.123 438.675, 190.214 434 C 188.305 429.325, 186.669 425.406, 186.578 425.290 C 186.488 425.175, 182.924 426.189, 178.658 427.544 C 154.830 435.111, 129.576 434.763, 107.758 426.568 L 98.762 423.189 99.294 427.157 M 300.798 495.048 C 298.048 497.798, 297.802 498.552, 298.277 502.765 C 299.287 511.725, 308.393 515.195, 315.121 509.184 C 322.062 502.981, 317.452 492, 307.907 492 C 304.714 492, 303.195 492.651, 300.798 495.048" stroke="none" fill="#040404" fill-rule="evenodd"/></svg>