<svg xmlns="http://www.w3.org/2000/svg" width="512" height="512" viewBox="0 0 512 512" version="1.1"><path d="" stroke="none" fill="#080404" fill-rule="evenodd"/><path d="M 231.500 0.643 C 199.049 8.504, 173.009 31.879, 163.150 62 C 161.980 65.575, 160.435 71.425, 159.717 75 L 158.411 81.500 125.909 82 C 96.784 82.448, 93.122 82.687, 90.656 84.304 C 86.726 86.882, 84.009 91.861, 84.001 96.500 C 83.991 102.052, 103.797 190.834, 105.840 194.395 C 106.753 195.988, 108.769 198.238, 110.320 199.395 C 112.961 201.366, 114.717 201.532, 137.820 202 L 162.500 202.500 153.464 207.153 C 143.383 212.343, 131.133 216.326, 120.308 217.933 C 116.353 218.520, 101.022 219, 86.240 219 C 64.482 219, 58.334 219.306, 53.960 220.605 C 40.360 224.643, 32.146 235.500, 32.044 249.572 C 31.990 257.038, 34.068 263.413, 38.181 268.403 C 39.900 270.489, 51.925 281.526, 64.903 292.932 C 77.881 304.337, 91.200 316.565, 94.500 320.104 C 116.729 343.944, 127.128 379.067, 121.505 411.310 C 120.683 416.025, 115.912 432.622, 110.904 448.191 C 102.429 474.538, 101.829 476.951, 102.249 483 C 103.024 494.155, 108.900 502.795, 119.222 507.953 C 124.307 510.494, 126.496 510.998, 132.410 510.990 C 141.854 510.977, 144.092 509.849, 175 489.517 C 189.025 480.291, 204.550 470.789, 209.500 468.401 C 240.095 453.639, 273.884 453.638, 304.500 468.397 C 309.450 470.783, 324.975 480.283, 339 489.508 C 369.943 509.861, 372.156 510.977, 381.590 510.990 C 393.442 511.007, 403.367 504.803, 409.217 493.722 C 410.974 490.393, 411.451 487.808, 411.473 481.500 C 411.498 474.112, 410.830 471.449, 402.743 446.710 C 392.190 414.426, 390.561 406.187, 391.327 389 C 392.244 368.430, 397.722 351.150, 408.735 334.090 C 416.026 322.794, 421.420 317.297, 449.097 292.951 C 462.075 281.535, 474.100 270.489, 475.819 268.403 C 479.932 263.413, 482.010 257.038, 481.956 249.572 C 481.861 236.429, 474.399 225.734, 462 220.973 C 459.470 220.001, 449.358 219.447, 425.500 218.972 C 394.173 218.348, 392.001 218.182, 382.663 215.693 C 377.252 214.251, 368.027 210.692, 362.163 207.785 L 351.500 202.500 376.180 202 C 399.283 201.532, 401.039 201.366, 403.680 199.395 C 405.231 198.238, 407.247 195.988, 408.160 194.395 C 410.203 190.834, 430.009 102.052, 429.999 96.500 C 429.991 91.861, 427.274 86.882, 423.344 84.304 C 420.878 82.687, 417.216 82.448, 388.091 82 L 355.589 81.500 354.283 75 C 347.358 40.529, 325.536 15.561, 291.500 3.168 C 284.764 0.715, 283.538 0.610, 259 0.388 C 244.975 0.262, 232.600 0.376, 231.500 0.643 M 243.173 30.004 C 222.426 32.927, 204.797 45.667, 195.437 64.500 C 192.968 69.468, 191.007 76.033, 188.683 87.114 C 185.207 103.689, 183.792 106.936, 178.696 110.044 C 175.723 111.856, 173.482 111.993, 146.643 111.996 C 123.976 111.999, 117.886 112.268, 118.253 113.250 C 118.510 113.938, 121.573 127.438, 125.061 143.250 L 131.402 172 257 172 L 382.598 172 388.939 143.250 C 392.427 127.438, 395.490 113.938, 395.747 113.250 C 396.114 112.268, 390.024 111.999, 367.357 111.996 C 329.163 111.991, 330.729 112.918, 325.317 87.114 C 321.672 69.736, 318.047 61.059, 310.792 52.345 C 302.311 42.158, 290.788 34.749, 278.376 31.504 C 271.181 29.623, 251.757 28.795, 243.173 30.004 M 229.241 66.995 C 224.753 69.731, 222.008 74.594, 222.004 79.816 C 221.999 85.372, 223.028 87.270, 229.832 94.250 L 235.437 100 229.832 105.750 C 223.028 112.730, 221.999 114.628, 222.004 120.184 C 222.011 128.437, 228.563 134.989, 236.816 134.996 C 242.372 135.001, 244.270 133.972, 251.250 127.168 L 257 121.563 262.750 127.168 C 269.730 133.972, 271.628 135.001, 277.184 134.996 C 285.437 134.989, 291.989 128.437, 291.996 120.184 C 292.001 114.628, 290.972 112.730, 284.168 105.750 L 278.563 100 284.168 94.250 C 290.972 87.270, 292.001 85.372, 291.996 79.816 C 291.989 71.563, 285.437 65.011, 277.184 65.004 C 271.628 64.999, 269.730 66.028, 262.750 72.832 L 257 78.437 251.250 72.832 C 248.088 69.750, 244.517 66.726, 243.316 66.114 C 239.856 64.349, 232.861 64.787, 229.241 66.995 M 206.572 205.317 C 203.253 209.668, 189.803 221.111, 181.317 226.805 C 172.771 232.537, 156.836 240.123, 146.500 243.379 C 129.874 248.617, 124.283 249.297, 92.790 249.916 L 63.080 250.500 87.156 271.500 C 118.972 299.252, 126.936 308.147, 136.955 327.115 L 141.614 335.935 148.941 328.560 L 156.267 321.184 154.185 318.260 C 153.040 316.652, 151.088 312.898, 149.846 309.918 C 147.794 304.994, 147.558 302.587, 147.250 283.500 C 146.933 263.790, 147.037 262.300, 148.947 259.241 C 150.066 257.448, 152.448 255.088, 154.241 253.995 C 157.324 252.115, 159.337 252.007, 191.508 252.004 L 225.515 252 250.500 227 L 275.485 202 242.293 202 L 209.102 202 206.572 205.317 M 278.744 241.756 L 247 273.512 246.988 286.506 C 246.981 294.127, 246.425 301.567, 245.643 304.500 C 240.925 322.195, 227.195 335.925, 209.500 340.643 C 203.345 342.284, 191.431 342.389, 185.341 340.856 L 180.797 339.711 166.322 354.187 L 151.847 368.662 153.060 379.081 C 154.535 391.745, 153.782 407.350, 151.049 420.758 C 149.949 426.158, 145.462 441.571, 141.079 455.009 C 136.695 468.447, 133.206 479.539, 133.325 479.658 C 133.443 479.777, 145.231 472.199, 159.520 462.819 C 173.809 453.439, 190.450 443.366, 196.500 440.433 C 228.724 424.815, 266.322 422.313, 300.569 433.507 C 315.322 438.329, 325.517 443.876, 354.488 462.843 C 368.782 472.200, 380.570 479.763, 380.684 479.649 C 380.798 479.535, 377.305 468.447, 372.921 455.009 C 368.538 441.571, 364.043 426.119, 362.933 420.670 C 358.788 400.334, 359.331 379.655, 364.552 359 C 370.246 336.474, 381.691 315.419, 397.711 298 C 400.493 294.975, 413.603 283.050, 426.844 271.500 L 450.920 250.500 421.210 249.916 C 398.785 249.475, 389.538 248.913, 383.500 247.624 C 358.385 242.259, 335.376 230.983, 318.212 215.626 C 314.754 212.532, 311.601 210, 311.206 210 C 310.811 210, 296.203 224.290, 278.744 241.756 M 304.500 253.350 C 291.387 257.692, 281.826 265.973, 276.113 277.935 C 272.610 285.269, 272.500 285.851, 272.500 297 C 272.500 308.149, 272.610 308.731, 276.113 316.065 C 280.878 326.043, 287.957 333.122, 297.935 337.887 C 305.269 341.390, 305.851 341.500, 317 341.500 C 328.149 341.500, 328.731 341.390, 336.065 337.887 C 346.043 333.122, 353.122 326.043, 357.887 316.065 C 361.390 308.731, 361.500 308.149, 361.500 297 C 361.500 285.851, 361.390 285.269, 357.887 277.935 C 353.113 267.939, 346.039 260.871, 336.065 256.131 C 329.153 252.846, 327.637 252.514, 318.500 252.281 C 312.209 252.120, 307.017 252.517, 304.500 253.350 M 177 287.341 C 177 299.576, 182.240 307.851, 191.735 310.611 C 196.462 311.985, 197.538 311.985, 202.265 310.611 C 211.760 307.851, 217 299.576, 217 287.341 L 217 282 197 282 L 177 282 177 287.341 M 313.170 282.687 C 309.799 283.372, 303.418 290.159, 302.681 293.844 C 301.194 301.279, 305.957 308.708, 313.697 311.027 C 317.495 312.165, 318.294 312.064, 322.666 309.888 C 328.398 307.036, 331.333 302.506, 331.333 296.511 C 331.333 287.637, 322.372 280.817, 313.170 282.687" stroke="none" fill="#040404" fill-rule="evenodd"/></svg>