<svg xmlns="http://www.w3.org/2000/svg" width="512" height="512" viewBox="0 0 512 512" version="1.1"><path d="" stroke="none" fill="#080404" fill-rule="evenodd"/><path d="M 129.500 31.365 C 124.975 33.469, 3.241 139.634, 1.506 142.988 C -2.002 149.772, 0.636 158.978, 7.241 163.005 C 12.531 166.231, 18.769 165.693, 24.888 161.483 C 30 157.967, 30 157.967, 30 199.483 C 30 241, 30 241, 21.212 241 C 14.065 241, 11.604 241.420, 8.036 243.250 C -0.655 247.707, 0 238.032, 0 361.866 C 0 471.264, 0 471.264, 2.155 474.750 C 3.405 476.774, 6.027 479.016, 8.405 480.096 C 12.361 481.893, 20.765 481.957, 255.730 481.978 C 529.469 482.003, 504.310 482.769, 510.190 474.223 C 513.307 469.693, 513.307 469.693, 512.754 324.851 C 512.217 184.350, 512.143 179.897, 510.273 176.294 C 507.157 170.291, 501.653 168, 490.343 168 C 481 168, 481 168, 481 151.595 C 481 135.190, 481 135.190, 484.750 135.658 C 489.870 136.296, 496.749 132.651, 499.176 128.016 C 501.739 123.120, 501.553 116.237, 498.750 112.217 C 495.580 107.671, 414.477 47.310, 409.750 45.979 C 407.121 45.239, 404.879 45.238, 402.250 45.977 C 399.909 46.634, 382.493 58.994, 355.883 78.883 C 315.380 109.157, 313.178 110.966, 311.501 115.359 C 309.967 119.375, 309.901 120.576, 311.001 124.505 C 313.130 132.106, 321.041 137.181, 328.531 135.749 C 331.033 135.271, 331.033 135.271, 330.767 160.766 C 330.500 186.261, 330.500 186.261, 315.500 190.549 C 296.307 196.036, 268.554 205.577, 254.485 211.526 C 248.443 214.081, 242.938 216.406, 242.250 216.693 C 241.266 217.103, 241 210.892, 241 187.545 C 241 157.876, 241 157.876, 245.612 161.188 C 256.628 169.099, 270.594 162.621, 270.437 149.674 C 270.403 146.828, 269.826 143.489, 269.154 142.254 C 268.030 140.184, 148.353 35.631, 143.236 32.248 C 140.063 30.151, 133.076 29.701, 129.500 31.365 M 98.145 98.264 C 61 130.484, 61 130.484, 61 186.242 C 61 242, 61 242, 67.250 242.006 C 70.688 242.009, 77.213 242.301, 81.750 242.654 C 90 243.296, 90 243.296, 90 217.785 C 90 203.753, 90.452 189.849, 91.005 186.886 C 95.342 163.652, 119.192 146.882, 142.272 150.840 C 160.544 153.973, 175.334 167.588, 179.454 185.068 C 180.647 190.129, 180.974 198.557, 180.985 224.601 C 181 257.701, 181 257.701, 193.250 260.868 C 199.988 262.610, 206.512 264.304, 207.750 264.634 C 210 265.233, 210 265.233, 210 197.859 C 210 130.484, 210 130.484, 174.912 99.992 C 155.613 83.221, 138.803 68.722, 137.556 67.772 C 135.303 66.055, 135.057 66.246, 98.145 98.264 M 383.250 96.795 C 361 113.416, 361 113.416, 361 146.208 C 361 171.797, 361.275 178.991, 362.250 178.959 C 362.938 178.936, 369.575 177.882, 377 176.617 C 390.500 174.316, 390.500 174.316, 391 151.908 C 391.473 130.731, 391.623 129.328, 393.737 126.364 C 396.028 123.152, 402.291 119.983, 406.270 120.022 C 410.308 120.062, 416.895 123.779, 418.976 127.192 C 420.823 130.223, 420.993 132.207, 420.996 150.857 C 420.999 168.094, 421.219 171.130, 422.430 170.665 C 423.216 170.364, 429.966 169.800, 437.430 169.413 C 451 168.709, 451 168.709, 451 141.083 C 451 113.456, 451 113.456, 428.810 96.978 C 416.606 87.915, 406.368 80.427, 406.060 80.338 C 405.752 80.248, 395.488 87.654, 383.250 96.795 M 129.071 182.695 C 127.185 183.688, 124.710 185.770, 123.571 187.321 C 121.610 189.993, 121.484 191.643, 121.207 218.381 C 120.914 246.619, 120.914 246.619, 132.656 248.374 C 139.113 249.340, 145.658 250.382, 147.199 250.690 C 150 251.250, 150 251.250, 149.998 221.875 C 149.997 189.720, 149.721 188.002, 143.864 183.711 C 140.081 180.939, 133.294 180.473, 129.071 182.695 M 437.500 200.172 C 429.800 200.657, 422.938 201.252, 422.250 201.495 C 421.340 201.817, 421 205.352, 421 214.500 C 421 232.336, 417.610 241.622, 407.521 251.428 C 401.137 257.632, 393.915 260.952, 368.399 269.410 C 355.693 273.621, 343.888 278.107, 342.165 279.379 C 334.613 284.950, 331.934 291.122, 331.248 304.529 C 330.735 314.557, 330.735 314.557, 346.118 323.398 C 391.337 349.387, 432.765 380.839, 469.250 416.877 C 482 429.471, 482 429.471, 482 314.236 C 482 199, 482 199, 466.750 199.146 C 458.363 199.226, 445.200 199.688, 437.500 200.172 M 366 209.942 C 325.205 218.317, 282.538 231.951, 248.719 247.419 C 240.938 250.978, 240.938 250.978, 241.219 263.167 C 241.500 275.355, 241.500 275.355, 256.500 281.007 C 264.750 284.115, 277.350 289.247, 284.500 292.410 C 302.089 300.192, 300.998 299.997, 301.012 295.367 C 301.029 289.899, 303.394 281.673, 307.134 274.077 C 310.954 266.316, 322.046 254.799, 329.500 250.853 C 332.250 249.397, 344.400 244.951, 356.500 240.972 C 368.600 236.994, 380.150 232.908, 382.166 231.892 C 388.405 228.749, 390.339 224.933, 390.823 214.813 C 391.245 206, 391.245 206, 387.872 206.072 C 386.018 206.112, 376.175 207.853, 366 209.942 M 0.483 362 C 0.483 422.775, 0.603 447.637, 0.750 417.250 C 0.897 386.862, 0.897 337.137, 0.750 306.750 C 0.603 276.362, 0.483 301.225, 0.483 362 M 30 361.500 C 30 451, 30 451, 120.250 450.984 C 210.500 450.967, 210.500 450.967, 200.500 446.618 C 144.141 422.104, 110.996 398.973, 91.870 370.808 C 85.684 361.700, 79.312 347.470, 76.927 337.440 C 71.833 316.019, 77.042 294.028, 90.823 278.774 C 93.221 276.120, 93.817 274.886, 92.857 274.563 C 90.348 273.718, 57.328 272, 43.600 272 C 30 272, 30 272, 30 361.500 M 131.501 284.277 C 124.074 288.268, 112.075 299.968, 109.188 306.035 C 104.323 316.257, 104.478 325.673, 109.727 339 C 121.999 370.156, 157.169 395.664, 228 424.783 C 238.725 429.192, 256.950 436.782, 268.500 441.650 C 289.500 450.500, 289.500 450.500, 374.969 450.761 C 460.438 451.022, 460.438 451.022, 455.969 446.431 C 447.486 437.715, 422.269 414.955, 409.404 404.402 C 344.594 351.241, 267.702 312.105, 186.500 290.949 C 169.902 286.625, 143.351 280.985, 139.789 281.027 C 138.530 281.041, 134.801 282.504, 131.501 284.277" stroke="none" fill="#040404" fill-rule="evenodd"/></svg>