<?xml version="1.0" encoding="UTF-8" standalone="no"?>
<svg
   xml:space="preserve"
   width="217.26877"
   height="99.850716"
   viewBox="0 0 396.98915 181.87808"
   version="1.1"
   id="svg6"
   xmlns="http://www.w3.org/2000/svg"
   xmlns:svg="http://www.w3.org/2000/svg"><defs
     id="defs10" /><path
     d="m 129.3564,39.380598 c 0.12429,-0.103723 0.30809,-0.08608 0.41161,0.0374 0.10351,0.12348 0.0866,0.3087 -0.0366,0.412423 -0.005,0.0042 -0.062,0.0508 -0.16795,0.140062 a 0.29340493,0.29398824 0 0 1 -0.13134,0.355975 c -0.0106,0.0056 -0.31689,0.174283 -0.88905,0.515088 -7.77261,6.706375 -51.613988,45.939852 -69.774954,92.911994 2.763985,-3.87551 7.645147,-8.07701 16.172305,-9.74293 14.0002,-2.73631 18.124347,-5.84095 19.172901,-6.89935 -2.271397,-0.31858 -11.284805,-1.776 -15.799783,-5.39114 a 0.29266552,0.29324736 0 0 1 -0.06866,-0.38032 c 0.0063,-0.0113 0.01373,-0.0212 0.02183,-0.0321 a 0.29291199,0.29349432 0 0 1 0.379212,-0.0685 c 0.0056,0.005 0.01091,0.007 0.0162,0.0109 9.228189,5.58447 22.947759,-1.16071 23.846679,-1.61406 l 16.59447,-18.333247 c -3.15235,0.953618 -12.74215,3.213655 -20.572498,-1.698027 -0.0046,-0.0021 -0.0088,-0.0032 -0.01268,-0.0063 -0.115841,-0.07303 -0.169008,-0.219442 -0.119362,-0.351742 0.007,-0.0187 0.01549,-0.03528 0.0257,-0.05186 0.07183,-0.115719 0.217598,-0.169697 0.349988,-0.120305 10.596802,3.9249 27.508172,-6.360278 28.504612,-6.974503 7.14622,-9.609214 14.27977,-19.196554 21.36367,-28.847751 -2.5147,0.606111 -10.45139,2.139732 -16.72053,-0.840369 -0.14541,-0.07056 -0.20774,-0.243432 -0.13837,-0.390197 0.0694,-0.145354 0.24365,-0.207094 0.38872,-0.139003 0.53167,0.252605 1.07531,0.472046 1.62705,0.6615 19.45353,4.018745 27.34972,-39.535474 18.05851,-40.930092 -43.66745,-0.550368 -45.62618,35.713238 -46.93423,38.24352 -0.002,0.0021 -0.004,0.0067 -0.005,0.01094 a 0.2929472,0.2935296 0 0 1 -0.12781,0.124538 0.2876657,0.2882376 0 0 1 -0.26619,-0.0021 c -0.0521,-0.02752 -0.0965,-0.07056 -0.125,-0.128066 -1.04392,-2.076918 -2.62098,-21.569118 -1.45236,-24.341773 C 98.463498,28.728155 86.155842,49.225835 83.686213,63.023843 82.371471,58.564098 82.490481,52.784881 83.605934,46.086973 72.672877,50.310695 61.637711,82.517101 60.3029,93.702978 L 60.082485,82.241212 c 0.03521,-0.631512 0.137671,-1.593951 0.121474,-2.18736 l -0.42252,-1.744949 C 41.303584,104.9827 49.140625,118.78706 48.613884,120.76944 c -0.226048,0.84989 -2.43618,4.39871 -3.055524,5.45393 -4.121683,7.01755 -8.468709,13.36336 -12.617151,20.22321 -5.782891,9.56299 -8.610254,11.39967 -5.935702,24.19749 2.077742,-1.91394 2.210836,-5.01717 7.837394,-9.30157 1.652053,-1.25809 3.166083,-1.82363 4.199144,-4.39695 13.810771,-34.39341 55.745881,-96.652732 89.159815,-116.581698 0.73871,-0.637157 1.14186,-0.972317 1.15454,-0.983254"
     style="fill:#000000;fill-opacity:1;fill-rule:evenodd;stroke:none;stroke-width:0.035245"
     id="path2" /><path
     d="m 0,87.814746 v 2.72538 c 5.5976858,1.94922 11.837954,4.495731 17.481413,6.440717 2.504135,0.862243 2.310128,2.477362 2.837222,5.115597 0.570754,2.85309 1.815427,6.77376 0.321819,8.24106 l -4.125203,3.85998 c -0.430267,0.36162 -0.582374,0.64492 -0.981303,1.01218 -0.375691,0.34504 -0.683778,0.57754 -1.082708,0.91728 l -3.044608,2.9413 c -0.370762,0.34504 -0.692229,0.5733 -1.086581,0.91516 l -3.0551717,2.93494 c -0.8214493,0.92716 -0.5615995,1.8963 -0.074645,2.92577 1.9904213,4.21279 4.6970137,8.96783 6.7927127,13.17955 0.495405,0.99419 1.383401,1.4112 2.586879,1.20376 2.862925,-0.49392 9.70951,-2.18736 13.027348,-2.93248 1.518607,-0.3408 3.827327,-1.16424 5.439945,-0.82132 l 0.793985,-1.24256 c 2.374915,-3.7178 4.753703,-7.43984 6.912076,-11.11567 l 0.529558,-0.90175 c 0.791169,-1.31207 2.100276,-3.48284 2.141824,-3.64055 0.13908,-0.52355 -0.208443,0.20851 -0.312312,-0.26671 -0.166544,-0.76523 -0.373579,-1.71532 -0.558783,-2.84992 a 108.0366,108.25139 0 0 1 -0.855251,-1.6183 c -3.297064,-6.36698 -5.03503,-13.06806 -5.639938,-21.03922 -0.8049,-10.604815 2.599554,-23.2407 8.333151,-31.765054 2.128444,-3.164263 2.296044,-3.275748 4.228721,-5.755226 1.243969,-1.59642 2.896727,-2.995272 4.136823,-4.275583 0.342945,-0.354917 0.351043,-0.510149 0.740466,-0.825552 l 3.690712,-3.013265 c 8.305335,-6.049462 18.137023,-10.269655 29.252468,-10.70748 0.588359,-0.02434 1.169676,-0.03845 1.743952,-0.04727 4.078726,-7.312839 8.470469,-13.325962 10.982699,-15.122067 l 0.002,0.0035 c 0.99045,-0.704541 2.31118,-0.896465 3.51325,-0.389138 1.84677,0.779335 2.71364,2.913775 1.93549,4.763858 -0.22745,0.539079 -0.21231,3.135334 -0.0683,6.381094 3.01327,-6.520097 8.05076,-13.681937 16.71172,-18.723802 l -0.10352,-2.900721 c -0.38027,-6.6425186 0.86793,-7.0270706 -4.03753,-8.134157 l -9.89389,-2.37149859 c -0.98482,-0.2324952 -4.1164,-0.8675352 -4.77025,-1.2005784 h -0.92778 c -1.72459,0.9261 -1.10067,0.3683232 -2.09112,2.13126479 -0.49752,0.8862336 -0.97814,1.7795232 -1.436571,2.6999784 L 94.204355,15.311877 c -1.825991,3.22812 -1.221435,2.639649 -5.43748,2.81358 -3.851974,0.156643 -4.144921,0.703483 -6.106118,-2.015194 -1.159466,-1.60524 -2.215062,-3.299738 -3.382625,-4.888397 L 74.193808,3.8935048 C 71.777346,0.14394641 71.508341,0.90246641 65.838475,2.8668568 63.797351,3.573868 61.705525,4.2650032 59.65912,4.9529632 53.288575,7.09834 52.756904,6.449188 53.017458,10.692666 l 0.905953,11.609237 c 0.531671,6.335935 0.902784,5.719594 -3.228053,8.508125 -4.307239,2.907072 -3.614659,3.1311 -8.553565,1.050638 -3.928732,-1.657101 -7.885984,-3.196368 -11.794998,-4.883105 -3.203758,-1.383681 -3.46572,-1.465178 -5.418819,0.860127 l -7.442338,9.245477 c -1.501002,1.883952 -3.345302,3.383352 -2.058024,5.273301 l 3.569589,4.703177 c 1.193267,1.567843 2.330198,3.094762 3.573463,4.70106 l 2.764337,3.653597 c 0.295412,0.381377 0.590472,0.692546 0.850674,1.145541 1.019682,1.782699 -0.629907,4.606157 -1.35312,6.299597 -0.878138,2.058588 -1.327417,4.38354 -3.304107,4.961427 L 7.4212117,70.392777 C 1.253476,71.421541 1.7883159,70.586817 0.73941,80.274705 0.5827255,81.720126 0.2802716,86.950386 0,87.814746 Z m 39.436608,74.678934 c -0.242244,1.1466 -0.377803,2.01096 -0.317594,2.31966 0.276047,1.41755 2.849898,2.52464 4.536105,3.44404 1.342557,0.73206 9.634864,5.57424 10.245405,5.72312 1.910143,0.46746 3.188618,-1.4486 4.78856,-3.10782 l 7.945841,-8.0262 c 3.825567,-3.99334 2.62068,-3.3209 11.428462,-1.37839 3.058693,0.67491 3.689304,0.57119 4.61427,3.36607 l 3.993519,11.99414 c 0.501038,1.50822 1.129536,4.28864 2.116473,4.8764 l 0.765817,0.45652 h 4.353365 l 11.418959,-1.08732 c 1.19467,-0.15312 2.04112,-0.77934 2.31646,-1.83562 0.55808,-2.1422 0.97497,-4.62168 1.44256,-6.8355 0.48871,-2.31508 0.97426,-4.54548 1.43727,-6.83868 1.37002,-6.78258 0.71828,-5.21826 8.35498,-8.18602 3.39988,-1.31982 3.65937,-1.46412 5.98007,0.4664 l 9.1546,7.38552 c 5.48008,4.38566 4.1678,4.35708 9.99471,-0.0882 1.60804,-1.2281 3.11749,-2.356 4.70053,-3.5721 0.82744,-0.6361 4.34034,-3.13886 4.64702,-3.62961 1.01827,-1.62605 -0.68272,-4.65237 -1.26475,-6.24879 -1.47072,-4.03956 -3.03651,-7.9888 -4.57096,-11.98744 -1.02144,-2.66258 -0.14401,-3.26446 1.62389,-5.68466 4.26604,-5.8399 2.74074,-5.16852 11.14044,-4.25336 2.47526,0.26918 4.96426,0.55566 7.46417,0.80932 2.46259,0.24908 5.42551,1.2027 6.45047,-0.86436 l 4.43963,-12.1088 c 0.61688,-1.77741 2.26506,-4.66684 0.69927,-6.0671 -0.26126,-0.23497 -0.91123,-0.61282 -1.25911,-0.88518 L 169.796,104.5297 c -7.28072,-5.281059 -6.50153,-4.1521 -6.15928,-9.962362 0.20809,-3.535761 -0.0359,-3.963355 2.84003,-5.411952 l 11.02355,-5.513558 c 0.92074,-0.492862 1.83937,-0.91975 2.7573,-1.377331 1.46297,-0.729591 1.33938,-0.570831 2.10943,-1.999671 v -0.937389 c -0.33239,-0.702072 -0.90279,-3.949949 -1.1232,-4.962132 l -2.18337,-10.084788 c -0.44013,-1.93158 -0.57674,-3.214714 -2.70484,-3.391114 -5.75331,-0.480866 -11.52,-0.72324 -17.29233,-1.115906 -2.08584,-0.14112 -2.52773,-1.108851 -3.38932,-2.613896 -2.83687,-4.955781 -2.83405,-4.637203 -0.57251,-8.389936 l 6.83426,-11.570782 c 0.77251,-1.311005 2.04394,-2.821342 0.65174,-4.385657 -0.95349,-1.070748 -2.43689,-2.67246 -3.71501,-3.869863 -0.081,0.43218 -0.1676,0.866477 -0.25985,1.299715 -0.7454,3.49519 -1.8788,7.097983 -3.3784,10.450642 -1.45664,3.256697 -3.25657,6.27102 -5.38748,8.75826 0.44224,0.111485 0.87109,0.306583 1.26122,0.595526 1.61931,1.187172 1.96965,3.467319 0.78272,5.090199 -3.6474,4.969893 -7.43459,10.091138 -11.28586,15.281532 2.1876,5.26554 3.50762,10.955851 3.93155,17.395509 0.84504,12.837334 -3.44213,25.899754 -11.0577,35.654674 -1.47073,1.8843 -2.92314,3.63736 -4.69631,5.28529 -0.68801,0.63963 -0.913,1.06617 -1.64009,1.63841 l -3.66923,3.03196 c -2.3052,1.83668 -5.15967,3.51918 -8.1733,5.08702 -14.87059,7.73056 -33.656885,7.55204 -48.447901,-0.21168 -1.361571,-0.71442 -3.109748,-1.7333 -4.745956,-2.78959 l -0.06127,0.085 c -0.940107,1.32406 -2.688283,1.8963 -4.269916,1.28454 -1.870708,-0.72571 -2.800956,-2.83228 -2.077742,-4.7067 l 0.446814,-1.14096 c -5.656486,9.90486 -10.275334,19.18774 -13.412545,27.00014 -0.933769,2.32636 -2.052391,3.50577 -3.2946,4.4608 z"
     style="mix-blend-mode:normal;fill:#ff8c44;fill-opacity:1;fill-rule:evenodd;stroke:none;stroke-width:0.035245"
     id="path4" /><text
     xml:space="preserve"
     style="font-size:116.94px;fill:#ff8c44;fill-opacity:1;stroke-width:1.82718"
     x="193.63066"
     y="121.40118"
     id="text170"><tspan
       id="tspan168"
       style="font-style:normal;font-variant:normal;font-weight:normal;font-stretch:normal;font-size:116.94px;font-family:Lobster;-inkscape-font-specification:'Lobster, Normal';font-variant-ligatures:normal;font-variant-caps:normal;font-variant-numeric:normal;font-variant-east-asian:normal;fill:#ff8c44;fill-opacity:1;stroke-width:1.82718"
       x="193.63066"
       y="121.40118">NGE</tspan></text></svg>
