<?xml version="1.0" encoding="UTF-8" standalone="no"?>
<!-- Created with Inkscape (http://www.inkscape.org/) -->

<svg
   version="1.1"
   id="svg2"
   width="636.90668"
   height="636.90668"
   viewBox="0 0 636.90668 636.90668"
   sodipodi:docname="trevclar - Name Generator Extension-01.eps"
   xmlns:inkscape="http://www.inkscape.org/namespaces/inkscape"
   xmlns:sodipodi="http://sodipodi.sourceforge.net/DTD/sodipodi-0.dtd"
   xmlns="http://www.w3.org/2000/svg"
   xmlns:svg="http://www.w3.org/2000/svg">
  <defs
     id="defs6">
    <clipPath
       clipPathUnits="userSpaceOnUse"
       id="clipPath20">
      <path
         d="m 3996.67,2427.73 -200.06,200.06 -583.44,-583.45 c -167.78,-167.77 -391.84,-245.82 -612,-234.08 -186.68,9.88 -370.5,84.38 -514.82,223.35 -3.65,3.51 -7.31,7.11 -10.93,10.73 -5.41,5.41 -10.77,10.9 -15.97,16.44 -151.8,139.21 -388.65,135.29 -535.67,-11.74 l -518.47,-518.46 c -81.408,-81.42 -213.404,-81.42 -294.818,0 -81.41,81.41 -81.41,213.42 0,294.82 l 518.458,518.46 c 167.77,167.77 391.83,245.83 611.99,234.08 186.49,-9.88 370.2,-84.21 514.42,-223.01 3.82,-3.62 7.58,-7.31 11.34,-11.07 5.57,-5.58 11.08,-11.22 16.43,-16.97 0,-0.01 0.01,-0.01 0.01,-0.01 151.87,-138.67 388.28,-134.57 535.17,12.31 l 583.44,583.45 -192.34,192.34 784.89,97.63 z M 2366.7,1206.13 1848.23,687.66 c -81.41,-81.41 -213.4,-81.41 -294.83,0 v 0.012 c -81.41,81.406 -81.41,213.406 0,294.816 l 518.47,518.462 c 80.47,80.47 117.78,187.8 112.5,293.39 124.68,-69.92 264.66,-111.16 409.62,-118.84 0.52,-0.02 1.06,-0.03 1.58,-0.06 -21.22,-171.7 -97.37,-337.81 -228.87,-469.31 z m -200.76,1965.55 608.13,557.67 -172.39,187.99 788.38,63.6 -117.65,-697.89 -13.83,-82.04 -202.7,221.04 -608.14,-557.67 c -83.88,-76.92 -125.81,-182.52 -125.12,-288.23 -121.51,75.22 -259.56,122.47 -404.06,136.41 -0.52,0.05 -1.05,0.08 -1.57,0.13 28.61,170.62 111.88,333.29 248.95,458.99 z m 222.44,1605.08 C 1069.31,4776.76 0,3707.44 0,2388.38 0,1069.32 1069.31,0 2388.38,0 c 1319.06,0 2388.38,1069.32 2388.38,2388.38 0,1319.06 -1069.32,2388.38 -2388.38,2388.38 z"
         id="path18" />
    </clipPath>
    <linearGradient
       x1="0"
       y1="0"
       x2="1"
       y2="0"
       gradientUnits="userSpaceOnUse"
       gradientTransform="matrix(-4631.37,-3415.64,-3415.64,4631.37,4910.57,4248.5)"
       spreadMethod="pad"
       id="linearGradient30">
      <stop
         style="stop-opacity:1;stop-color:#8d42a6"
         offset="0"
         id="stop22" />
      <stop
         style="stop-opacity:1;stop-color:#485bb2"
         offset="0.534211"
         id="stop24" />
      <stop
         style="stop-opacity:1;stop-color:#61b5e8"
         offset="0.969849"
         id="stop26" />
      <stop
         style="stop-opacity:1;stop-color:#61b5e8"
         offset="1"
         id="stop28" />
    </linearGradient>
  </defs>
  <sodipodi:namedview
     id="namedview4"
     pagecolor="#ffffff"
     bordercolor="#000000"
     borderopacity="0.25"
     inkscape:showpageshadow="2"
     inkscape:pageopacity="0.0"
     inkscape:pagecheckerboard="0"
     inkscape:deskcolor="#d1d1d1" />
  <g
     id="g8"
     inkscape:groupmode="layer"
     inkscape:label="ink_ext_XXXXXX"
     transform="matrix(1.3333333,0,0,-1.3333333,0,636.90667)">
    <g
       id="g10"
       transform="scale(0.1)">
      <path
         d="m 2059.45,2060.78 c 4.19,-3.79 8.32,-7.71 12.38,-11.77 5.01,-5.01 9.89,-10.16 14.52,-15.4 -4.63,5.24 -9.51,10.39 -14.51,15.4 -4.07,4.06 -8.2,7.98 -12.39,11.77"
         style="fill:#485bb2;fill-opacity:1;fill-rule:nonzero;stroke:none"
         id="path12" />
      <g
         id="g14">
        <g
           id="g16"
           clip-path="url(#clipPath20)">
          <path
             d="m 3996.67,2427.73 -200.06,200.06 -583.44,-583.45 c -167.78,-167.77 -391.84,-245.82 -612,-234.08 -186.68,9.88 -370.5,84.38 -514.82,223.35 -3.65,3.51 -7.31,7.11 -10.93,10.73 -5.41,5.41 -10.77,10.9 -15.97,16.44 -151.8,139.21 -388.65,135.29 -535.67,-11.74 l -518.47,-518.46 c -81.408,-81.42 -213.404,-81.42 -294.818,0 -81.41,81.41 -81.41,213.42 0,294.82 l 518.458,518.46 c 167.77,167.77 391.83,245.83 611.99,234.08 186.49,-9.88 370.2,-84.21 514.42,-223.01 3.82,-3.62 7.58,-7.31 11.34,-11.07 5.57,-5.58 11.08,-11.22 16.43,-16.97 0,-0.01 0.01,-0.01 0.01,-0.01 151.87,-138.67 388.28,-134.57 535.17,12.31 l 583.44,583.45 -192.34,192.34 784.89,97.63 z M 2366.7,1206.13 1848.23,687.66 c -81.41,-81.41 -213.4,-81.41 -294.83,0 v 0.012 c -81.41,81.406 -81.41,213.406 0,294.816 l 518.47,518.462 c 80.47,80.47 117.78,187.8 112.5,293.39 124.68,-69.92 264.66,-111.16 409.62,-118.84 0.52,-0.02 1.06,-0.03 1.58,-0.06 -21.22,-171.7 -97.37,-337.81 -228.87,-469.31 z m -200.76,1965.55 608.13,557.67 -172.39,187.99 788.38,63.6 -117.65,-697.89 -13.83,-82.04 -202.7,221.04 -608.14,-557.67 c -83.88,-76.92 -125.81,-182.52 -125.12,-288.23 -121.51,75.22 -259.56,122.47 -404.06,136.41 -0.52,0.05 -1.05,0.08 -1.57,0.13 28.61,170.62 111.88,333.29 248.95,458.99 z m 222.44,1605.08 C 1069.31,4776.76 0,3707.44 0,2388.38 0,1069.32 1069.31,0 2388.38,0 c 1319.06,0 2388.38,1069.32 2388.38,2388.38 0,1319.06 -1069.32,2388.38 -2388.38,2388.38"
             style="fill:url(#linearGradient30);fill-opacity:1;fill-rule:nonzero;stroke:none"
             id="path32" />
        </g>
      </g>
    </g>
  </g>
</svg>
