<?xml version="1.0" encoding="UTF-8"?>
<svg width="100" height="100" version="1.1" viewBox="0 0 1200 1200" xmlns="http://www.w3.org/2000/svg">
 <path d="m628.2 137.49c-13.316-11.039-32.754-11.039-46.07 0l-438.39 365.81c-8.1602 6.8398-12.957 16.918-12.957 27.594v131.38c0 10.559 4.6797 20.637 12.719 27.473l438.39 372.52c6.7188 5.7578 14.996 8.5195 23.273 8.5195s16.559-2.8789 23.273-8.5195l440.91-372.53c8.0391-6.8398 12.719-16.918 12.719-27.473l0.003906-131.25c0-10.68-4.8008-20.875-12.957-27.715zm381.88 479.18-185.36-47.152-123.82-278.22 309.3 256.63zm-404.8 42.234-147.09-75.469 147.09-329.93 147.09 329.93zm-198.08-20.637 162.09 83.141v235.63l-326.09-277.02zm234.07 83.141 162.09-83.145 165.57 42.23-327.65 276.79zm-131.98-429.27-123.57 277.27-182.96 46.672v-68.145z"/>
</svg>
