<?xml version="1.0" encoding="UTF-8"?>
<svg width="100" height="100" version="1.1" viewBox="0 0 1200 1200" xmlns="http://www.w3.org/2000/svg">
 <path d="m1025.8 452.07-149.01-205.16c-4.4375-6.1172-10.797-10.68-17.996-13.078l-241.15-78.344c-7.1992-2.3984-14.996-2.3984-22.195 0l-241.15 78.344c-7.1992 2.3984-13.559 6.957-17.996 13.078l-149.12 205.16c-4.4375 6.1172-6.8398 13.559-6.8398 21.117v253.51c0 7.5586 2.3984 14.996 6.8398 21.117l149.01 205.16c4.4375 6.1172 10.797 10.68 17.996 13.078l241.15 78.344c3.5977 1.1992 7.3203 1.8008 11.156 1.8008 3.8398 0 7.5586-0.60156 11.156-1.8008l241.15-78.344c7.1992-2.3984 13.559-6.957 17.996-13.078l149.01-205.16c4.4375-6.1172 6.8398-13.559 6.8398-21.117v-253.51c0-7.5586-2.3984-14.996-6.8398-21.113zm-84.703 5.8789-112.06 48.109-186.56-135.57 0.003906-131.13 182.84 59.387zm-226.03 309.54h-217.16l-67.066-206.48 175.64-127.66 175.64 127.66zm-327.54-468.75 182.84-59.387v131.25l-186.45 135.45-112.06-48.109zm-135.21 416.32v-187.16l107.02 45.949 72.105 221.84-64.188 77.504zm354.17 257.35-179.61-58.309 61.789-74.625h235.51l61.789 74.625zm239.23-99.223-64.188-77.504 72.105-221.84 107.02-45.949v187.16z"/>
</svg>
