<?xml version="1.0" encoding="UTF-8"?>
<svg width="100" height="100" version="1.1" viewBox="0 0 1200 1200" xmlns="http://www.w3.org/2000/svg">
 <path d="m634.91 143.25c-6.8398-8.8789-17.398-14.039-28.555-14.039s-21.715 5.1602-28.555 14.039l-453.27 587.4c-6.2383 8.0391-8.7578 18.355-6.957 28.434 1.8008 9.957 7.7969 18.836 16.438 24.113l453.39 282.18c5.8789 3.5977 12.477 5.3984 19.078 5.3984 6.5977 0 13.199-1.8008 19.078-5.3984l453.39-282.18c8.6367-5.3984 14.637-14.156 16.438-24.113 1.8008-9.957-0.71875-20.277-6.957-28.434zm-64.43 127.54v699.34l-364.61-226.99zm71.988 699.22v-699.22l364.61 472.34z"/>
</svg>
