<?xml version="1.0" encoding="UTF-8"?>
<svg width="100" height="100" version="1.1" viewBox="0 0 1200 1200" xmlns="http://www.w3.org/2000/svg">
 <path d="m1004 338.45-383.45-162.33c-9-3.8398-19.078-3.8398-28.074 0l-383.44 162.33c-13.199 5.6406-21.836 18.598-21.957 32.875v0.23828 451.23c0 14.277 8.5195 27.234 21.594 32.992l383.44 167.96c4.5586 2.0391 9.4766 3 14.398 3 4.918 0 9.8398-0.96094 14.398-3l383.44-167.96c13.078-5.7578 21.594-18.715 21.594-32.992l0.003906-451.23v-0.23828c-0.12109-14.281-8.6367-27.238-21.953-32.875zm-397.48-90.102 292.5 123.82-292.5 128.13-292.5-128.14zm-347.57 178.28 311.57 136.41v372.64l-311.57-136.41zm383.56 509.06v-372.64l311.46-136.41v372.64z"/>
</svg>
