<?xml version="1.0" encoding="UTF-8"?>
<svg width="100" height="100" version="1.1" viewBox="0 0 1200 1200" xmlns="http://www.w3.org/2000/svg">
 <path d="m969.41 379.48-336.53-203.36c-11.039-6.5977-24.715-6.957-35.992-0.71875l-344.33 189.68c-11.277 6.2383-18.355 17.996-18.598 30.832l-7.7969 393.16c-0.23828 12.836 6.3594 24.836 17.398 31.555l336.53 203.36c5.7578 3.4805 12.117 5.1602 18.598 5.1602 6 0 11.996-1.4414 17.398-4.4375l344.33-189.8c11.277-6.2383 18.355-17.996 18.598-30.832l7.7969-393.16c0.23438-12.84-6.3633-24.84-17.402-31.438zm-59.629 285.54-205.88-361.97 210.44 127.18zm-28.914 94.902-542.41-5.3984 270.79-472.34zm-366.53-456.87-213.92 373.12 5.1602-258.07zm85.062 648.47-206-124.42 424.23 4.1992z"/>
</svg>
