<svg xmlns="http://www.w3.org/2000/svg" width="512" height="512" viewBox="0 0 512 512" version="1.1"><path d="" stroke="none" fill="#080404" fill-rule="evenodd"/><path d="M 71 2.161 C 68.134 4.076, 65.581 8.286, 56.904 25.404 L 46.308 46.308 25.404 56.904 C 1.078 69.235, -0.452 70.637, 0.214 80 C 0.851 88.951, 1.936 89.884, 25.460 101.699 L 46.655 112.345 57.321 133.580 C 67.620 154.085, 68.136 154.887, 72.309 156.908 C 77.337 159.342, 80.797 159.536, 85.282 157.638 C 90.230 155.544, 91.758 153.266, 102.500 131.957 L 112.500 112.122 132.615 102.116 C 154.609 91.175, 157.438 88.929, 158.547 81.534 C 159.073 78.028, 158.746 76.107, 157.015 72.532 C 154.858 68.075, 154.404 67.780, 133.580 57.321 L 112.345 46.655 101.699 25.460 C 89.884 1.936, 88.951 0.851, 80 0.214 C 75.487 -0.107, 73.872 0.243, 71 2.161 M 311 2.472 C 297.989 4.389, 291.484 5.885, 279.500 9.714 C 228.843 25.899, 190.588 62.674, 171.959 113.094 C 168.500 122.454, 163.734 141.496, 161.948 153.082 L 160.780 160.665 149.371 162.370 C 66.610 174.742, 3.213 245.174, 0.281 328.005 C -1.727 384.722, 21.046 437.913, 61.500 470.995 C 125.086 522.994, 221.615 524.496, 285.500 474.480 C 295.178 466.903, 309.959 451.873, 316.457 443 C 333 420.414, 344.753 391.555, 349.456 361.971 C 350.367 356.242, 351.200 351.509, 351.306 351.453 C 351.413 351.398, 357.382 350.406, 364.570 349.248 C 428.740 338.919, 482.557 293.026, 503.339 230.913 C 513.247 201.297, 514.624 168.876, 507.363 136.117 C 491.235 63.351, 435.160 12.443, 360.136 2.455 C 347.292 0.745, 322.659 0.754, 311 2.472 M 323.883 31.038 C 265.714 36.280, 217.054 74.819, 198.481 130.356 C 195.255 140.002, 191.126 159.459, 192.098 160.431 C 192.349 160.682, 197.267 161.634, 203.027 162.546 C 278.455 174.489, 337.449 233.654, 349.537 309.481 C 350.412 314.970, 351.289 319.623, 351.487 319.820 C 352.352 320.685, 374.406 315.727, 383.503 312.622 C 396.076 308.330, 402.567 305.404, 412.355 299.618 C 469.632 265.755, 494.653 194.078, 472.493 127.349 C 459.660 88.707, 432.123 58.646, 395 42.754 C 373.858 33.704, 345.727 29.069, 323.883 31.038 M 75.015 58.024 C 72.685 62.686, 70.042 67.338, 69.140 68.362 C 68.238 69.386, 63.460 72.254, 58.523 74.736 L 49.546 79.248 57.523 83.231 C 61.910 85.422, 66.559 88.178, 67.853 89.357 C 69.147 90.536, 72.234 95.528, 74.714 100.451 L 79.222 109.403 84.361 99.451 L 89.500 89.500 99.451 84.361 L 109.403 79.222 100.451 74.714 C 95.528 72.234, 90.536 69.147, 89.357 67.853 C 88.178 66.559, 85.422 61.911, 83.232 57.524 L 79.250 49.548 75.015 58.024 M 147.500 194.058 C 95.867 204.764, 56.943 237.885, 40.035 285.500 C 26.379 323.959, 29.241 367.692, 47.832 404.639 C 54.759 418.405, 63.552 430.303, 74.846 441.192 C 99.380 464.846, 128.918 477.734, 165.769 480.862 C 198.307 483.623, 232.770 473.927, 260.313 454.261 C 270.812 446.765, 285.985 431.604, 293.312 421.287 C 305.697 403.849, 315.096 381.754, 318.635 361.762 C 319.582 356.407, 320.156 351.823, 319.910 351.576 C 319.663 351.330, 314.970 350.412, 309.481 349.537 C 264.695 342.397, 224.720 318.728, 197.108 283.001 C 177.677 257.859, 166.063 229.704, 161.531 196.750 C 160.765 191.185, 161.074 191.244, 147.500 194.058 M 192.454 196.144 C 201.859 257.725, 247.753 305.866, 308.759 318.145 C 314.450 319.290, 319.358 319.975, 319.667 319.667 C 319.975 319.358, 319.290 314.450, 318.145 308.759 C 305.862 247.730, 257.748 201.862, 196.144 192.454 L 191.788 191.788 192.454 196.144 M 436.500 369.718 C 431.317 370.977, 428.429 374.909, 419.598 392.731 L 410.696 410.696 392.731 419.598 C 373.281 429.236, 370.593 431.442, 369.428 438.724 C 368.915 441.935, 369.264 443.915, 370.966 447.430 C 373.105 451.848, 373.708 452.252, 391.834 461.415 L 410.500 470.850 419.732 489.175 C 425.819 501.258, 429.891 508.165, 431.686 509.451 C 433.345 510.639, 436.577 511.553, 439.955 511.789 C 449.182 512.434, 450.904 510.661, 461.589 489.500 L 470.679 471.500 489.089 462 C 510.687 450.855, 512.433 449.160, 511.789 439.955 C 511.553 436.574, 510.640 433.348, 509.451 431.691 C 508.177 429.916, 501.079 425.706, 489 419.562 L 470.500 410.150 461.249 391.664 C 452.398 373.977, 451.811 373.087, 447.683 371.089 C 443.497 369.062, 440.641 368.712, 436.500 369.718 M 437.505 425.560 C 433.844 432.346, 432.120 433.997, 424.686 437.835 L 418.872 440.836 426.142 444.668 C 432.909 448.235, 433.667 448.976, 437.116 455.400 L 440.820 462.299 443.810 456.400 C 447.347 449.419, 449.663 447.140, 456.897 443.519 L 462.294 440.817 455.397 437.120 C 449.071 433.729, 448.210 432.867, 445 426.714 C 443.075 423.024, 441.275 420.006, 441 420.006 C 440.725 420.007, 439.152 422.506, 437.505 425.560" stroke="none" fill="#040404" fill-rule="evenodd"/></svg>