<svg xmlns="http://www.w3.org/2000/svg" width="512" height="512" viewBox="0 0 512 512" version="1.1"><path d="" stroke="none" fill="#080404" fill-rule="evenodd"/><path d="M 59.487 1.799 C 48.120 5.729, 37.127 15.210, 32.595 24.992 C 30.582 29.338, 29.441 30.439, 24.279 33.018 C 16.366 36.973, 7.840 45.980, 3.762 54.695 C 1.150 60.277, 0.519 63.018, 0.171 70.315 C -0.773 90.049, 8.281 105.675, 25.500 114.033 C 32.408 117.386, 42.251 119.201, 48.716 118.315 L 53.188 117.702 78.995 143.495 L 104.802 169.288 102.249 175.894 C 97.986 186.928, 94.126 201.613, 92.402 213.357 C 90.101 229.034, 90.865 255.509, 94.032 269.850 L 96.318 280.201 92.909 282.807 C 84.315 289.377, 77.802 298.346, 73.888 309 C 71.886 314.449, 71.500 317.359, 71.500 327 C 71.500 340.781, 73.300 347.308, 79.754 356.933 L 84.085 363.391 68.792 378.773 L 53.500 394.154 48.780 393.628 C 33.186 391.889, 15.866 400.403, 6.957 414.187 C 1.692 422.334, -0.355 430.681, 0.177 441.829 C 0.554 449.704, 1.066 451.749, 4.300 458.292 C 8.662 467.118, 18.252 476.785, 25.326 479.487 C 29.281 480.997, 30.198 481.960, 32.890 487.428 C 36.939 495.652, 45.853 504.138, 54.734 508.223 C 72.165 516.240, 95.001 511.330, 107.344 496.912 C 115.098 487.853, 119.589 474.136, 118.373 463.220 L 117.847 458.500 136.035 440.500 C 148.666 427.999, 154.382 422.958, 154.748 424 C 155.037 424.825, 158.025 428.251, 161.387 431.614 C 165.860 436.089, 169.052 438.302, 173.288 439.864 C 179.014 441.978, 179.885 442, 256.288 441.976 L 333.500 441.953 339.166 439.622 C 346.111 436.766, 349.715 433.915, 354.116 427.797 C 355.977 425.210, 357.730 423.073, 358.010 423.047 C 358.291 423.021, 366.568 431.057, 376.404 440.904 L 394.286 458.807 393.628 462.927 C 392.664 468.951, 394.630 479.631, 397.966 486.500 C 406.329 503.722, 421.952 512.773, 441.685 511.829 C 448.982 511.481, 451.723 510.850, 457.305 508.238 C 466.283 504.037, 475.165 495.537, 479.023 487.452 C 481.640 481.969, 482.477 481.090, 486.571 479.526 C 493.535 476.866, 503.250 467.222, 507.478 458.772 C 509.415 454.899, 511 450.918, 511 449.925 C 511 448.931, 511.450 447.840, 512 447.500 C 512.550 447.160, 513 442.832, 513 437.882 C 513 432.932, 512.629 429.111, 512.176 429.391 C 511.723 429.671, 510.784 427.682, 510.089 424.970 C 508.460 418.615, 502.519 409.456, 496.912 404.656 C 487.873 396.919, 473.395 392.204, 462.879 393.573 L 458.500 394.143 443.208 378.767 L 427.915 363.391 432.230 356.946 C 434.604 353.401, 437.383 348.025, 438.406 345 C 440.768 338.017, 441.591 323.162, 440.031 315.648 C 437.598 303.928, 428.894 290.261, 419.129 282.826 L 415.758 280.260 418.129 268.880 C 420.208 258.900, 420.495 254.855, 420.460 236 C 420.422 216.061, 420.216 213.629, 417.621 202.500 C 416.082 195.900, 413.054 185.786, 410.894 180.025 L 406.965 169.549 432.733 143.699 L 458.500 117.850 463.220 118.374 C 474.139 119.588, 487.854 115.098, 496.912 107.344 C 502.435 102.616, 508.293 93.655, 509.995 87.331 C 510.710 84.674, 511.679 82.073, 512.147 81.550 C 513.386 80.170, 513.243 62.732, 512 63.500 C 511.450 63.840, 511 63.304, 510.999 62.309 C 510.999 61.314, 509.655 57.661, 508.014 54.191 C 504.110 45.940, 495.397 36.854, 487.698 33.007 C 482.424 30.372, 481.342 29.307, 478.801 24.253 C 474.714 16.124, 466.968 8.617, 458.161 4.248 C 451.749 1.068, 449.684 0.553, 441.829 0.177 C 421.942 -0.773, 406.355 8.225, 397.966 25.500 C 394.629 32.370, 392.664 43.049, 393.628 49.075 L 394.287 53.197 371.003 76.497 L 347.720 99.796 342.610 96.531 C 328.609 87.586, 309.095 79.690, 290.500 75.446 C 274.604 71.818, 249.228 70.926, 232.356 73.402 C 208.516 76.901, 186.273 85.191, 166.249 98.038 C 164.075 99.433, 163.214 98.701, 140.924 76.491 L 117.849 53.500 118.374 48.780 C 120.087 33.377, 111.431 15.619, 98.014 7.009 C 87.386 0.189, 70.677 -2.071, 59.487 1.799 M 68.500 31.543 C 62.953 33.450, 60.314 36.914, 58.889 44.158 C 57.186 52.814, 52.768 57.195, 44.004 58.920 C 39.521 59.801, 36.884 60.962, 34.936 62.910 C 27.153 70.694, 30.613 84.006, 41.248 87.192 C 44.381 88.131, 46.045 88.036, 50.377 86.670 C 56.526 84.732, 59.764 84.584, 63.685 86.060 C 65.233 86.643, 78.749 99.331, 93.720 114.256 C 108.692 129.181, 121.092 141.192, 121.276 140.946 C 126.190 134.405, 132.738 126.623, 135.920 123.543 L 140.007 119.587 113.090 92.543 C 83.274 62.587, 83.219 62.507, 86.060 53.039 C 88.057 46.387, 87.817 40.571, 85.413 37.351 C 80.860 31.253, 75.098 29.274, 68.500 31.543 M 435.169 31.017 C 430.763 32.027, 426.229 36.504, 424.808 41.248 C 423.869 44.381, 423.964 46.045, 425.330 50.377 C 427.268 56.526, 427.416 59.764, 425.940 63.685 C 425.357 65.233, 413.008 78.425, 398.498 93 L 372.116 119.500 378.308 126.533 C 381.713 130.402, 385.936 135.352, 387.690 137.533 L 390.881 141.500 418.190 114.310 C 433.211 99.355, 446.767 86.643, 448.315 86.060 C 452.236 84.584, 455.474 84.732, 461.623 86.670 C 465.955 88.036, 467.619 88.131, 470.752 87.192 C 481.387 84.006, 484.847 70.694, 477.064 62.910 C 475.116 60.962, 472.479 59.801, 467.996 58.920 C 459.315 57.211, 454.810 52.797, 453.153 44.371 C 452.509 41.098, 451.284 37.422, 450.430 36.204 C 447.511 32.037, 440.750 29.739, 435.169 31.017 M 0.360 73 C 0.360 78.225, 0.529 80.362, 0.735 77.750 C 0.941 75.138, 0.941 70.862, 0.735 68.250 C 0.529 65.638, 0.360 67.775, 0.360 73 M 243.636 103.037 C 212.250 105.916, 183.545 119.449, 160.997 141.997 C 124.665 178.329, 112.627 229.565, 128.568 280.027 C 131.545 289.451, 131.158 293.612, 126.844 298.525 C 125.188 300.411, 121.771 302.601, 118.836 303.656 C 108.121 307.509, 101.769 316.197, 101.701 327.090 C 101.640 337.044, 106.913 344.732, 117 349.397 C 121.065 351.277, 123.921 351.528, 146.549 351.989 C 174.212 352.553, 175.042 352.740, 179.044 359.304 C 180.824 362.224, 180.993 364.464, 180.996 385.250 C 181.001 413.932, 179.773 412, 198 412 L 211 412 211.004 397.250 C 211.007 384.296, 211.249 382.103, 212.995 379.241 C 218.884 369.582, 233.116 369.582, 239.005 379.241 C 240.751 382.103, 240.993 384.296, 240.996 397.250 L 241 412 256 412 L 271 412 271.004 397.250 C 271.007 384.296, 271.249 382.103, 272.995 379.241 C 278.884 369.582, 293.116 369.582, 299.005 379.241 C 300.751 382.103, 300.993 384.296, 300.996 397.250 L 301 412 314 412 C 332.227 412, 330.999 413.932, 331.004 385.250 C 331.007 364.464, 331.176 362.224, 332.956 359.304 C 336.958 352.740, 337.788 352.553, 365.451 351.989 C 388.079 351.528, 390.935 351.277, 395 349.397 C 405.087 344.732, 410.360 337.044, 410.299 327.090 C 410.231 316.197, 403.879 307.509, 393.164 303.656 C 390.229 302.601, 386.812 300.411, 385.156 298.525 C 380.842 293.612, 380.455 289.451, 383.432 280.027 C 388.297 264.627, 390.177 252.633, 390.177 237 C 390.177 214.090, 385.864 196.358, 375.317 175.902 C 350.244 127.271, 297.518 98.096, 243.636 103.037 M 183.500 173.350 C 170.387 177.692, 160.826 185.973, 155.113 197.935 C 151.610 205.269, 151.500 205.851, 151.500 217 C 151.500 228.149, 151.610 228.731, 155.113 236.065 C 159.878 246.043, 166.957 253.122, 176.935 257.887 C 184.269 261.390, 184.851 261.500, 196 261.500 C 207.149 261.500, 207.731 261.390, 215.065 257.887 C 225.043 253.122, 232.122 246.043, 236.887 236.065 C 240.390 228.731, 240.500 228.149, 240.500 217 C 240.500 205.851, 240.390 205.269, 236.887 197.935 C 232.113 187.939, 225.039 180.871, 215.065 176.131 C 208.153 172.846, 206.637 172.514, 197.500 172.281 C 191.209 172.120, 186.017 172.517, 183.500 173.350 M 303.500 173.350 C 290.387 177.692, 280.826 185.973, 275.113 197.935 C 271.610 205.269, 271.500 205.851, 271.500 217 C 271.500 228.149, 271.610 228.731, 275.113 236.065 C 277.431 240.920, 280.633 245.538, 284.048 248.952 C 287.462 252.367, 292.080 255.569, 296.935 257.887 C 304.269 261.390, 304.851 261.500, 316 261.500 C 327.149 261.500, 327.731 261.390, 335.065 257.887 C 345.043 253.122, 352.122 246.043, 356.887 236.065 C 360.390 228.731, 360.500 228.149, 360.500 217 C 360.500 205.851, 360.390 205.269, 356.887 197.935 C 352.113 187.939, 345.039 180.871, 335.065 176.131 C 328.153 172.846, 326.637 172.514, 317.500 172.281 C 311.209 172.120, 306.017 172.517, 303.500 173.350 M 192.170 202.687 C 190.888 202.947, 188.146 204.854, 186.076 206.924 C 179.753 213.247, 179.725 220.725, 186 227 C 189.962 230.962, 194.118 232.326, 199.156 231.319 C 203.260 230.498, 209.509 224.205, 210.338 220.059 C 212.397 209.765, 202.747 200.538, 192.170 202.687 M 312.170 202.687 C 310.888 202.947, 308.146 204.854, 306.076 206.924 C 299.753 213.247, 299.725 220.725, 306 227 C 309.962 230.962, 314.118 232.326, 319.156 231.319 C 323.260 230.498, 329.509 224.205, 330.338 220.059 C 332.397 209.765, 322.747 200.538, 312.170 202.687 M 248.305 273.955 C 245.480 275.678, 218.318 310.509, 213.007 319.221 C 206.989 329.091, 214.350 341.993, 226 341.993 C 232.742 341.993, 235.927 339.406, 246.205 325.585 C 251.317 318.710, 255.725 313.086, 256 313.086 C 256.275 313.086, 260.683 318.710, 265.795 325.585 C 276.073 339.406, 279.258 341.993, 286 341.993 C 297.650 341.993, 305.011 329.091, 298.993 319.221 C 293.682 310.509, 266.520 275.678, 263.695 273.955 C 259.511 271.404, 252.489 271.404, 248.305 273.955 M 89.507 401.991 C 77.411 414.097, 66.093 424.677, 64.356 425.501 C 60.283 427.434, 56.923 427.393, 50.377 425.330 C 46.045 423.964, 44.381 423.869, 41.248 424.808 C 30.613 427.994, 27.153 441.306, 34.936 449.090 C 36.884 451.038, 39.521 452.199, 44.004 453.080 C 49.063 454.076, 51.057 455.057, 54 458 C 56.943 460.943, 57.924 462.937, 58.920 467.996 C 59.801 472.479, 60.962 475.116, 62.910 477.064 C 70.694 484.847, 84.006 481.387, 87.192 470.752 C 88.131 467.619, 88.036 465.955, 86.670 461.623 C 84.733 455.476, 84.584 452.238, 86.058 448.315 C 86.640 446.767, 101.323 431.257, 118.688 413.849 L 150.260 382.199 132.380 381.780 C 122.546 381.550, 113.825 381.051, 113 380.671 C 111.929 380.178, 105.203 386.282, 89.507 401.991 M 396.500 381 C 394.850 381.420, 386.309 381.817, 377.521 381.882 L 361.542 382 393.213 413.750 C 410.632 431.212, 425.360 446.767, 425.942 448.315 C 427.416 452.238, 427.267 455.476, 425.330 461.623 C 423.964 465.955, 423.869 467.619, 424.808 470.752 C 427.994 481.387, 441.306 484.847, 449.090 477.064 C 451.055 475.099, 452.191 472.493, 453.082 467.908 C 454.077 462.784, 455.045 460.781, 457.913 457.913 C 460.781 455.045, 462.784 454.077, 467.908 453.082 C 472.493 452.191, 475.099 451.055, 477.064 449.090 C 484.847 441.306, 481.387 427.994, 470.752 424.808 C 467.619 423.869, 465.955 423.964, 461.623 425.330 C 455.472 427.269, 452.234 427.417, 448.315 425.937 C 446.767 425.353, 435.362 414.778, 422.972 402.437 C 410.582 390.097, 400.232 380.053, 399.972 380.118 C 399.712 380.183, 398.150 380.580, 396.500 381 M 0.360 439 C 0.360 444.225, 0.529 446.363, 0.735 443.750 C 0.941 441.137, 0.941 436.863, 0.735 434.250 C 0.529 431.637, 0.360 433.775, 0.360 439" stroke="none" fill="#040404" fill-rule="evenodd"/></svg>