<svg xmlns="http://www.w3.org/2000/svg" width="512" height="512" viewBox="0 0 512 512" version="1.1"><path d="" stroke="none" fill="#080404" fill-rule="evenodd"/><path d="M 311 0.623 C 266.987 5.833, 228.594 19.070, 195.644 40.396 C 186.757 46.148, 178.151 52.945, 162 66.967 C 137.706 88.058, 110.854 102.695, 87.889 107.364 C 83.825 108.190, 72.625 109.588, 63 110.471 C 13.510 115.008, 0.013 120.478, 0.005 136 C -0.001 146.813, 9.169 160.285, 23.500 170.519 C 30.087 175.222, 43.995 182.389, 53.750 186.108 L 60 188.490 60 198.045 C 60 221.054, 56.373 249.941, 50.460 274.020 C 44.011 300.286, 36.792 319.220, 21.248 350.634 C 10.719 371.912, 6.237 384.144, 2.974 400.500 C 0.866 411.067, -0.763 436.825, 0.388 441.408 C 0.762 442.900, 5.022 448.321, 9.854 453.454 C 22.657 467.053, 27.756 477.707, 29.876 495.284 C 30.916 503.906, 32.544 507.142, 37.304 510.044 C 40.446 511.959, 44.158 511.993, 256 511.993 C 469.274 511.993, 471.534 511.972, 474.759 510.005 C 479.110 507.353, 481.988 502.392, 482.014 497.500 C 482.089 483.119, 489.253 467.083, 501.335 454.251 C 513.204 441.645, 513 442.096, 513 428.476 C 513 421.001, 512.645 417.102, 512 417.500 C 511.406 417.867, 511 416.689, 511 414.594 C 511 408.962, 507.302 391.348, 503.866 380.613 C 502.125 375.175, 496.033 361.285, 490.328 349.746 C 475.321 319.395, 468.214 300.742, 461.507 274.099 C 455.833 251.559, 452.014 220.977, 452.004 197.995 L 452 188.490 458.250 186.108 C 468.005 182.389, 481.913 175.222, 488.500 170.519 C 502.855 160.268, 513 145.261, 513 134.276 C 513 131.309, 512.616 129.119, 512.146 129.410 C 511.677 129.700, 510.807 128.873, 510.215 127.572 C 508.657 124.153, 503.156 120.290, 496.664 118.056 C 485.160 114.099, 451.327 109.853, 420 108.437 C 404.316 107.728, 398.578 106.224, 394.158 101.663 C 387.960 95.269, 388.019 87.281, 394.309 81.186 C 396.955 78.620, 400.839 76.909, 412.868 73.010 C 421.235 70.298, 432.351 66.207, 437.570 63.918 C 445.893 60.268, 447.362 59.239, 449.529 55.540 C 454.684 46.744, 452.253 40.121, 440.667 31.397 C 422.119 17.430, 399.740 8.059, 372.500 2.851 C 363.654 1.160, 356.898 0.695, 338 0.479 C 325.075 0.330, 312.925 0.395, 311 0.623 M 319.500 31.033 C 273.524 34.238, 224.817 53.291, 194.049 80.106 C 163.332 106.877, 145.739 118.796, 122.698 128.443 C 104.859 135.912, 91.432 138.950, 67 141.043 C 53.742 142.179, 40.864 143.803, 40.251 144.415 C 39.699 144.968, 50.880 151.585, 56.544 154.058 C 87.353 167.509, 135.003 175.762, 200.989 179.076 C 227.894 180.428, 310.548 179.782, 332 178.052 C 388.533 173.494, 427.271 166.076, 453.500 154.784 C 461.070 151.525, 472.380 145.047, 471.695 144.362 C 470.885 143.551, 448.365 141.147, 431 140.017 C 397.405 137.831, 395.399 137.516, 386.284 133.004 C 373.309 126.581, 365.264 117.639, 360.936 104.829 C 359.188 99.654, 358.868 96.767, 359.181 89 C 359.508 80.853, 360.022 78.521, 362.787 72.626 C 368.529 60.384, 381.896 49.690, 396.250 45.854 C 398.863 45.156, 401 44.281, 401 43.908 C 401 43.536, 397.819 42.053, 393.932 40.612 C 372.747 32.759, 345.337 29.232, 319.500 31.033 M 0.320 136 C 0.320 139.575, 0.502 141.037, 0.723 139.250 C 0.945 137.463, 0.945 134.537, 0.723 132.750 C 0.502 130.963, 0.320 132.425, 0.320 136 M 90.527 209.683 C 87.473 267.049, 75.837 310.432, 49.309 363.363 C 44.585 372.788, 39.415 384.325, 37.819 389 C 34.601 398.426, 31 417.508, 31 425.129 C 31 429.663, 31.450 430.591, 36.586 436.644 C 46.882 448.781, 54.362 462.568, 57.561 475.303 L 59.243 482 256 482 L 452.757 482 454.439 475.303 C 457.638 462.568, 465.118 448.781, 475.414 436.644 C 480.550 430.591, 481 429.663, 481 425.129 C 481 417.440, 477.384 398.373, 474.148 389 C 472.533 384.325, 466.251 370.375, 460.186 358 C 436.113 308.882, 425.184 268.391, 421.951 216.353 C 421.307 205.984, 420.717 197.434, 420.640 197.353 C 420.563 197.272, 415.100 198.274, 408.500 199.578 C 401.900 200.882, 395.508 201.961, 394.295 201.975 L 392.089 202 391.760 271.250 C 391.463 333.582, 391.256 341.099, 389.684 346.500 C 386.953 355.880, 381.558 366.439, 376.934 371.456 C 374.609 373.978, 372.907 376.240, 373.150 376.484 C 373.394 376.727, 379.197 377.667, 386.046 378.573 C 395.189 379.782, 402.089 380.054, 412 379.596 C 424.391 379.022, 425.768 379.136, 428.759 380.976 C 435.276 384.986, 437.715 392.984, 434.647 400.282 C 432.854 404.548, 415.273 421.265, 406.236 427.297 C 394.956 434.826, 383.401 440.593, 372 444.384 C 353.905 450.401, 346.721 451.505, 326 451.456 C 309.574 451.418, 306.239 451.116, 296.253 448.762 C 283.226 445.691, 266.917 439.415, 260.508 435.006 L 256.056 431.942 250.778 435.446 C 243.918 439.999, 227.242 446.219, 214 449.164 C 200.118 452.252, 172.291 452.516, 159 449.685 C 131.225 443.771, 107.774 431.511, 88.282 412.716 C 83.025 407.647, 78.111 402.052, 77.362 400.282 C 74.280 393, 76.719 384.989, 83.241 380.976 C 86.232 379.136, 87.609 379.022, 100 379.596 C 109.911 380.054, 116.811 379.782, 125.954 378.573 C 132.803 377.667, 138.606 376.727, 138.850 376.484 C 139.093 376.240, 137.377 373.963, 135.036 371.423 C 132.694 368.883, 129.045 363.105, 126.926 358.583 C 120.215 344.263, 120 341.436, 119.999 267.619 L 119.998 202.500 106.835 200.156 C 99.596 198.866, 93.118 197.599, 92.441 197.339 C 91.525 196.988, 91.034 200.158, 90.527 209.683 M 151 269.981 C 151 338.819, 151.114 340.468, 156.449 348.920 C 159.464 353.696, 163.825 357.124, 171.042 360.392 C 180.965 364.884, 182.300 364.808, 198.013 358.854 L 212.130 353.504 211.497 350.131 C 210.101 342.689, 210.942 329.483, 213.450 319.485 C 218.545 299.176, 230.020 281.183, 242.171 274.452 C 246.900 271.832, 248.456 271.500, 256 271.500 C 263.544 271.500, 265.100 271.832, 269.829 274.452 C 281.980 281.183, 293.455 299.176, 298.550 319.485 C 301.058 329.483, 301.899 342.689, 300.503 350.131 L 299.870 353.504 313.987 358.854 C 329.700 364.808, 331.035 364.884, 340.958 360.392 C 348.175 357.124, 352.536 353.696, 355.551 348.920 C 360.885 340.470, 361 338.805, 361 270.142 L 361 206.705 352.750 207.327 C 348.212 207.668, 337.075 208.513, 328 209.203 C 292.351 211.913, 191.511 210.665, 157.750 207.096 L 151 206.382 151 269.981 M 187.990 233.250 C 182.838 236.757, 180.667 240.339, 180.667 245.334 C 180.667 260.920, 200.961 266.954, 209.005 253.759 C 212.923 247.333, 210.285 236.974, 203.710 232.965 C 199.235 230.236, 192.231 230.364, 187.990 233.250 M 309.020 232.752 C 295.264 239.663, 300.536 261, 316 261 C 324.322 261, 331.333 254.446, 331.333 246.666 C 331.333 234.937, 319.436 227.518, 309.020 232.752 M 251.238 307.881 C 245.969 315.771, 241.690 329.382, 241.617 338.484 C 241.524 350.083, 247.476 358.273, 256 358.273 C 263.049 358.273, 269.069 351.697, 270.449 342.490 C 271.203 337.460, 268.784 324.889, 265.511 316.835 C 263.029 310.727, 257.454 302, 256.035 302 C 255.557 302, 253.398 304.647, 251.238 307.881 M 222 382.687 C 221.175 382.977, 214.200 385.603, 206.500 388.521 C 182.496 397.617, 146.285 407.946, 138.250 407.988 C 134.103 408.010, 135.941 409.789, 143.250 412.826 C 166.644 422.548, 196.055 423.707, 219.500 415.832 C 235.249 410.541, 240.116 406.263, 240.247 397.596 C 240.337 391.650, 237.482 387.021, 232.015 384.250 C 227.665 382.045, 225 381.629, 222 382.687 M 282.500 382.690 C 273.274 385.197, 268.807 397.097, 273.961 405.437 C 277.289 410.821, 290.372 416.321, 307.500 419.537 C 319.882 421.861, 341.107 421.173, 353 418.063 C 362.352 415.617, 376 410.260, 376 409.036 C 376 408.608, 373.842 407.971, 371.205 407.622 C 357.939 405.862, 324.142 395.896, 302.842 387.464 C 291.380 382.927, 286.148 381.699, 282.500 382.690 M 0.385 430 C 0.385 436.875, 0.545 439.688, 0.740 436.250 C 0.936 432.813, 0.936 427.188, 0.740 423.750 C 0.545 420.313, 0.385 423.125, 0.385 430" stroke="none" fill="#040404" fill-rule="evenodd"/></svg>