<?xml version="1.0" encoding="UTF-8" standalone="no"?>
<!-- Created with Inkscape (http://www.inkscape.org/) -->

<svg
   width="100"
   height="100"
   viewBox="0 0 182.71809 182.14982"
   version="1.1"
   id="svg5"
   xml:space="preserve"
   sodipodi:docname="purple_gear.svg"
   inkscape:export-filename="..\png\purple_gear.png"
   inkscape:export-xdpi="984.57001"
   inkscape:export-ydpi="984.57001"
   inkscape:version="1.2.2 (732a01da63, 2022-12-09)"
   xmlns:inkscape="http://www.inkscape.org/namespaces/inkscape"
   xmlns:sodipodi="http://sodipodi.sourceforge.net/DTD/sodipodi-0.dtd"
   xmlns="http://www.w3.org/2000/svg"
   xmlns:svg="http://www.w3.org/2000/svg"><sodipodi:namedview
     id="namedview8"
     pagecolor="#ffffff"
     bordercolor="#000000"
     borderopacity="0.25"
     inkscape:showpageshadow="2"
     inkscape:pageopacity="0.0"
     inkscape:pagecheckerboard="0"
     inkscape:deskcolor="#d1d1d1"
     showgrid="false"
     inkscape:zoom="2.9638544"
     inkscape:cx="-24.292691"
     inkscape:cy="94.134179"
     inkscape:window-width="1920"
     inkscape:window-height="1017"
     inkscape:window-x="1672"
     inkscape:window-y="-8"
     inkscape:window-maximized="1"
     inkscape:current-layer="svg5" /><defs
     id="defs2" /><g
     id="layer2"
     transform="matrix(0.99821067,0,0,1,0.23118291,-0.14217975)"><path
       d="m 5977.7637,5641.9094 c 3.53,2.94 8.75,2.44 11.69,-1.06 2.94,-3.5 2.46,-8.75 -1.04,-11.69 -0.14,-0.12 -1.76,-1.44 -4.77,-3.97 1.37,-3.75 -0.14,-8.06 -3.73,-10.09 -0.3,-0.16 -9,-4.94 -25.25,-14.6 -220.75,-190.09 -1465.8902,-1302.15 -1981.6802,-2633.56 78.5,109.85 217.13,228.94 459.31,276.16 397.6202,77.56 514.7502,165.56 544.5302,195.56 -64.51,9.03 -320.5,50.34 -448.7302,152.81 -3.3,2.63 -4.07,7.25 -1.95,10.78 0.18,0.32 0.39,0.6 0.62,0.91 2.62,3.28 7.25,4.06 10.77,1.94 0.16,-0.13 0.31,-0.19 0.46,-0.31 262.0902,-158.29 651.7402,32.9 677.2702,45.75 l 471.3,519.65 c -89.53,-27.03 -361.89,-91.09 -584.28,48.13 -0.13,0.06 -0.25,0.09 -0.36,0.18 -3.29,2.07 -4.8,6.22 -3.39,9.97 0.2,0.53 0.44,1 0.73,1.47 2.04,3.28 6.18,4.81 9.94,3.41 300.96,-111.25 781.26,180.28 809.56,197.69 202.96,272.37 405.56,544.12 606.75,817.68 -71.42,-17.18 -296.83,-60.65 -474.88,23.82 -4.13,2 -5.9,6.9 -3.93,11.06 1.97,4.12 6.92,5.87 11.04,3.94 15.1,-7.16 30.54,-13.38 46.21,-18.75 552.5,-113.91 776.76,1120.62 512.88,1160.15 -1240.2,15.6 -1295.83,-1012.28 -1332.98,-1084 -0.06,-0.06 -0.1,-0.19 -0.15,-0.31 -0.78,-1.47 -2.02,-2.72 -3.63,-3.53 -2.47,-1.25 -5.28,-1.16 -7.56,0.06 -1.48,0.78 -2.74,2 -3.55,3.63 -29.64,58.87 -74.43,611.37 -41.24,689.96 -127.35,-90.9 -476.9,-671.9 -547.04,-1063 -37.34,126.41 -33.96,290.22 -2.28,480.07 -310.5102,-119.72 -623.9202,-1032.6 -661.8302,-1349.66 l -6.26,324.88 c 1,17.9 3.91,45.18 3.45,62 l -12,49.46 c -524.79,-756.06 -302.21,-1147.34 -317.17,-1203.53 -6.42,-24.09 -69.19,-124.68 -86.78,-154.59 -117.06,-198.91 -240.52,-378.78 -358.34,-573.22 -164.24,-271.06 -244.54,-323.12 -168.58,-685.87 59.01,54.25 62.79,142.21 222.59,263.65 46.92,35.66 89.92,51.69 119.26,124.63 392.24,974.87 1583.2402,2739.59 2532.2302,3304.47 20.98,18.06 32.43,27.56 32.79,27.87"
       style="fill:#000000;fill-opacity:1;fill-rule:evenodd;stroke:none"
       id="path16"
       transform="matrix(0.03527778,0,0,-0.03527778,-81.27683,238.69616)" /></g><g
     id="layer1"
     transform="matrix(0.99821067,0,0,1,-21.564152,-44.119488)"><path
       d="m 2303.91,4269.06 v -77.25 c 158.98,-55.25 336.21,-127.43 496.49,-182.56 71.12,-24.44 65.61,-70.22 80.58,-145 16.21,-80.87 51.56,-192 9.14,-233.59 l -117.16,-109.41 c -12.22,-10.25 -16.54,-18.28 -27.87,-28.69 -10.67,-9.78 -19.42,-16.37 -30.75,-26 l -86.47,-83.37 c -10.53,-9.78 -19.66,-16.25 -30.86,-25.94 l -86.77,-83.19 c -23.33,-26.28 -15.95,-53.75 -2.12,-82.93 56.53,-119.41 133.4,-254.19 192.92,-373.57 14.07,-28.18 39.29,-40 73.47,-34.12 81.31,14 275.76,62 369.99,83.12 43.13,9.66 108.7,33 154.5,23.28 l 22.55,35.22 c 67.45,105.38 135.01,210.88 196.31,315.07 l 15.04,25.56 c 22.47,37.19 59.65,98.72 60.83,103.19 3.95,14.84 -5.92,-5.91 -8.87,7.56 -4.73,21.69 -10.61,48.62 -15.87,80.78 -7.74,14.31 -15.79,29.5 -24.29,45.87 -93.64,180.47 -143,370.41 -160.18,596.35 -22.86,300.59 73.83,658.75 236.67,900.37 60.45,89.69 65.21,92.85 120.1,163.13 35.33,45.25 82.27,84.9 117.49,121.19 9.74,10.06 9.97,14.46 21.03,23.4 l 104.82,85.41 c 235.88,171.47 515.11,291.09 830.8,303.5 16.71,0.69 33.22,1.09 49.53,1.34 115.84,207.28 240.57,377.72 311.92,428.63 l 0.06,-0.1 c 28.13,19.97 65.64,25.41 99.78,11.03 52.45,-22.09 77.07,-82.59 54.97,-135.03 -6.46,-15.28 -6.03,-88.87 -1.94,-180.87 85.58,184.81 228.65,387.81 474.63,530.72 l -2.94,82.22 c -10.8,188.28 24.65,199.18 -114.67,230.56 l -281,67.22 c -27.97,6.59 -116.91,24.59 -135.48,34.03 h -26.35 c -48.98,-26.25 -31.26,-10.44 -59.39,-60.41 -14.13,-25.12 -27.78,-50.44 -40.8,-76.53 l -164.34,-305.12 c -51.86,-91.5 -34.69,-74.82 -154.43,-79.75 -109.4,-4.44 -117.72,-19.94 -173.42,57.12 -32.93,45.5 -62.91,93.53 -96.07,138.56 l -144.4,207.72 c -68.63,106.28 -76.27,84.78 -237.3,29.1 -57.97,-20.04 -117.38,-39.63 -175.5,-59.13 -180.93,-60.81 -196.03,-42.41 -188.63,-162.69 L 3835.39,6126 c 15.1,-179.59 25.64,-162.12 -91.68,-241.16 -122.33,-82.4 -102.66,-88.75 -242.93,-29.78 -111.58,46.97 -223.97,90.6 -334.99,138.41 -90.99,39.22 -98.43,41.53 -153.9,-24.38 l -211.37,-262.06 c -42.63,-53.4 -95.01,-95.9 -58.45,-149.47 l 101.38,-133.31 c 33.89,-44.44 66.18,-87.72 101.49,-133.25 l 78.51,-103.56 c 8.39,-10.81 16.77,-19.63 24.16,-32.47 28.96,-50.53 -17.89,-130.56 -38.43,-178.56 -24.94,-58.35 -37.7,-124.25 -93.84,-140.63 l -400.66,-72.9 c -175.17,-29.16 -159.98,-5.5 -189.77,-280.1 -4.45,-40.97 -13.04,-189.22 -21,-213.72 z M 3423.95,2152.31 c -6.88,-32.5 -10.73,-57 -9.02,-65.75 7.84,-40.18 80.94,-71.56 128.83,-97.62 38.13,-20.75 273.64,-158 290.98,-162.22 54.25,-13.25 90.56,41.06 136,88.09 l 225.67,227.5 c 108.65,113.19 74.43,94.13 324.58,39.07 86.87,-19.13 104.78,-16.19 131.05,-95.41 L 4765.46,1746 c 14.23,-42.75 32.08,-121.56 60.11,-138.22 l 21.75,-12.94 h 123.64 l 324.31,30.82 c 33.93,4.34 57.97,22.09 65.79,52.03 15.85,60.72 27.69,131 40.97,193.75 13.88,65.62 27.67,128.84 40.82,193.84 38.91,192.25 20.4,147.91 237.29,232.03 96.56,37.41 103.93,41.5 169.84,-13.22 l 260,-209.34 c 155.64,-124.31 118.37,-123.5 283.86,2.5 45.67,34.81 88.54,66.78 133.5,101.25 23.5,18.03 123.27,88.97 131.98,102.88 28.92,46.09 -19.39,131.87 -35.92,177.12 -41.77,114.5 -86.24,226.44 -129.82,339.78 -29.01,75.47 -4.09,92.53 46.12,161.13 121.16,165.53 77.84,146.5 316.4,120.56 70.3,-7.63 140.99,-15.75 211.99,-22.94 69.94,-7.06 154.09,-34.09 183.2,24.5 l 126.09,343.22 c 17.52,50.38 64.33,132.28 19.86,171.97 -7.42,6.66 -25.88,17.37 -35.76,25.09 l -235.19,173.47 c -206.78,149.69 -184.65,117.69 -174.93,282.38 5.91,100.22 -1.02,112.34 80.66,153.4 l 313.08,156.28 c 26.15,13.97 52.24,26.07 78.31,39.04 41.55,20.68 38.04,16.18 59.91,56.68 v 26.57 c -9.44,19.9 -25.64,111.96 -31.9,140.65 l -62.01,285.85 c -12.5,54.75 -16.38,91.12 -76.82,96.12 -163.4,13.63 -327.18,20.5 -491.12,31.63 -59.24,4 -71.79,31.43 -96.26,74.09 -80.57,140.47 -80.49,131.44 -16.26,237.81 l 194.1,327.97 c 21.94,37.16 58.05,79.97 18.51,124.31 -27.08,30.35 -69.21,75.75 -105.51,109.69 -2.3,-12.25 -4.76,-24.56 -7.38,-36.84 -21.17,-99.07 -53.36,-201.19 -95.95,-296.22 -41.37,-92.31 -92.49,-177.75 -153.01,-248.25 12.56,-3.16 24.74,-8.69 35.82,-16.88 45.99,-33.65 55.94,-98.28 22.23,-144.28 -103.59,-140.87 -211.15,-286.03 -320.53,-433.15 62.13,-149.25 99.62,-310.54 111.66,-493.07 24,-363.87 -97.76,-734.12 -314.05,-1010.62 -41.77,-53.41 -83.02,-103.1 -133.38,-149.81 -19.54,-18.13 -25.93,-30.22 -46.58,-46.44 l -104.21,-85.94 c -65.47,-52.06 -146.54,-99.75 -232.13,-144.19 -422.34,-219.12 -955.89,-214.06 -1375.97,6 -38.67,20.25 -88.32,49.13 -134.79,79.07 l -1.74,-2.41 c -26.7,-37.53 -76.35,-53.75 -121.27,-36.41 -53.13,20.57 -79.55,80.28 -59.01,133.41 l 12.69,32.34 c -160.65,-280.75 -291.83,-543.87 -380.93,-765.31 -26.52,-65.94 -58.29,-99.37 -93.57,-126.44 z"
       style="mix-blend-mode:normal;fill:#9352D9;fill-opacity:1;fill-rule:evenodd;stroke:none"
       id="path14"
       transform="matrix(0.03527778,0,0,-0.03527778,-59.442426,282.67347)" /></g></svg>
