<svg xmlns="http://www.w3.org/2000/svg" xml:space="preserve" width="100" height="100" viewBox="0 0 182.718 182.15"><path d="M5977.764 5641.91c3.53 2.94 8.75 2.44 11.69-1.06 2.94-3.5 2.46-8.75-1.04-11.69-.14-.12-1.76-1.44-4.77-3.97a8.333 8.333 0 0 0-3.73-10.09c-.3-.16-9-4.94-25.25-14.6-220.75-190.09-1465.89-1302.15-1981.68-2633.56 78.5 109.85 217.13 228.94 459.31 276.16 397.62 77.56 514.75 165.56 544.53 195.56-64.51 9.03-320.5 50.34-448.73 152.81a8.312 8.312 0 0 0-1.95 10.78c.18.32.39.6.62.91a8.319 8.319 0 0 0 10.77 1.94c.16-.13.31-.19.46-.31 262.09-158.29 651.74 32.9 677.27 45.75l471.3 519.65c-89.53-27.03-361.89-91.09-584.28 48.13-.13.06-.25.09-.36.18-3.29 2.07-4.8 6.22-3.39 9.97.2.53.44 1 .73 1.47 2.04 3.28 6.18 4.81 9.94 3.41 300.96-111.25 781.26 180.28 809.56 197.69 202.96 272.37 405.56 544.12 606.75 817.68-71.42-17.18-296.83-60.65-474.88 23.82-4.13 2-5.9 6.9-3.93 11.06 1.97 4.12 6.92 5.87 11.04 3.94 15.1-7.16 30.54-13.38 46.21-18.75 552.5-113.91 776.76 1120.62 512.88 1160.15-1240.2 15.6-1295.83-1012.28-1332.98-1084-.06-.06-.1-.19-.15-.31a8.32 8.32 0 0 0-3.63-3.53 8.17 8.17 0 0 0-7.56.06c-1.48.78-2.74 2-3.55 3.63-29.64 58.87-74.43 611.37-41.24 689.96-127.35-90.9-476.9-671.9-547.04-1063-37.34 126.41-33.96 290.22-2.28 480.07-310.51-119.72-623.92-1032.6-661.83-1349.66l-6.26 324.88c1 17.9 3.91 45.18 3.45 62l-12 49.46c-524.79-756.06-302.21-1147.34-317.17-1203.53-6.42-24.09-69.19-124.68-86.78-154.59-117.06-198.91-240.52-378.78-358.34-573.22-164.24-271.06-244.54-323.12-168.58-685.87 59.01 54.25 62.79 142.21 222.59 263.65 46.92 35.66 89.92 51.69 119.26 124.63 392.24 974.87 1583.24 2739.59 2532.23 3304.47 20.98 18.06 32.43 27.56 32.79 27.87" style="fill:#000;fill-opacity:1;fill-rule:evenodd;stroke:none" transform="matrix(.03521 0 0 -.03528 -80.9 238.554)"/><path d="M2303.91 4269.06v-77.25c158.98-55.25 336.21-127.43 496.49-182.56 71.12-24.44 65.61-70.22 80.58-145 16.21-80.87 51.56-192 9.14-233.59l-117.16-109.41c-12.22-10.25-16.54-18.28-27.87-28.69-10.67-9.78-19.42-16.37-30.75-26l-86.47-83.37c-10.53-9.78-19.66-16.25-30.86-25.94l-86.77-83.19c-23.33-26.28-15.95-53.75-2.12-82.93 56.53-119.41 133.4-254.19 192.92-373.57 14.07-28.18 39.29-40 73.47-34.12 81.31 14 275.76 62 369.99 83.12 43.13 9.66 108.7 33 154.5 23.28l22.55 35.22c67.45 105.38 135.01 210.88 196.31 315.07l15.04 25.56c22.47 37.19 59.65 98.72 60.83 103.19 3.95 14.84-5.92-5.91-8.87 7.56-4.73 21.69-10.61 48.62-15.87 80.78a3068.35 3068.35 0 0 0-24.29 45.87c-93.64 180.47-143 370.41-160.18 596.35-22.86 300.59 73.83 658.75 236.67 900.37 60.45 89.69 65.21 92.85 120.1 163.13 35.33 45.25 82.27 84.9 117.49 121.19 9.74 10.06 9.97 14.46 21.03 23.4l104.82 85.41c235.88 171.47 515.11 291.09 830.8 303.5 16.71.69 33.22 1.09 49.53 1.34 115.84 207.28 240.57 377.72 311.92 428.63l.06-.1c28.13 19.97 65.64 25.41 99.78 11.03 52.45-22.09 77.07-82.59 54.97-135.03-6.46-15.28-6.03-88.87-1.94-180.87 85.58 184.81 228.65 387.81 474.63 530.72l-2.94 82.22c-10.8 188.28 24.65 199.18-114.67 230.56l-281 67.22c-27.97 6.59-116.91 24.59-135.48 34.03h-26.35c-48.98-26.25-31.26-10.44-59.39-60.41-14.13-25.12-27.78-50.44-40.8-76.53l-164.34-305.12c-51.86-91.5-34.69-74.82-154.43-79.75-109.4-4.44-117.72-19.94-173.42 57.12-32.93 45.5-62.91 93.53-96.07 138.56l-144.4 207.72c-68.63 106.28-76.27 84.78-237.3 29.1-57.97-20.04-117.38-39.63-175.5-59.13-180.93-60.81-196.03-42.41-188.63-162.69l25.73-329.06c15.1-179.59 25.64-162.12-91.68-241.16-122.33-82.4-102.66-88.75-242.93-29.78-111.58 46.97-223.97 90.6-334.99 138.41-90.99 39.22-98.43 41.53-153.9-24.38l-211.37-262.06c-42.63-53.4-95.01-95.9-58.45-149.47l101.38-133.31c33.89-44.44 66.18-87.72 101.49-133.25l78.51-103.56c8.39-10.81 16.77-19.63 24.16-32.47 28.96-50.53-17.89-130.56-38.43-178.56-24.94-58.35-37.7-124.25-93.84-140.63l-400.66-72.9c-175.17-29.16-159.98-5.5-189.77-280.1-4.45-40.97-13.04-189.22-21-213.72zm1120.04-2116.75c-6.88-32.5-10.73-57-9.02-65.75 7.84-40.18 80.94-71.56 128.83-97.62 38.13-20.75 273.64-158 290.98-162.22 54.25-13.25 90.56 41.06 136 88.09l225.67 227.5c108.65 113.19 74.43 94.13 324.58 39.07 86.87-19.13 104.78-16.19 131.05-95.41L4765.46 1746c14.23-42.75 32.08-121.56 60.11-138.22l21.75-12.94h123.64l324.31 30.82c33.93 4.34 57.97 22.09 65.79 52.03 15.85 60.72 27.69 131 40.97 193.75 13.88 65.62 27.67 128.84 40.82 193.84 38.91 192.25 20.4 147.91 237.29 232.03 96.56 37.41 103.93 41.5 169.84-13.22l260-209.34c155.64-124.31 118.37-123.5 283.86 2.5 45.67 34.81 88.54 66.78 133.5 101.25 23.5 18.03 123.27 88.97 131.98 102.88 28.92 46.09-19.39 131.87-35.92 177.12-41.77 114.5-86.24 226.44-129.82 339.78-29.01 75.47-4.09 92.53 46.12 161.13 121.16 165.53 77.84 146.5 316.4 120.56 70.3-7.63 140.99-15.75 211.99-22.94 69.94-7.06 154.09-34.09 183.2 24.5l126.09 343.22c17.52 50.38 64.33 132.28 19.86 171.97-7.42 6.66-25.88 17.37-35.76 25.09l-235.19 173.47c-206.78 149.69-184.65 117.69-174.93 282.38 5.91 100.22-1.02 112.34 80.66 153.4l313.08 156.28c26.15 13.97 52.24 26.07 78.31 39.04 41.55 20.68 38.04 16.18 59.91 56.68v26.57c-9.44 19.9-25.64 111.96-31.9 140.65l-62.01 285.85c-12.5 54.75-16.38 91.12-76.82 96.12-163.4 13.63-327.18 20.5-491.12 31.63-59.24 4-71.79 31.43-96.26 74.09-80.57 140.47-80.49 131.44-16.26 237.81l194.1 327.97c21.94 37.16 58.05 79.97 18.51 124.31-27.08 30.35-69.21 75.75-105.51 109.69-2.3-12.25-4.76-24.56-7.38-36.84-21.17-99.07-53.36-201.19-95.95-296.22-41.37-92.31-92.49-177.75-153.01-248.25 12.56-3.16 24.74-8.69 35.82-16.88 45.99-33.65 55.94-98.28 22.23-144.28-103.59-140.87-211.15-286.03-320.53-433.15 62.13-149.25 99.62-310.54 111.66-493.07 24-363.87-97.76-734.12-314.05-1010.62-41.77-53.41-83.02-103.1-133.38-149.81-19.54-18.13-25.93-30.22-46.58-46.44l-104.21-85.94c-65.47-52.06-146.54-99.75-232.13-144.19-422.34-219.12-955.89-214.06-1375.97 6-38.67 20.25-88.32 49.13-134.79 79.07l-1.74-2.41c-26.7-37.53-76.35-53.75-121.27-36.41-53.13 20.57-79.55 80.28-59.01 133.41l12.69 32.34c-160.65-280.75-291.83-543.87-380.93-765.31-26.52-65.94-58.29-99.37-93.57-126.44z" style="mix-blend-mode:normal;fill:#4084f5;fill-opacity:1;fill-rule:evenodd;stroke:none" transform="matrix(.03521 0 0 -.03528 -80.9 238.554)"/></svg>